<svg width="843" height="288" viewBox="0 0 843 288" fill="none" xmlns="http://www.w3.org/2000/svg">
<g opacity="0.86">
<g opacity="0.86">
<path d="M0.27002 108.33C0.27002 108.33 128.27 74.68 260.27 75.33C463.27 76.33 697.05 177.33 842.16 106.33V128.33C842.16 128.33 736.27 216.33 546.27 188.33C356.27 160.33 270.27 63.33 0.27002 127.33V108.33Z" fill="url(#paint0_linear_132_3)"/>
<path d="M0.27002 108.33C0.27002 108.33 128.27 74.68 260.27 75.33C463.27 76.33 697.05 177.33 842.16 106.33V128.33C842.16 128.33 736.27 216.33 546.27 188.33C356.27 160.33 270.27 63.33 0.27002 127.33V108.33Z" fill="#EF00F4" fill-opacity="0.2"/>
</g>
<g opacity="0.86">
<path d="M842.16 106.56V128.14C836.16 131.33 728.63 215.01 539.16 186.27C349.69 157.53 261.56 67.1399 0.27002 129.07V108.52C0.27002 108.52 129.12 74.6299 264.95 77.3299C469.45 81.3999 701.73 175.27 842.16 106.56Z" fill="url(#paint1_linear_132_3)"/>
<path d="M842.16 106.56V128.14C836.16 131.33 728.63 215.01 539.16 186.27C349.69 157.53 261.56 67.1399 0.27002 129.07V108.52C0.27002 108.52 129.12 74.6299 264.95 77.3299C469.45 81.3999 701.73 175.27 842.16 106.56Z" fill="#EF00F4" fill-opacity="0.2"/>
</g>
<g opacity="0.86">
<path d="M842.16 106.78V127.94C830.16 134.33 720.98 213.68 531.95 184.2C342.92 154.72 252.85 70.94 0.27002 130.81V108.72C0.27002 108.72 129.97 74.54 269.62 79.33C475.62 86.39 706.41 173.2 842.16 106.78Z" fill="url(#paint2_linear_132_3)"/>
<path d="M842.16 106.78V127.94C830.16 134.33 720.98 213.68 531.95 184.2C342.92 154.72 252.85 70.94 0.27002 130.81V108.72C0.27002 108.72 129.97 74.54 269.62 79.33C475.62 86.39 706.41 173.2 842.16 106.78Z" fill="#EF00F4" fill-opacity="0.2"/>
</g>
<g opacity="0.86">
<path d="M842.16 107.01V127.75C824.16 137.33 713.33 212.36 524.79 182.14C336.25 151.92 244.14 74.7499 0.27002 132.56V108.91C0.27002 108.91 130.81 74.4199 274.27 81.3299C481.78 91.3299 711.09 171.14 842.16 107.01Z" fill="url(#paint3_linear_132_3)"/>
<path d="M842.16 107.01V127.75C824.16 137.33 713.33 212.36 524.79 182.14C336.25 151.92 244.14 74.7499 0.27002 132.56V108.91C0.27002 108.91 130.81 74.4199 274.27 81.3299C481.78 91.3299 711.09 171.14 842.16 107.01Z" fill="#EF00F4" fill-opacity="0.2"/>
</g>
<g opacity="0.86">
<path d="M842.16 107.23V127.56C818.16 140.33 705.69 211.04 517.62 180.07C329.55 149.1 235.43 78.56 0.27002 134.33V109.13C0.27002 109.13 131.65 74.27 278.98 83.33C487.93 96.18 715.77 169.07 842.16 107.23Z" fill="url(#paint4_linear_132_3)"/>
<path d="M842.16 107.23V127.56C818.16 140.33 705.69 211.04 517.62 180.07C329.55 149.1 235.43 78.56 0.27002 134.33V109.13C0.27002 109.13 131.65 74.27 278.98 83.33C487.93 96.18 715.77 169.07 842.16 107.23Z" fill="#EF00F4" fill-opacity="0.2"/>
</g>
<g opacity="0.86">
<path d="M842.16 107.46V127.33C812.16 143.33 698.04 209.69 510.46 177.98C322.88 146.27 226.72 82.3299 0.27002 136.04V109.33C0.27002 109.33 132.48 74.1099 283.66 85.3299C494.07 100.98 720.45 167.01 842.16 107.46Z" fill="url(#paint5_linear_132_3)"/>
<path d="M842.16 107.46V127.33C812.16 143.33 698.04 209.69 510.46 177.98C322.88 146.27 226.72 82.3299 0.27002 136.04V109.33C0.27002 109.33 132.48 74.1099 283.66 85.3299C494.07 100.98 720.45 167.01 842.16 107.46Z" fill="#EF00F4" fill-opacity="0.2"/>
</g>
<g opacity="0.86">
<path d="M842.16 107.68V127.17C806.14 146.33 690.4 208.39 503.27 175.94C316.14 143.49 218.01 86.17 0.27002 137.78V109.49C0.27002 109.49 133.27 73.87 288.33 87.33C500.27 105.73 725.14 164.94 842.16 107.68Z" fill="url(#paint6_linear_132_3)"/>
<path d="M842.16 107.68V127.17C806.14 146.33 690.4 208.39 503.27 175.94C316.14 143.49 218.01 86.17 0.27002 137.78V109.49C0.27002 109.49 133.27 73.87 288.33 87.33C500.27 105.73 725.14 164.94 842.16 107.68Z" fill="#EF00F4" fill-opacity="0.2"/>
</g>
<g opacity="0.86">
<path d="M842.16 107.91V126.97C800.16 149.33 682.75 207.07 496.16 173.88C309.57 140.69 209.27 89.9799 0.27002 139.52V109.69C0.27002 109.69 134.12 73.6199 293.01 89.3299C506.35 110.42 729.82 162.88 842.16 107.91Z" fill="url(#paint7_linear_132_3)"/>
<path d="M842.16 107.91V126.97C800.16 149.33 682.75 207.07 496.16 173.88C309.57 140.69 209.27 89.9799 0.27002 139.52V109.69C0.27002 109.69 134.12 73.6199 293.01 89.3299C506.35 110.42 729.82 162.88 842.16 107.91Z" fill="#EF00F4" fill-opacity="0.2"/>
</g>
<g opacity="0.86">
<path d="M842.16 108.14V126.78C794.16 152.33 675.16 205.78 488.98 171.78C302.8 137.78 200.59 93.78 0.27002 141.27V109.88C0.27002 109.88 134.95 73.33 297.69 91.33C512.5 115.07 734.5 160.81 842.16 108.14Z" fill="url(#paint8_linear_132_3)"/>
<path d="M842.16 108.14V126.78C794.16 152.33 675.16 205.78 488.98 171.78C302.8 137.78 200.59 93.78 0.27002 141.27V109.88C0.27002 109.88 134.95 73.33 297.69 91.33C512.5 115.07 734.5 160.81 842.16 108.14Z" fill="#EF00F4" fill-opacity="0.2"/>
</g>
<g opacity="0.86">
<path d="M842.16 108.33V126.56C788.16 155.3 667.46 204.4 481.82 169.72C296.18 135.04 191.88 97.5899 0.27002 143.01V110.07C0.27002 110.07 135.77 73.07 302.37 93.33C518.64 119.68 739.18 158.75 842.16 108.33Z" fill="url(#paint9_linear_132_3)"/>
<path d="M842.16 108.33V126.56C788.16 155.3 667.46 204.4 481.82 169.72C296.18 135.04 191.88 97.5899 0.27002 143.01V110.07C0.27002 110.07 135.77 73.07 302.37 93.33C518.64 119.68 739.18 158.75 842.16 108.33Z" fill="#EF00F4" fill-opacity="0.2"/>
</g>
<g opacity="0.86">
<path d="M842.16 108.59V126.39C782.16 158.33 659.82 203.1 474.66 167.69C289.5 132.28 183.17 101.39 0.27002 144.75V110.27C0.27002 110.27 136.6 72.7 307.04 95.33C524.78 124.24 743.86 156.69 842.16 108.59Z" fill="url(#paint10_linear_132_3)"/>
<path d="M842.16 108.59V126.39C782.16 158.33 659.82 203.1 474.66 167.69C289.5 132.28 183.17 101.39 0.27002 144.75V110.27C0.27002 110.27 136.6 72.7 307.04 95.33C524.78 124.24 743.86 156.69 842.16 108.59Z" fill="#EF00F4" fill-opacity="0.2"/>
</g>
<g opacity="0.86">
<path d="M842.16 108.81V126.2C776.16 161.33 652.16 201.78 467.5 165.62C282.84 129.46 174.46 105.2 0.27002 146.49V110.49C0.27002 110.49 137.42 72.33 311.72 97.33C530.93 128.76 748.54 154.62 842.16 108.81Z" fill="url(#paint11_linear_132_3)"/>
<path d="M842.16 108.81V126.2C776.16 161.33 652.16 201.78 467.5 165.62C282.84 129.46 174.46 105.2 0.27002 146.49V110.49C0.27002 110.49 137.42 72.33 311.72 97.33C530.93 128.76 748.54 154.62 842.16 108.81Z" fill="#EF00F4" fill-opacity="0.2"/>
</g>
<g opacity="0.86">
<path d="M842.16 109.04V126.04C770.16 164.36 644.53 200.49 460.33 163.59C276.13 126.69 165.75 109.01 0.27002 148.23V110.65C0.27002 110.65 138.27 71.95 316.4 99.33C537.08 133.25 753.27 152.56 842.16 109.04Z" fill="url(#paint12_linear_132_3)"/>
<path d="M842.16 109.04V126.04C770.16 164.36 644.53 200.49 460.33 163.59C276.13 126.69 165.75 109.01 0.27002 148.23V110.65C0.27002 110.65 138.27 71.95 316.4 99.33C537.08 133.25 753.27 152.56 842.16 109.04Z" fill="#EF00F4" fill-opacity="0.2"/>
</g>
<g opacity="0.86">
<path d="M842.16 109.27V125.81C764.16 167.33 636.88 199.14 453.16 161.49C269.44 123.84 157.04 112.81 0.27002 149.98V110.85C0.27002 110.85 139.09 71.53 321.08 101.33C543.27 137.71 757.9 150.49 842.16 109.27Z" fill="url(#paint13_linear_132_3)"/>
<path d="M842.16 109.27V125.81C764.16 167.33 636.88 199.14 453.16 161.49C269.44 123.84 157.04 112.81 0.27002 149.98V110.85C0.27002 110.85 139.09 71.53 321.08 101.33C543.27 137.71 757.9 150.49 842.16 109.27Z" fill="#EF00F4" fill-opacity="0.2"/>
</g>
<g opacity="0.86">
<path d="M842.16 109.49V125.62C758.11 170.33 629.27 197.81 446.01 159.43C262.75 121.05 148.33 116.62 0.27002 151.72V111.04C0.27002 111.04 139.93 71.0399 325.75 103.33C549.4 142.14 762.58 148.43 842.16 109.49Z" fill="url(#paint14_linear_132_3)"/>
<path d="M842.16 109.49V125.62C758.11 170.33 629.27 197.81 446.01 159.43C262.75 121.05 148.33 116.62 0.27002 151.72V111.04C0.27002 111.04 139.93 71.0399 325.75 103.33C549.4 142.14 762.58 148.43 842.16 109.49Z" fill="#EF00F4" fill-opacity="0.2"/>
</g>
<g opacity="0.86">
<path d="M842.16 109.72V125.43C752.16 173.33 621.59 196.49 438.85 157.36C256.11 118.23 139.62 120.43 0.27002 153.46V111.23C0.27002 111.23 140.78 70.62 330.43 105.33C555.57 146.54 767.27 146.33 842.16 109.72Z" fill="url(#paint15_linear_132_3)"/>
<path d="M842.16 109.72V125.43C752.16 173.33 621.59 196.49 438.85 157.36C256.11 118.23 139.62 120.43 0.27002 153.46V111.23C0.27002 111.23 140.78 70.62 330.43 105.33C555.57 146.54 767.27 146.33 842.16 109.72Z" fill="#EF00F4" fill-opacity="0.2"/>
</g>
<g opacity="0.86">
<path d="M842.16 109.94V125.23C746.1 176.33 613.95 195.17 431.69 155.33C249.43 115.49 130.92 124.23 0.27002 155.2V111.43C0.27002 111.43 141.63 70.13 335.11 107.33C561.75 150.91 771.95 144.33 842.16 109.94Z" fill="url(#paint16_linear_132_3)"/>
<path d="M842.16 109.94V125.23C746.1 176.33 613.95 195.17 431.69 155.33C249.43 115.49 130.92 124.23 0.27002 155.2V111.43C0.27002 111.43 141.63 70.13 335.11 107.33C561.75 150.91 771.95 144.33 842.16 109.94Z" fill="#EF00F4" fill-opacity="0.2"/>
</g>
<g opacity="0.86">
<path d="M842.16 110.17V125.04C740.1 179.33 606.27 193.85 424.53 153.23C242.79 112.61 122.21 128.04 0.27002 156.94V111.62C0.27002 111.62 142.48 69.62 339.79 109.33C567.93 155.26 776.63 142.23 842.16 110.17Z" fill="url(#paint17_linear_132_3)"/>
<path d="M842.16 110.17V125.04C740.1 179.33 606.27 193.85 424.53 153.23C242.79 112.61 122.21 128.04 0.27002 156.94V111.62C0.27002 111.62 142.48 69.62 339.79 109.33C567.93 155.26 776.63 142.23 842.16 110.17Z" fill="#EF00F4" fill-opacity="0.2"/>
</g>
<g opacity="0.86">
<path d="M842.16 110.39V124.85C734.1 182.33 598.66 192.52 417.37 151.17C236.08 109.82 113.5 131.85 0.27002 158.68V111.81C0.27002 111.81 143.35 69.07 344.46 111.33C574.12 159.58 781.27 140.17 842.16 110.39Z" fill="url(#paint18_linear_132_3)"/>
<path d="M842.16 110.39V124.85C734.1 182.33 598.66 192.52 417.37 151.17C236.08 109.82 113.5 131.85 0.27002 158.68V111.81C0.27002 111.81 143.35 69.07 344.46 111.33C574.12 159.58 781.27 140.17 842.16 110.39Z" fill="#EF00F4" fill-opacity="0.2"/>
</g>
<g opacity="0.86">
<path d="M842.16 110.62V124.62C728.09 185.33 591.01 191.2 410.21 149.1C229.41 107 104.79 135.65 0.27002 160.43V112.01C0.27002 112.01 144.27 68.5199 349.14 113.33C580.32 163.89 785.99 138.1 842.16 110.62Z" fill="url(#paint19_linear_132_3)"/>
<path d="M842.16 110.62V124.62C728.09 185.33 591.01 191.2 410.21 149.1C229.41 107 104.79 135.65 0.27002 160.43V112.01C0.27002 112.01 144.27 68.5199 349.14 113.33C580.32 163.89 785.99 138.1 842.16 110.62Z" fill="#EF00F4" fill-opacity="0.2"/>
</g>
<g opacity="0.86">
<path d="M842.16 110.85V124.46C722.09 188.33 583.37 189.88 403.04 147.04C222.71 104.2 96.08 139.46 0.27002 162.17V112.17C0.27002 112.17 145.1 67.93 353.82 115.33C586.52 168.17 790.67 136.04 842.16 110.85Z" fill="url(#paint20_linear_132_3)"/>
<path d="M842.16 110.85V124.46C722.09 188.33 583.37 189.88 403.04 147.04C222.71 104.2 96.08 139.46 0.27002 162.17V112.17C0.27002 112.17 145.1 67.93 353.82 115.33C586.52 168.17 790.67 136.04 842.16 110.85Z" fill="#EF00F4" fill-opacity="0.2"/>
</g>
<g opacity="0.86">
<path d="M842.16 111.07V124.27C716.09 191.33 575.72 188.56 395.88 144.98C216.04 101.4 87.37 143.27 0.27002 163.91V112.39C0.27002 112.39 145.98 67.3299 358.5 117.33C592.73 172.44 795.35 133.98 842.16 111.07Z" fill="url(#paint21_linear_132_3)"/>
<path d="M842.16 111.07V124.27C716.09 191.33 575.72 188.56 395.88 144.98C216.04 101.4 87.37 143.27 0.27002 163.91V112.39C0.27002 112.39 145.98 67.3299 358.5 117.33C592.73 172.44 795.35 133.98 842.16 111.07Z" fill="#EF00F4" fill-opacity="0.2"/>
</g>
<g opacity="0.86">
<path d="M842.16 111.33V124.1C710.08 194.33 568.08 187.23 388.72 142.91C209.36 98.59 78.66 147.07 0.27002 165.65V112.59C0.27002 112.59 146.88 66.71 363.17 119.33C598.95 176.69 800.03 131.91 842.16 111.33Z" fill="url(#paint22_linear_132_3)"/>
<path d="M842.16 111.33V124.1C710.08 194.33 568.08 187.23 388.72 142.91C209.36 98.59 78.66 147.07 0.27002 165.65V112.59C0.27002 112.59 146.88 66.71 363.17 119.33C598.95 176.69 800.03 131.91 842.16 111.33Z" fill="#EF00F4" fill-opacity="0.2"/>
</g>
<g opacity="0.86">
<path d="M842.16 111.52V123.88C704.08 197.33 560.43 185.88 381.56 140.88C202.69 95.88 69.95 150.88 0.27002 167.39V112.78C0.27002 112.78 147.78 66.07 367.85 121.33C605.18 180.92 804.71 129.85 842.16 111.52Z" fill="url(#paint23_linear_132_3)"/>
<path d="M842.16 111.52V123.88C704.08 197.33 560.43 185.88 381.56 140.88C202.69 95.88 69.95 150.88 0.27002 167.39V112.78C0.27002 112.78 147.78 66.07 367.85 121.33C605.18 180.92 804.71 129.85 842.16 111.52Z" fill="#EF00F4" fill-opacity="0.2"/>
</g>
<g opacity="0.86">
<path d="M842.16 111.75V123.68C698.07 200.33 552.79 184.59 374.4 138.78C196.01 92.97 61.27 154.69 0.27002 169.14V112.98C0.27002 112.98 148.69 65.4099 372.53 123.33C611.41 185.14 809.39 127.78 842.16 111.75Z" fill="url(#paint24_linear_132_3)"/>
<path d="M842.16 111.75V123.68C698.07 200.33 552.79 184.59 374.4 138.78C196.01 92.97 61.27 154.69 0.27002 169.14V112.98C0.27002 112.98 148.69 65.4099 372.53 123.33C611.41 185.14 809.39 127.78 842.16 111.75Z" fill="#EF00F4" fill-opacity="0.2"/>
</g>
<g opacity="0.86">
<path d="M842.16 111.98V123.49C692.07 203.33 545.14 183.27 367.27 136.72C189.4 90.1699 52.53 158.49 0.27002 170.88V113.17C0.27002 113.17 149.6 64.7399 377.21 125.33C617.66 189.33 814.07 125.72 842.16 111.98Z" fill="url(#paint25_linear_132_3)"/>
<path d="M842.16 111.98V123.49C692.07 203.33 545.14 183.27 367.27 136.72C189.4 90.1699 52.53 158.49 0.27002 170.88V113.17C0.27002 113.17 149.6 64.7399 377.21 125.33C617.66 189.33 814.07 125.72 842.16 111.98Z" fill="#EF00F4" fill-opacity="0.2"/>
</g>
<g opacity="0.86">
<path d="M842.16 112.2V123.33C686.07 206.33 537.5 181.97 360.08 134.68C182.66 87.39 43.82 162.33 0.27002 172.62V113.33C0.27002 113.33 150.53 64.01 381.88 127.33C623.91 193.54 818.75 123.65 842.16 112.2Z" fill="url(#paint26_linear_132_3)"/>
<path d="M842.16 112.2V123.33C686.07 206.33 537.5 181.97 360.08 134.68C182.66 87.39 43.82 162.33 0.27002 172.62V113.33C0.27002 113.33 150.53 64.01 381.88 127.33C623.91 193.54 818.75 123.65 842.16 112.2Z" fill="#EF00F4" fill-opacity="0.2"/>
</g>
<g opacity="0.86">
<path d="M842.16 112.43V123.1C680.06 209.33 529.85 180.62 352.92 132.59C175.99 84.56 35.11 166.1 0.27002 174.33V113.53C0.27002 113.53 151.46 63.3299 386.56 129.33C630.16 197.72 823.44 121.59 842.16 112.43Z" fill="url(#paint27_linear_132_3)"/>
<path d="M842.16 112.43V123.1C680.06 209.33 529.85 180.62 352.92 132.59C175.99 84.56 35.11 166.1 0.27002 174.33V113.53C0.27002 113.53 151.46 63.3299 386.56 129.33C630.16 197.72 823.44 121.59 842.16 112.43Z" fill="#EF00F4" fill-opacity="0.2"/>
</g>
<g opacity="0.86">
<path d="M842.16 112.65V122.91C674.06 212.33 522.21 179.33 345.75 130.52C169.29 81.71 26.4 169.91 0.27002 176.1V113.75C0.27002 113.75 152.4 62.6 391.27 131.33C636.43 201.88 828.12 119.52 842.16 112.65Z" fill="url(#paint28_linear_132_3)"/>
<path d="M842.16 112.65V122.91C674.06 212.33 522.21 179.33 345.75 130.52C169.29 81.71 26.4 169.91 0.27002 176.1V113.75C0.27002 113.75 152.4 62.6 391.27 131.33C636.43 201.88 828.12 119.52 842.16 112.65Z" fill="#EF00F4" fill-opacity="0.2"/>
</g>
<g opacity="0.86">
<path d="M842.16 112.88V122.72C668.06 215.33 514.56 177.98 338.59 128.46C162.62 78.94 17.69 173.72 0.27002 177.85V113.94C0.27002 113.94 153.35 61.86 395.92 133.33C642.7 206.04 832.8 117.46 842.16 112.88Z" fill="url(#paint29_linear_132_3)"/>
<path d="M842.16 112.88V122.72C668.06 215.33 514.56 177.98 338.59 128.46C162.62 78.94 17.69 173.72 0.27002 177.85V113.94C0.27002 113.94 153.35 61.86 395.92 133.33C642.7 206.04 832.8 117.46 842.16 112.88Z" fill="#EF00F4" fill-opacity="0.2"/>
</g>
<g opacity="0.86">
<path d="M842.16 113.1V122.52C662.05 218.33 506.92 176.65 331.43 126.39C155.94 76.1299 8.98002 177.52 0.27002 179.59V114.14C0.27002 114.14 154.4 60.7899 400.59 135.33C649.08 209.88 837.48 115.39 842.16 113.1Z" fill="url(#paint30_linear_132_3)"/>
<path d="M842.16 113.1V122.52C662.05 218.33 506.92 176.65 331.43 126.39C155.94 76.1299 8.98002 177.52 0.27002 179.59V114.14C0.27002 114.14 154.4 60.7899 400.59 135.33C649.08 209.88 837.48 115.39 842.16 113.1Z" fill="#EF00F4" fill-opacity="0.2"/>
</g>
<g opacity="0.86">
<path d="M842.16 113.33C842.16 113.33 655.27 214.33 405.27 137.33C155.27 60.3299 0.27002 114.33 0.27002 114.33V181.33C0.27002 181.33 149.27 73.3299 324.27 124.33C499.27 175.33 656.05 221.33 842.16 122.33V113.33Z" fill="url(#paint31_linear_132_3)"/>
<path d="M842.16 113.33C842.16 113.33 655.27 214.33 405.27 137.33C155.27 60.3299 0.27002 114.33 0.27002 114.33V181.33C0.27002 181.33 149.27 73.3299 324.27 124.33C499.27 175.33 656.05 221.33 842.16 122.33V113.33Z" fill="#EF00F4" fill-opacity="0.2"/>
</g>
</g>
<g opacity="0.63">
<path d="M0.27002 50.33C0.27002 50.33 159.27 -26.67 312.27 23.33C465.27 73.33 540.8 140.33 732.27 117.33C832.27 105.33 842.16 88.33 842.16 88.33V138.33C842.16 138.33 727.16 221.09 460.27 105.33C181.27 -15.67 0.27002 73.33 0.27002 73.33V50.33Z" fill="url(#paint32_linear_132_3)"/>
<path d="M0.27002 50.33C0.27002 50.33 159.27 -26.67 312.27 23.33C465.27 73.33 540.8 140.33 732.27 117.33C832.27 105.33 842.16 88.33 842.16 88.33V138.33C842.16 138.33 727.16 221.09 460.27 105.33C181.27 -15.67 0.27002 73.33 0.27002 73.33V50.33Z" fill="#EF00F4" fill-opacity="0.2"/>
</g>
<g opacity="0.55">
<path d="M0.27002 141.33C0.27002 141.33 104.09 81.53 244.27 102.33C399.27 125.33 591.05 265.33 842.16 190.33V209.33C842.16 209.33 731.27 283.33 498.27 200.33C274.53 120.63 160.27 144.33 0.27002 201.33V141.33Z" fill="url(#paint33_linear_132_3)"/>
<path d="M0.27002 141.33C0.27002 141.33 104.09 81.53 244.27 102.33C399.27 125.33 591.05 265.33 842.16 190.33V209.33C842.16 209.33 731.27 283.33 498.27 200.33C274.53 120.63 160.27 144.33 0.27002 201.33V141.33Z" fill="#EF00F4" fill-opacity="0.2"/>
</g>
<g opacity="0.34">
<g opacity="0.34">
<path d="M0.27002 214.33C0.27002 214.33 169.27 108.33 405.27 137.33C641.27 166.33 724.05 158.33 842.16 50.33" fill="url(#paint34_linear_132_3)"/>
<path d="M0.27002 214.33C0.27002 214.33 169.27 108.33 405.27 137.33C641.27 166.33 724.05 158.33 842.16 50.33" fill="#EF00F4" fill-opacity="0.2"/>
</g>
<g opacity="0.34">
<path d="M0.27002 216.33C0.27002 216.33 172.35 110.48 406.73 142.87C641.11 175.26 727.36 164.02 842.16 61.5599" fill="url(#paint35_linear_132_3)"/>
<path d="M0.27002 216.33C0.27002 216.33 172.35 110.48 406.73 142.87C641.11 175.26 727.36 164.02 842.16 61.5599" fill="#EF00F4" fill-opacity="0.2"/>
</g>
<g opacity="0.34">
<path d="M0.27002 218.33C0.27002 218.33 175.42 112.64 408.19 148.41C640.96 184.18 730.66 169.71 842.19 72.7899" fill="url(#paint36_linear_132_3)"/>
<path d="M0.27002 218.33C0.27002 218.33 175.42 112.64 408.19 148.41C640.96 184.18 730.66 169.71 842.19 72.7899" fill="#EF00F4" fill-opacity="0.2"/>
</g>
<g opacity="0.34">
<path d="M0.27002 220.33C0.27002 220.33 178.5 114.79 409.65 153.95C640.8 193.11 733.97 175.41 842.16 84.02" fill="url(#paint37_linear_132_3)"/>
<path d="M0.27002 220.33C0.27002 220.33 178.5 114.79 409.65 153.95C640.8 193.11 733.97 175.41 842.16 84.02" fill="#EF00F4" fill-opacity="0.2"/>
</g>
<g opacity="0.34">
<path d="M0.27002 222.33C0.27002 222.33 181.58 116.95 411.12 159.48C640.66 202.01 737.28 181.1 842.12 95.25" fill="url(#paint38_linear_132_3)"/>
<path d="M0.27002 222.33C0.27002 222.33 181.58 116.95 411.12 159.48C640.66 202.01 737.28 181.1 842.12 95.25" fill="#EF00F4" fill-opacity="0.2"/>
</g>
<g opacity="0.34">
<path d="M0.27002 224.33C0.27002 224.33 184.65 119.1 412.58 165.02C640.51 210.94 740.58 186.79 842.16 106.48" fill="url(#paint39_linear_132_3)"/>
<path d="M0.27002 224.33C0.27002 224.33 184.65 119.1 412.58 165.02C640.51 210.94 740.58 186.79 842.16 106.48" fill="#EF00F4" fill-opacity="0.2"/>
</g>
<g opacity="0.34">
<path d="M0.27002 226.33C0.27002 226.33 187.73 121.25 414.04 170.56C640.35 219.87 743.89 192.48 842.16 117.71" fill="url(#paint40_linear_132_3)"/>
<path d="M0.27002 226.33C0.27002 226.33 187.73 121.25 414.04 170.56C640.35 219.87 743.89 192.48 842.16 117.71" fill="#EF00F4" fill-opacity="0.2"/>
</g>
<g opacity="0.34">
<path d="M0.27002 228.33C0.27002 228.33 190.81 123.41 415.5 176.1C640.19 228.79 747.2 198.18 842.16 128.95" fill="url(#paint41_linear_132_3)"/>
<path d="M0.27002 228.33C0.27002 228.33 190.81 123.41 415.5 176.1C640.19 228.79 747.2 198.18 842.16 128.95" fill="#EF00F4" fill-opacity="0.2"/>
</g>
<g opacity="0.34">
<path d="M0.27002 230.33C0.27002 230.33 193.89 125.56 416.96 181.64C640.03 237.72 750.51 203.87 842.16 140.18" fill="url(#paint42_linear_132_3)"/>
<path d="M0.27002 230.33C0.27002 230.33 193.89 125.56 416.96 181.64C640.03 237.72 750.51 203.87 842.16 140.18" fill="#EF00F4" fill-opacity="0.2"/>
</g>
<g opacity="0.34">
<path d="M0.27002 232.33C0.27002 232.33 196.96 127.71 418.42 187.18C639.88 246.65 753.82 209.56 842.16 151.41" fill="url(#paint43_linear_132_3)"/>
<path d="M0.27002 232.33C0.27002 232.33 196.96 127.71 418.42 187.18C639.88 246.65 753.82 209.56 842.16 151.41" fill="#EF00F4" fill-opacity="0.2"/>
</g>
<g opacity="0.34">
<path d="M0.27002 234.33C0.27002 234.33 200.04 129.87 419.89 192.71C639.74 255.55 757.13 215.25 842.16 162.64" fill="url(#paint44_linear_132_3)"/>
<path d="M0.27002 234.33C0.27002 234.33 200.04 129.87 419.89 192.71C639.74 255.55 757.13 215.25 842.16 162.64" fill="#EF00F4" fill-opacity="0.2"/>
</g>
<g opacity="0.34">
<path d="M0.27002 236.33C0.27002 236.33 203.12 132.02 421.35 198.25C639.58 264.48 760.43 220.95 842.16 173.87" fill="url(#paint45_linear_132_3)"/>
<path d="M0.27002 236.33C0.27002 236.33 203.12 132.02 421.35 198.25C639.58 264.48 760.43 220.95 842.16 173.87" fill="#EF00F4" fill-opacity="0.2"/>
</g>
<g opacity="0.34">
<path d="M0.27002 238.33C0.27002 238.33 206.19 134.18 422.81 203.79C639.43 273.4 763.74 226.64 842.16 185.1" fill="url(#paint46_linear_132_3)"/>
<path d="M0.27002 238.33C0.27002 238.33 206.19 134.18 422.81 203.79C639.43 273.4 763.74 226.64 842.16 185.1" fill="#EF00F4" fill-opacity="0.2"/>
</g>
<g opacity="0.34">
<path d="M0.27002 240.33C0.27002 240.33 209.27 136.33 424.27 209.33C639.27 282.33 767.05 232.33 842.16 196.33" fill="url(#paint47_linear_132_3)"/>
<path d="M0.27002 240.33C0.27002 240.33 209.27 136.33 424.27 209.33C639.27 282.33 767.05 232.33 842.16 196.33" fill="#EF00F4" fill-opacity="0.2"/>
</g>
</g>
<g opacity="0.37">
<path d="M0.27002 227.33C0.27002 227.33 55.27 197.88 194.27 170.33C416.27 126.33 572.27 318.33 842.16 139.33V169.33C842.16 169.33 709.27 262.33 530.27 224.33C297.94 175.01 268.27 122.33 0.27002 287.33V227.33Z" fill="url(#paint48_linear_132_3)"/>
<path d="M0.27002 227.33C0.27002 227.33 55.27 197.88 194.27 170.33C416.27 126.33 572.27 318.33 842.16 139.33V169.33C842.16 169.33 709.27 262.33 530.27 224.33C297.94 175.01 268.27 122.33 0.27002 287.33V227.33Z" fill="#EF00F4" fill-opacity="0.2"/>
</g>
<g style="mix-blend-mode:soft-light" opacity="0.28">
<g style="mix-blend-mode:soft-light" opacity="0.28">
<path d="M148.27 84.66C171.648 84.66 190.6 65.7082 190.6 42.33C190.6 18.9518 171.648 0 148.27 0C124.892 0 105.94 18.9518 105.94 42.33C105.94 65.7082 124.892 84.66 148.27 84.66Z" fill="url(#paint49_linear_132_3)"/>
<path d="M148.27 84.66C171.648 84.66 190.6 65.7082 190.6 42.33C190.6 18.9518 171.648 0 148.27 0C124.892 0 105.94 18.9518 105.94 42.33C105.94 65.7082 124.892 84.66 148.27 84.66Z" fill="#EF00F4" fill-opacity="0.2"/>
</g>
</g>
<g opacity="0.96">
<g opacity="0.2">
<path d="M0.27002 73C0.27002 73 140.27 -9.99998 371.27 67C602.27 144 646.05 163 842.16 143" fill="url(#paint50_linear_132_3)"/>
<path d="M0.27002 73C0.27002 73 140.27 -9.99998 371.27 67C602.27 144 646.05 163 842.16 143" fill="#EF00F4" fill-opacity="0.2"/>
</g>
<g opacity="0.2">
<path d="M0.27002 75.69C0.27002 75.69 92.27 22.08 249.66 40.92C291.072 45.8695 331.888 54.9378 371.5 67.99C467.58 99.33 531.01 121.9 590.39 136.33C671.78 156.12 737.99 156.5 842.16 145.87" fill="url(#paint51_linear_132_3)"/>
<path d="M0.27002 75.69C0.27002 75.69 92.27 22.08 249.66 40.92C291.072 45.8695 331.888 54.9378 371.5 67.99C467.58 99.33 531.01 121.9 590.39 136.33C671.78 156.12 737.99 156.5 842.16 145.87" fill="#EF00F4" fill-opacity="0.2"/>
</g>
<g opacity="0.2">
<path d="M0.27002 78.3801C0.27002 78.3801 92.51 25.96 249.71 43.09C291.14 47.6168 332.012 56.2903 371.71 68.98C465.79 98.98 528.31 121.88 590.52 137.44C676.62 159.08 746.64 158.44 842.13 148.69" fill="url(#paint52_linear_132_3)"/>
<path d="M0.27002 78.3801C0.27002 78.3801 92.51 25.96 249.71 43.09C291.14 47.6168 332.012 56.2903 371.71 68.98C465.79 98.98 528.31 121.88 590.52 137.44C676.62 159.08 746.64 158.44 842.13 148.69" fill="#EF00F4" fill-opacity="0.2"/>
</g>
<g opacity="0.2">
<path d="M0.27002 81.07C0.27002 81.07 92.74 29.58 249.76 45.26C291.231 49.346 332.181 57.6284 371.98 69.98C464.06 98.62 525.68 121.85 590.7 138.58C681.52 162.08 755.35 160.39 842.16 151.58" fill="url(#paint53_linear_132_3)"/>
<path d="M0.27002 81.07C0.27002 81.07 92.74 29.58 249.76 45.26C291.231 49.346 332.181 57.6284 371.98 69.98C464.06 98.62 525.68 121.85 590.7 138.58C681.52 162.08 755.35 160.39 842.16 151.58" fill="#EF00F4" fill-opacity="0.2"/>
</g>
<g opacity="0.2">
<path d="M0.27002 83.77C0.27002 83.77 92.99 33.17 249.81 47.44C291.305 51.0904 332.319 58.9748 372.21 70.97C462.27 98.27 523.02 121.83 590.86 139.73C686.4 165.07 764.03 162.35 842.16 154.38" fill="url(#paint54_linear_132_3)"/>
<path d="M0.27002 83.77C0.27002 83.77 92.99 33.17 249.81 47.44C291.305 51.0904 332.319 58.9748 372.21 70.97C462.27 98.27 523.02 121.83 590.86 139.73C686.4 165.07 764.03 162.35 842.16 154.38" fill="#EF00F4" fill-opacity="0.2"/>
</g>
<g opacity="0.2">
<path d="M0.27002 86.4601C0.27002 86.4601 93.27 36.7101 249.87 49.6101C291.386 52.852 332.461 60.3412 372.45 71.9601C460.53 97.9601 520.35 121.81 591.02 140.87C691.27 168.06 772.71 164.33 842.16 157.23" fill="url(#paint55_linear_132_3)"/>
<path d="M0.27002 86.4601C0.27002 86.4601 93.27 36.7101 249.87 49.6101C291.386 52.852 332.461 60.3412 372.45 71.9601C460.53 97.9601 520.35 121.81 591.02 140.87C691.27 168.06 772.71 164.33 842.16 157.23" fill="#EF00F4" fill-opacity="0.2"/>
</g>
<g opacity="0.2">
<path d="M0.27002 89.15C0.27002 89.15 93.49 40.22 249.92 51.78C293.05 54.97 333.03 61.71 372.68 72.96C458.77 97.56 517.68 121.79 591.17 142.01C696.17 171.01 781.39 166.27 842.17 160.07" fill="url(#paint56_linear_132_3)"/>
<path d="M0.27002 89.15C0.27002 89.15 93.49 40.22 249.92 51.78C293.05 54.97 333.03 61.71 372.68 72.96C458.77 97.56 517.68 121.79 591.17 142.01C696.17 171.01 781.39 166.27 842.17 160.07" fill="#EF00F4" fill-opacity="0.2"/>
</g>
<g opacity="0.2">
<path d="M0.27002 91.84C0.27002 91.84 93.74 43.7 249.97 53.96C294.13 56.86 333.97 63.27 372.97 73.96C457.06 97.22 515.08 121.77 591.38 143.16C701.07 174.05 790.12 168.24 842.21 162.93" fill="url(#paint57_linear_132_3)"/>
<path d="M0.27002 91.84C0.27002 91.84 93.74 43.7 249.97 53.96C294.13 56.86 333.97 63.27 372.97 73.96C457.06 97.22 515.08 121.77 591.38 143.16C701.07 174.05 790.12 168.24 842.21 162.93" fill="#EF00F4" fill-opacity="0.2"/>
</g>
<g opacity="0.2">
<path d="M0.27002 94.5401C0.27002 94.5401 94 47.1501 250.02 56.1301C295.2 58.7301 334.93 64.8301 373.15 74.9401C455.27 96.8501 512.36 121.74 591.49 144.33C705.9 177.08 798.76 170.23 842.16 165.81" fill="url(#paint58_linear_132_3)"/>
<path d="M0.27002 94.5401C0.27002 94.5401 94 47.1501 250.02 56.1301C295.2 58.7301 334.93 64.8301 373.15 74.9401C455.27 96.8501 512.36 121.74 591.49 144.33C705.9 177.08 798.76 170.23 842.16 165.81" fill="#EF00F4" fill-opacity="0.2"/>
</g>
<g opacity="0.2">
<path d="M0.27002 97.23C0.27002 97.23 94.27 50.57 250.07 58.33C296.27 60.63 335.88 66.42 373.39 75.97C453.48 96.53 509.7 121.75 591.64 145.46C710.77 180.06 807.44 172.18 842.16 168.64" fill="url(#paint59_linear_132_3)"/>
<path d="M0.27002 97.23C0.27002 97.23 94.27 50.57 250.07 58.33C296.27 60.63 335.88 66.42 373.39 75.97C453.48 96.53 509.7 121.75 591.64 145.46C710.77 180.06 807.44 172.18 842.16 168.64" fill="#EF00F4" fill-opacity="0.2"/>
</g>
<g opacity="0.2">
<path d="M0.27002 99.92C0.27002 99.92 94.51 53.92 250.12 60.48C297.34 62.48 336.84 67.95 373.62 76.93C451.72 96.14 507.04 121.69 591.8 146.57C715.65 183.02 816.12 174.11 842.16 171.46" fill="url(#paint60_linear_132_3)"/>
<path d="M0.27002 99.92C0.27002 99.92 94.51 53.92 250.12 60.48C297.34 62.48 336.84 67.95 373.62 76.93C451.72 96.14 507.04 121.69 591.8 146.57C715.65 183.02 816.12 174.11 842.16 171.46" fill="#EF00F4" fill-opacity="0.2"/>
</g>
<g opacity="0.2">
<path d="M0.27002 102.61C0.27002 102.61 94.76 57.33 250.17 62.61C298.42 64.26 337.79 69.47 373.86 77.89C449.96 95.75 504.37 121.63 591.96 147.67C720.52 185.97 824.8 176.03 842.16 174.26" fill="url(#paint61_linear_132_3)"/>
<path d="M0.27002 102.61C0.27002 102.61 94.76 57.33 250.17 62.61C298.42 64.26 337.79 69.47 373.86 77.89C449.96 95.75 504.37 121.63 591.96 147.67C720.52 185.97 824.8 176.03 842.16 174.26" fill="#EF00F4" fill-opacity="0.2"/>
</g>
<g opacity="0.2">
<path d="M0.27002 105.33C0.27002 105.33 95.02 60.53 250.27 64.85C299.54 66.12 338.79 71.1 374.14 78.95C448.25 95.46 501.76 121.68 592.14 148.89C725.42 189.03 833.51 178.07 842.14 177.18" fill="url(#paint62_linear_132_3)"/>
<path d="M0.27002 105.33C0.27002 105.33 95.02 60.53 250.27 64.85C299.54 66.12 338.79 71.1 374.14 78.95C448.25 95.46 501.76 121.68 592.14 148.89C725.42 189.03 833.51 178.07 842.14 177.18" fill="#EF00F4" fill-opacity="0.2"/>
</g>
<g opacity="0.2">
<path d="M0.27002 108C0.27002 108 95.27 64 250.27 67C405.27 70 454.27 108 592.27 150C730.27 192 842.16 180 842.16 180" fill="url(#paint63_linear_132_3)"/>
<path d="M0.27002 108C0.27002 108 95.27 64 250.27 67C405.27 70 454.27 108 592.27 150C730.27 192 842.16 180 842.16 180" fill="#EF00F4" fill-opacity="0.2"/>
</g>
</g>
<g opacity="0.96">
<g opacity="0.2">
<path d="M0.27002 42.9999C0.27002 42.9999 140.27 -40.0001 371.27 36.9999C602.27 114 646.05 133 842.16 113" fill="url(#paint64_linear_132_3)"/>
<path d="M0.27002 42.9999C0.27002 42.9999 140.27 -40.0001 371.27 36.9999C602.27 114 646.05 133 842.16 113" fill="#EF00F4" fill-opacity="0.2"/>
</g>
<g opacity="0.2">
<path d="M0.27002 45.6899C0.27002 45.6899 92.27 -7.92014 249.66 10.9199C291.072 15.8694 331.888 24.9376 371.5 37.9899C467.58 69.3299 531.01 91.8999 590.39 106.33C671.78 126.12 737.99 126.5 842.16 115.87" fill="url(#paint65_linear_132_3)"/>
<path d="M0.27002 45.6899C0.27002 45.6899 92.27 -7.92014 249.66 10.9199C291.072 15.8694 331.888 24.9376 371.5 37.9899C467.58 69.3299 531.01 91.8999 590.39 106.33C671.78 126.12 737.99 126.5 842.16 115.87" fill="#EF00F4" fill-opacity="0.2"/>
</g>
<g opacity="0.2">
<path d="M0.27002 48.3799C0.27002 48.3799 92.51 -4.04008 249.71 13.0899C291.14 17.6167 332.012 26.2901 371.71 38.9799C465.79 68.9799 528.31 91.8799 590.52 107.44C676.62 129.08 746.64 128.44 842.13 118.69" fill="url(#paint66_linear_132_3)"/>
<path d="M0.27002 48.3799C0.27002 48.3799 92.51 -4.04008 249.71 13.0899C291.14 17.6167 332.012 26.2901 371.71 38.9799C465.79 68.9799 528.31 91.8799 590.52 107.44C676.62 129.08 746.64 128.44 842.13 118.69" fill="#EF00F4" fill-opacity="0.2"/>
</g>
<g opacity="0.2">
<path d="M0.27002 51.07C0.27002 51.07 92.74 -0.420038 249.76 15.27C291.232 19.3476 332.182 27.6267 371.98 39.98C464.06 68.62 525.68 91.86 590.7 108.58C681.52 132.08 755.35 130.39 842.16 121.58" fill="url(#paint67_linear_132_3)"/>
<path d="M0.27002 51.07C0.27002 51.07 92.74 -0.420038 249.76 15.27C291.232 19.3476 332.182 27.6267 371.98 39.98C464.06 68.62 525.68 91.86 590.7 108.58C681.52 132.08 755.35 130.39 842.16 121.58" fill="#EF00F4" fill-opacity="0.2"/>
</g>
<g opacity="0.2">
<path d="M0.27002 53.7699C0.27002 53.7699 92.99 3.16987 249.81 17.4399C291.305 21.0903 332.319 28.9747 372.21 40.9699C462.27 68.2699 523.02 91.8299 590.86 109.73C686.4 135.07 764.03 132.35 842.16 124.38" fill="url(#paint68_linear_132_3)"/>
<path d="M0.27002 53.7699C0.27002 53.7699 92.99 3.16987 249.81 17.4399C291.305 21.0903 332.319 28.9747 372.21 40.9699C462.27 68.2699 523.02 91.8299 590.86 109.73C686.4 135.07 764.03 132.35 842.16 124.38" fill="#EF00F4" fill-opacity="0.2"/>
</g>
<g opacity="0.2">
<path d="M0.27002 56.4599C0.27002 56.4599 93.27 6.70994 249.87 19.6099C291.386 22.8519 332.461 30.341 372.45 41.9599C460.53 67.9599 520.35 91.8099 591.02 110.87C691.27 138.06 772.71 134.33 842.16 127.23" fill="url(#paint69_linear_132_3)"/>
<path d="M0.27002 56.4599C0.27002 56.4599 93.27 6.70994 249.87 19.6099C291.386 22.8519 332.461 30.341 372.45 41.9599C460.53 67.9599 520.35 91.8099 591.02 110.87C691.27 138.06 772.71 134.33 842.16 127.23" fill="#EF00F4" fill-opacity="0.2"/>
</g>
<g opacity="0.2">
<path d="M0.27002 59.1499C0.27002 59.1499 93.49 10.2199 249.92 21.7899C293.05 24.9699 333.03 31.7099 372.68 42.9599C458.77 67.5599 517.68 91.7899 591.17 112.01C696.17 141.01 781.39 136.27 842.17 130.07" fill="url(#paint70_linear_132_3)"/>
<path d="M0.27002 59.1499C0.27002 59.1499 93.49 10.2199 249.92 21.7899C293.05 24.9699 333.03 31.7099 372.68 42.9599C458.77 67.5599 517.68 91.7899 591.17 112.01C696.17 141.01 781.39 136.27 842.17 130.07" fill="#EF00F4" fill-opacity="0.2"/>
</g>
<g opacity="0.2">
<path d="M0.27002 61.8399C0.27002 61.8399 93.74 13.6999 249.97 23.9599C294.13 26.8599 333.97 33.2699 372.97 43.9599C457.06 67.2199 515.08 91.7699 591.38 113.16C701.07 144.05 790.12 138.24 842.21 132.93" fill="url(#paint71_linear_132_3)"/>
<path d="M0.27002 61.8399C0.27002 61.8399 93.74 13.6999 249.97 23.9599C294.13 26.8599 333.97 33.2699 372.97 43.9599C457.06 67.2199 515.08 91.7699 591.38 113.16C701.07 144.05 790.12 138.24 842.21 132.93" fill="#EF00F4" fill-opacity="0.2"/>
</g>
<g opacity="0.2">
<path d="M0.27002 64.5399C0.27002 64.5399 94 17.1499 250.02 26.1299C295.2 28.7299 334.93 34.8299 373.15 44.9499C455.27 66.8499 512.36 91.7399 591.49 114.33C705.9 147.08 798.76 140.23 842.16 135.81" fill="url(#paint72_linear_132_3)"/>
<path d="M0.27002 64.5399C0.27002 64.5399 94 17.1499 250.02 26.1299C295.2 28.7299 334.93 34.8299 373.15 44.9499C455.27 66.8499 512.36 91.7399 591.49 114.33C705.9 147.08 798.76 140.23 842.16 135.81" fill="#EF00F4" fill-opacity="0.2"/>
</g>
<g opacity="0.2">
<path d="M0.27002 67.2298C0.27002 67.2298 94.27 20.5699 250.07 28.3299C296.27 30.6299 335.88 36.4199 373.39 45.9699C453.48 66.5299 509.7 91.7499 591.64 115.46C710.77 150.06 807.44 142.18 842.16 138.64" fill="url(#paint73_linear_132_3)"/>
<path d="M0.27002 67.2298C0.27002 67.2298 94.27 20.5699 250.07 28.3299C296.27 30.6299 335.88 36.4199 373.39 45.9699C453.48 66.5299 509.7 91.7499 591.64 115.46C710.77 150.06 807.44 142.18 842.16 138.64" fill="#EF00F4" fill-opacity="0.2"/>
</g>
<g opacity="0.2">
<path d="M0.27002 69.9199C0.27002 69.9199 94.51 23.9199 250.12 30.4799C297.34 32.4799 336.84 37.9499 373.62 46.9299C451.72 66.1399 507.04 91.6899 591.8 116.57C715.65 153.02 816.12 144.11 842.16 141.46" fill="url(#paint74_linear_132_3)"/>
<path d="M0.27002 69.9199C0.27002 69.9199 94.51 23.9199 250.12 30.4799C297.34 32.4799 336.84 37.9499 373.62 46.9299C451.72 66.1399 507.04 91.6899 591.8 116.57C715.65 153.02 816.12 144.11 842.16 141.46" fill="#EF00F4" fill-opacity="0.2"/>
</g>
<g opacity="0.2">
<path d="M0.27002 72.61C0.27002 72.61 94.76 27.33 250.17 32.61C298.42 34.26 337.79 39.47 373.86 47.89C449.96 65.75 504.37 91.63 591.96 117.67C720.52 155.97 824.8 146.03 842.16 144.26" fill="url(#paint75_linear_132_3)"/>
<path d="M0.27002 72.61C0.27002 72.61 94.76 27.33 250.17 32.61C298.42 34.26 337.79 39.47 373.86 47.89C449.96 65.75 504.37 91.63 591.96 117.67C720.52 155.97 824.8 146.03 842.16 144.26" fill="#EF00F4" fill-opacity="0.2"/>
</g>
<g opacity="0.2">
<path d="M0.27002 75.3299C0.27002 75.3299 95.02 30.5299 250.27 34.8499C299.54 36.1199 338.79 41.0999 374.14 48.9499C448.25 65.4599 501.76 91.6799 592.14 118.89C725.42 159.03 833.51 148.07 842.14 147.18" fill="url(#paint76_linear_132_3)"/>
<path d="M0.27002 75.3299C0.27002 75.3299 95.02 30.5299 250.27 34.8499C299.54 36.1199 338.79 41.0999 374.14 48.9499C448.25 65.4599 501.76 91.6799 592.14 118.89C725.42 159.03 833.51 148.07 842.14 147.18" fill="#EF00F4" fill-opacity="0.2"/>
</g>
<g opacity="0.2">
<path d="M0.27002 77.9999C0.27002 77.9999 95.27 33.9999 250.27 36.9999C405.27 39.9999 454.27 77.9999 592.27 120C730.27 162 842.16 150 842.16 150" fill="url(#paint77_linear_132_3)"/>
<path d="M0.27002 77.9999C0.27002 77.9999 95.27 33.9999 250.27 36.9999C405.27 39.9999 454.27 77.9999 592.27 120C730.27 162 842.16 150 842.16 150" fill="#EF00F4" fill-opacity="0.2"/>
</g>
</g>
<defs>
<linearGradient id="paint0_linear_132_3" x1="57.3473" y1="111.476" x2="575.913" y2="-239.367" gradientUnits="userSpaceOnUse">
<stop stop-color="#E900B5" stop-opacity="0.93"/>
<stop offset="0.354167" stop-color="#F55672" stop-opacity="0.78"/>
<stop offset="0.755208" stop-color="#F5EC07"/>
</linearGradient>
<linearGradient id="paint1_linear_132_3" x1="57.3473" y1="112.29" x2="566.281" y2="-242.262" gradientUnits="userSpaceOnUse">
<stop stop-color="#E900B5" stop-opacity="0.93"/>
<stop offset="0.354167" stop-color="#F55672" stop-opacity="0.78"/>
<stop offset="0.755208" stop-color="#F5EC07"/>
</linearGradient>
<linearGradient id="paint2_linear_132_3" x1="57.3473" y1="113" x2="556.749" y2="-244.929" gradientUnits="userSpaceOnUse">
<stop stop-color="#E900B5" stop-opacity="0.93"/>
<stop offset="0.354167" stop-color="#F55672" stop-opacity="0.78"/>
<stop offset="0.755208" stop-color="#F5EC07"/>
</linearGradient>
<linearGradient id="paint3_linear_132_3" x1="57.3473" y1="113.625" x2="547.403" y2="-247.34" gradientUnits="userSpaceOnUse">
<stop stop-color="#E900B5" stop-opacity="0.93"/>
<stop offset="0.354167" stop-color="#F55672" stop-opacity="0.78"/>
<stop offset="0.755208" stop-color="#F5EC07"/>
</linearGradient>
<linearGradient id="paint4_linear_132_3" x1="57.3473" y1="114.171" x2="538.226" y2="-249.516" gradientUnits="userSpaceOnUse">
<stop stop-color="#E900B5" stop-opacity="0.93"/>
<stop offset="0.354167" stop-color="#F55672" stop-opacity="0.78"/>
<stop offset="0.755208" stop-color="#F5EC07"/>
</linearGradient>
<linearGradient id="paint5_linear_132_3" x1="57.3473" y1="114.647" x2="529.178" y2="-251.479" gradientUnits="userSpaceOnUse">
<stop stop-color="#E900B5" stop-opacity="0.93"/>
<stop offset="0.354167" stop-color="#F55672" stop-opacity="0.78"/>
<stop offset="0.755208" stop-color="#F5EC07"/>
</linearGradient>
<linearGradient id="paint6_linear_132_3" x1="57.3473" y1="115.067" x2="520.611" y2="-253.149" gradientUnits="userSpaceOnUse">
<stop stop-color="#E900B5" stop-opacity="0.93"/>
<stop offset="0.354167" stop-color="#F55672" stop-opacity="0.78"/>
<stop offset="0.755208" stop-color="#F5EC07"/>
</linearGradient>
<linearGradient id="paint7_linear_132_3" x1="57.3473" y1="115.438" x2="512.257" y2="-254.615" gradientUnits="userSpaceOnUse">
<stop stop-color="#E900B5" stop-opacity="0.93"/>
<stop offset="0.354167" stop-color="#F55672" stop-opacity="0.78"/>
<stop offset="0.755208" stop-color="#F5EC07"/>
</linearGradient>
<linearGradient id="paint8_linear_132_3" x1="57.3473" y1="115.762" x2="504.242" y2="-255.867" gradientUnits="userSpaceOnUse">
<stop stop-color="#E900B5" stop-opacity="0.93"/>
<stop offset="0.354167" stop-color="#F55672" stop-opacity="0.78"/>
<stop offset="0.755208" stop-color="#F5EC07"/>
</linearGradient>
<linearGradient id="paint9_linear_132_3" x1="57.3473" y1="116.063" x2="496.438" y2="-256.93" gradientUnits="userSpaceOnUse">
<stop stop-color="#E900B5" stop-opacity="0.93"/>
<stop offset="0.354167" stop-color="#F55672" stop-opacity="0.78"/>
<stop offset="0.755208" stop-color="#F5EC07"/>
</linearGradient>
<linearGradient id="paint10_linear_132_3" x1="57.3473" y1="116.332" x2="489.393" y2="-257.747" gradientUnits="userSpaceOnUse">
<stop stop-color="#E900B5" stop-opacity="0.93"/>
<stop offset="0.354167" stop-color="#F55672" stop-opacity="0.78"/>
<stop offset="0.755208" stop-color="#F5EC07"/>
</linearGradient>
<linearGradient id="paint11_linear_132_3" x1="57.3473" y1="116.582" x2="482.65" y2="-258.41" gradientUnits="userSpaceOnUse">
<stop stop-color="#E900B5" stop-opacity="0.93"/>
<stop offset="0.354167" stop-color="#F55672" stop-opacity="0.78"/>
<stop offset="0.755208" stop-color="#F5EC07"/>
</linearGradient>
<linearGradient id="paint12_linear_132_3" x1="57.3473" y1="116.828" x2="476.569" y2="-258.881" gradientUnits="userSpaceOnUse">
<stop stop-color="#E900B5" stop-opacity="0.93"/>
<stop offset="0.354167" stop-color="#F55672" stop-opacity="0.78"/>
<stop offset="0.755208" stop-color="#F5EC07"/>
</linearGradient>
<linearGradient id="paint13_linear_132_3" x1="57.3473" y1="117.046" x2="470.768" y2="-259.255" gradientUnits="userSpaceOnUse">
<stop stop-color="#E900B5" stop-opacity="0.93"/>
<stop offset="0.354167" stop-color="#F55672" stop-opacity="0.78"/>
<stop offset="0.755208" stop-color="#F5EC07"/>
</linearGradient>
<linearGradient id="paint14_linear_132_3" x1="57.3473" y1="117.255" x2="465.759" y2="-259.484" gradientUnits="userSpaceOnUse">
<stop stop-color="#E900B5" stop-opacity="0.93"/>
<stop offset="0.354167" stop-color="#F55672" stop-opacity="0.78"/>
<stop offset="0.755208" stop-color="#F5EC07"/>
</linearGradient>
<linearGradient id="paint15_linear_132_3" x1="57.3473" y1="117.494" x2="461.178" y2="-259.587" gradientUnits="userSpaceOnUse">
<stop stop-color="#E900B5" stop-opacity="0.93"/>
<stop offset="0.354167" stop-color="#F55672" stop-opacity="0.78"/>
<stop offset="0.755208" stop-color="#F5EC07"/>
</linearGradient>
<linearGradient id="paint16_linear_132_3" x1="57.3473" y1="117.727" x2="457.328" y2="-259.599" gradientUnits="userSpaceOnUse">
<stop stop-color="#E900B5" stop-opacity="0.93"/>
<stop offset="0.354167" stop-color="#F55672" stop-opacity="0.78"/>
<stop offset="0.755208" stop-color="#F5EC07"/>
</linearGradient>
<linearGradient id="paint17_linear_132_3" x1="57.3473" y1="117.96" x2="454.018" y2="-259.545" gradientUnits="userSpaceOnUse">
<stop stop-color="#E900B5" stop-opacity="0.93"/>
<stop offset="0.354167" stop-color="#F55672" stop-opacity="0.78"/>
<stop offset="0.755208" stop-color="#F5EC07"/>
</linearGradient>
<linearGradient id="paint18_linear_132_3" x1="57.3473" y1="118.195" x2="451.368" y2="-259.431" gradientUnits="userSpaceOnUse">
<stop stop-color="#E900B5" stop-opacity="0.93"/>
<stop offset="0.354167" stop-color="#F55672" stop-opacity="0.78"/>
<stop offset="0.755208" stop-color="#F5EC07"/>
</linearGradient>
<linearGradient id="paint19_linear_132_3" x1="57.3473" y1="118.446" x2="449.238" y2="-259.264" gradientUnits="userSpaceOnUse">
<stop stop-color="#E900B5" stop-opacity="0.93"/>
<stop offset="0.354167" stop-color="#F55672" stop-opacity="0.78"/>
<stop offset="0.755208" stop-color="#F5EC07"/>
</linearGradient>
<linearGradient id="paint20_linear_132_3" x1="57.3473" y1="118.694" x2="447.78" y2="-259.068" gradientUnits="userSpaceOnUse">
<stop stop-color="#E900B5" stop-opacity="0.93"/>
<stop offset="0.354167" stop-color="#F55672" stop-opacity="0.78"/>
<stop offset="0.755208" stop-color="#F5EC07"/>
</linearGradient>
<linearGradient id="paint21_linear_132_3" x1="57.3473" y1="118.962" x2="446.729" y2="-258.832" gradientUnits="userSpaceOnUse">
<stop stop-color="#E900B5" stop-opacity="0.93"/>
<stop offset="0.354167" stop-color="#F55672" stop-opacity="0.78"/>
<stop offset="0.755208" stop-color="#F5EC07"/>
</linearGradient>
<linearGradient id="paint22_linear_132_3" x1="57.3473" y1="119.233" x2="446.165" y2="-258.579" gradientUnits="userSpaceOnUse">
<stop stop-color="#E900B5" stop-opacity="0.93"/>
<stop offset="0.354167" stop-color="#F55672" stop-opacity="0.78"/>
<stop offset="0.755208" stop-color="#F5EC07"/>
</linearGradient>
<linearGradient id="paint23_linear_132_3" x1="57.3473" y1="119.504" x2="446.02" y2="-258.312" gradientUnits="userSpaceOnUse">
<stop stop-color="#E900B5" stop-opacity="0.93"/>
<stop offset="0.354167" stop-color="#F55672" stop-opacity="0.78"/>
<stop offset="0.755208" stop-color="#F5EC07"/>
</linearGradient>
<linearGradient id="paint24_linear_132_3" x1="57.3473" y1="119.786" x2="446.332" y2="-258.021" gradientUnits="userSpaceOnUse">
<stop stop-color="#E900B5" stop-opacity="0.93"/>
<stop offset="0.354167" stop-color="#F55672" stop-opacity="0.78"/>
<stop offset="0.755208" stop-color="#F5EC07"/>
</linearGradient>
<linearGradient id="paint25_linear_132_3" x1="57.3473" y1="120.07" x2="446.979" y2="-257.717" gradientUnits="userSpaceOnUse">
<stop stop-color="#E900B5" stop-opacity="0.93"/>
<stop offset="0.354167" stop-color="#F55672" stop-opacity="0.78"/>
<stop offset="0.755208" stop-color="#F5EC07"/>
</linearGradient>
<linearGradient id="paint26_linear_132_3" x1="57.3473" y1="120.342" x2="448.14" y2="-257.407" gradientUnits="userSpaceOnUse">
<stop stop-color="#E900B5" stop-opacity="0.93"/>
<stop offset="0.354167" stop-color="#F55672" stop-opacity="0.78"/>
<stop offset="0.755208" stop-color="#F5EC07"/>
</linearGradient>
<linearGradient id="paint27_linear_132_3" x1="57.3473" y1="120.635" x2="449.244" y2="-257.075" gradientUnits="userSpaceOnUse">
<stop stop-color="#E900B5" stop-opacity="0.93"/>
<stop offset="0.354167" stop-color="#F55672" stop-opacity="0.78"/>
<stop offset="0.755208" stop-color="#F5EC07"/>
</linearGradient>
<linearGradient id="paint28_linear_132_3" x1="57.3473" y1="120.933" x2="450.771" y2="-256.718" gradientUnits="userSpaceOnUse">
<stop stop-color="#E900B5" stop-opacity="0.93"/>
<stop offset="0.354167" stop-color="#F55672" stop-opacity="0.78"/>
<stop offset="0.755208" stop-color="#F5EC07"/>
</linearGradient>
<linearGradient id="paint29_linear_132_3" x1="57.3473" y1="121.221" x2="452.474" y2="-256.357" gradientUnits="userSpaceOnUse">
<stop stop-color="#E900B5" stop-opacity="0.93"/>
<stop offset="0.354167" stop-color="#F55672" stop-opacity="0.78"/>
<stop offset="0.755208" stop-color="#F5EC07"/>
</linearGradient>
<linearGradient id="paint30_linear_132_3" x1="57.3473" y1="121.419" x2="454.985" y2="-256.036" gradientUnits="userSpaceOnUse">
<stop stop-color="#E900B5" stop-opacity="0.93"/>
<stop offset="0.354167" stop-color="#F55672" stop-opacity="0.78"/>
<stop offset="0.755208" stop-color="#F5EC07"/>
</linearGradient>
<linearGradient id="paint31_linear_132_3" x1="57.3473" y1="121.982" x2="459.137" y2="-255.234" gradientUnits="userSpaceOnUse">
<stop stop-color="#E900B5" stop-opacity="0.93"/>
<stop offset="0.354167" stop-color="#F55672" stop-opacity="0.78"/>
<stop offset="0.755208" stop-color="#F5EC07"/>
</linearGradient>
<linearGradient id="paint32_linear_132_3" x1="57.3473" y1="55.4273" x2="662.363" y2="-246.745" gradientUnits="userSpaceOnUse">
<stop stop-color="#E900B5" stop-opacity="0.93"/>
<stop offset="0.354167" stop-color="#F55672" stop-opacity="0.78"/>
<stop offset="0.755208" stop-color="#F5EC07"/>
</linearGradient>
<linearGradient id="paint33_linear_132_3" x1="57.3473" y1="141.188" x2="630.084" y2="-182.732" gradientUnits="userSpaceOnUse">
<stop stop-color="#E900B5" stop-opacity="0.93"/>
<stop offset="0.354167" stop-color="#F55672" stop-opacity="0.78"/>
<stop offset="0.755208" stop-color="#F5EC07"/>
</linearGradient>
<linearGradient id="paint34_linear_132_3" x1="57.3473" y1="100.364" x2="667.451" y2="-197.918" gradientUnits="userSpaceOnUse">
<stop stop-color="#E900B5" stop-opacity="0.93"/>
<stop offset="0.354167" stop-color="#F55672" stop-opacity="0.78"/>
<stop offset="0.755208" stop-color="#F5EC07"/>
</linearGradient>
<linearGradient id="paint35_linear_132_3" x1="57.3473" y1="108.778" x2="653.329" y2="-199.976" gradientUnits="userSpaceOnUse">
<stop stop-color="#E900B5" stop-opacity="0.93"/>
<stop offset="0.354167" stop-color="#F55672" stop-opacity="0.78"/>
<stop offset="0.755208" stop-color="#F5EC07"/>
</linearGradient>
<linearGradient id="paint36_linear_132_3" x1="57.3493" y1="117.192" x2="637.284" y2="-202.314" gradientUnits="userSpaceOnUse">
<stop stop-color="#E900B5" stop-opacity="0.93"/>
<stop offset="0.354167" stop-color="#F55672" stop-opacity="0.78"/>
<stop offset="0.755208" stop-color="#F5EC07"/>
</linearGradient>
<linearGradient id="paint37_linear_132_3" x1="57.3473" y1="125.606" x2="618.962" y2="-204.746" gradientUnits="userSpaceOnUse">
<stop stop-color="#E900B5" stop-opacity="0.93"/>
<stop offset="0.354167" stop-color="#F55672" stop-opacity="0.78"/>
<stop offset="0.755208" stop-color="#F5EC07"/>
</linearGradient>
<linearGradient id="paint38_linear_132_3" x1="57.3446" y1="134.02" x2="598.025" y2="-207.102" gradientUnits="userSpaceOnUse">
<stop stop-color="#E900B5" stop-opacity="0.93"/>
<stop offset="0.354167" stop-color="#F55672" stop-opacity="0.78"/>
<stop offset="0.755208" stop-color="#F5EC07"/>
</linearGradient>
<linearGradient id="paint39_linear_132_3" x1="57.3473" y1="142.434" x2="574.089" y2="-209.135" gradientUnits="userSpaceOnUse">
<stop stop-color="#E900B5" stop-opacity="0.93"/>
<stop offset="0.354167" stop-color="#F55672" stop-opacity="0.78"/>
<stop offset="0.755208" stop-color="#F5EC07"/>
</linearGradient>
<linearGradient id="paint40_linear_132_3" x1="57.3473" y1="150.848" x2="546.658" y2="-210.347" gradientUnits="userSpaceOnUse">
<stop stop-color="#E900B5" stop-opacity="0.93"/>
<stop offset="0.354167" stop-color="#F55672" stop-opacity="0.78"/>
<stop offset="0.755208" stop-color="#F5EC07"/>
</linearGradient>
<linearGradient id="paint41_linear_132_3" x1="57.3473" y1="159.269" x2="515.231" y2="-210.153" gradientUnits="userSpaceOnUse">
<stop stop-color="#E900B5" stop-opacity="0.93"/>
<stop offset="0.354167" stop-color="#F55672" stop-opacity="0.78"/>
<stop offset="0.755208" stop-color="#F5EC07"/>
</linearGradient>
<linearGradient id="paint42_linear_132_3" x1="57.3473" y1="167.683" x2="479.411" y2="-207.703" gradientUnits="userSpaceOnUse">
<stop stop-color="#E900B5" stop-opacity="0.93"/>
<stop offset="0.354167" stop-color="#F55672" stop-opacity="0.78"/>
<stop offset="0.755208" stop-color="#F5EC07"/>
</linearGradient>
<linearGradient id="paint43_linear_132_3" x1="57.3473" y1="176.097" x2="438.787" y2="-201.854" gradientUnits="userSpaceOnUse">
<stop stop-color="#E900B5" stop-opacity="0.93"/>
<stop offset="0.354167" stop-color="#F55672" stop-opacity="0.78"/>
<stop offset="0.755208" stop-color="#F5EC07"/>
</linearGradient>
<linearGradient id="paint44_linear_132_3" x1="57.3473" y1="184.511" x2="393.187" y2="-191.101" gradientUnits="userSpaceOnUse">
<stop stop-color="#E900B5" stop-opacity="0.93"/>
<stop offset="0.354167" stop-color="#F55672" stop-opacity="0.78"/>
<stop offset="0.755208" stop-color="#F5EC07"/>
</linearGradient>
<linearGradient id="paint45_linear_132_3" x1="57.3473" y1="192.926" x2="342.833" y2="-173.553" gradientUnits="userSpaceOnUse">
<stop stop-color="#E900B5" stop-opacity="0.93"/>
<stop offset="0.354167" stop-color="#F55672" stop-opacity="0.78"/>
<stop offset="0.755208" stop-color="#F5EC07"/>
</linearGradient>
<linearGradient id="paint46_linear_132_3" x1="57.3473" y1="198.004" x2="326.396" y2="-163.929" gradientUnits="userSpaceOnUse">
<stop stop-color="#E900B5" stop-opacity="0.93"/>
<stop offset="0.354167" stop-color="#F55672" stop-opacity="0.78"/>
<stop offset="0.755208" stop-color="#F5EC07"/>
</linearGradient>
<linearGradient id="paint47_linear_132_3" x1="57.3473" y1="202.702" x2="348.398" y2="-165.136" gradientUnits="userSpaceOnUse">
<stop stop-color="#E900B5" stop-opacity="0.93"/>
<stop offset="0.354167" stop-color="#F55672" stop-opacity="0.78"/>
<stop offset="0.755208" stop-color="#F5EC07"/>
</linearGradient>
<linearGradient id="paint48_linear_132_3" x1="57.3473" y1="184.483" x2="641.757" y2="-132.126" gradientUnits="userSpaceOnUse">
<stop stop-color="#E900B5" stop-opacity="0.93"/>
<stop offset="0.354167" stop-color="#F55672" stop-opacity="0.78"/>
<stop offset="0.755208" stop-color="#F5EC07"/>
</linearGradient>
<linearGradient id="paint49_linear_132_3" x1="111.68" y1="25.8285" x2="187.013" y2="18.6539" gradientUnits="userSpaceOnUse">
<stop stop-color="#E900B5" stop-opacity="0.93"/>
<stop offset="0.354167" stop-color="#F55672" stop-opacity="0.78"/>
<stop offset="0.755208" stop-color="#F5EC07"/>
</linearGradient>
<linearGradient id="paint50_linear_132_3" x1="57.3473" y1="69.697" x2="569.261" y2="-283.74" gradientUnits="userSpaceOnUse">
<stop stop-color="#E900B5" stop-opacity="0.93"/>
<stop offset="0.354167" stop-color="#F55672" stop-opacity="0.78"/>
<stop offset="0.755208" stop-color="#F5EC07"/>
</linearGradient>
<linearGradient id="paint51_linear_132_3" x1="57.3473" y1="72.2688" x2="568.625" y2="-281.408" gradientUnits="userSpaceOnUse">
<stop stop-color="#E900B5" stop-opacity="0.93"/>
<stop offset="0.354167" stop-color="#F55672" stop-opacity="0.78"/>
<stop offset="0.755208" stop-color="#F5EC07"/>
</linearGradient>
<linearGradient id="paint52_linear_132_3" x1="57.3453" y1="74.8969" x2="567.534" y2="-279.169" gradientUnits="userSpaceOnUse">
<stop stop-color="#E900B5" stop-opacity="0.93"/>
<stop offset="0.354167" stop-color="#F55672" stop-opacity="0.78"/>
<stop offset="0.755208" stop-color="#F5EC07"/>
</linearGradient>
<linearGradient id="paint53_linear_132_3" x1="57.3473" y1="77.4627" x2="566.855" y2="-276.877" gradientUnits="userSpaceOnUse">
<stop stop-color="#E900B5" stop-opacity="0.93"/>
<stop offset="0.354167" stop-color="#F55672" stop-opacity="0.78"/>
<stop offset="0.755208" stop-color="#F5EC07"/>
</linearGradient>
<linearGradient id="paint54_linear_132_3" x1="57.3473" y1="80.0071" x2="566.19" y2="-274.578" gradientUnits="userSpaceOnUse">
<stop stop-color="#E900B5" stop-opacity="0.93"/>
<stop offset="0.354167" stop-color="#F55672" stop-opacity="0.78"/>
<stop offset="0.755208" stop-color="#F5EC07"/>
</linearGradient>
<linearGradient id="paint55_linear_132_3" x1="57.3473" y1="82.527" x2="565.709" y2="-272.236" gradientUnits="userSpaceOnUse">
<stop stop-color="#E900B5" stop-opacity="0.93"/>
<stop offset="0.354167" stop-color="#F55672" stop-opacity="0.78"/>
<stop offset="0.755208" stop-color="#F5EC07"/>
</linearGradient>
<linearGradient id="paint56_linear_132_3" x1="57.348" y1="85.0154" x2="565.238" y2="-269.927" gradientUnits="userSpaceOnUse">
<stop stop-color="#E900B5" stop-opacity="0.93"/>
<stop offset="0.354167" stop-color="#F55672" stop-opacity="0.78"/>
<stop offset="0.755208" stop-color="#F5EC07"/>
</linearGradient>
<linearGradient id="paint57_linear_132_3" x1="57.3507" y1="87.5001" x2="564.979" y2="-267.563" gradientUnits="userSpaceOnUse">
<stop stop-color="#E900B5" stop-opacity="0.93"/>
<stop offset="0.354167" stop-color="#F55672" stop-opacity="0.78"/>
<stop offset="0.755208" stop-color="#F5EC07"/>
</linearGradient>
<linearGradient id="paint58_linear_132_3" x1="57.3473" y1="89.9605" x2="564.851" y2="-265.116" gradientUnits="userSpaceOnUse">
<stop stop-color="#E900B5" stop-opacity="0.93"/>
<stop offset="0.354167" stop-color="#F55672" stop-opacity="0.78"/>
<stop offset="0.755208" stop-color="#F5EC07"/>
</linearGradient>
<linearGradient id="paint59_linear_132_3" x1="57.3473" y1="92.3999" x2="564.641" y2="-262.753" gradientUnits="userSpaceOnUse">
<stop stop-color="#E900B5" stop-opacity="0.93"/>
<stop offset="0.354167" stop-color="#F55672" stop-opacity="0.78"/>
<stop offset="0.755208" stop-color="#F5EC07"/>
</linearGradient>
<linearGradient id="paint60_linear_132_3" x1="57.3473" y1="94.7782" x2="564.622" y2="-260.382" gradientUnits="userSpaceOnUse">
<stop stop-color="#E900B5" stop-opacity="0.93"/>
<stop offset="0.354167" stop-color="#F55672" stop-opacity="0.78"/>
<stop offset="0.755208" stop-color="#F5EC07"/>
</linearGradient>
<linearGradient id="paint61_linear_132_3" x1="57.3473" y1="97.1265" x2="564.682" y2="-258.012" gradientUnits="userSpaceOnUse">
<stop stop-color="#E900B5" stop-opacity="0.93"/>
<stop offset="0.354167" stop-color="#F55672" stop-opacity="0.78"/>
<stop offset="0.755208" stop-color="#F5EC07"/>
</linearGradient>
<linearGradient id="paint62_linear_132_3" x1="57.346" y1="99.5341" x2="564.988" y2="-255.479" gradientUnits="userSpaceOnUse">
<stop stop-color="#E900B5" stop-opacity="0.93"/>
<stop offset="0.354167" stop-color="#F55672" stop-opacity="0.78"/>
<stop offset="0.755208" stop-color="#F5EC07"/>
</linearGradient>
<linearGradient id="paint63_linear_132_3" x1="57.3473" y1="101.857" x2="565.24" y2="-253.078" gradientUnits="userSpaceOnUse">
<stop stop-color="#E900B5" stop-opacity="0.93"/>
<stop offset="0.354167" stop-color="#F55672" stop-opacity="0.78"/>
<stop offset="0.755208" stop-color="#F5EC07"/>
</linearGradient>
<linearGradient id="paint64_linear_132_3" x1="57.3473" y1="39.6969" x2="569.261" y2="-313.74" gradientUnits="userSpaceOnUse">
<stop stop-color="#E900B5" stop-opacity="0.93"/>
<stop offset="0.354167" stop-color="#F55672" stop-opacity="0.78"/>
<stop offset="0.755208" stop-color="#F5EC07"/>
</linearGradient>
<linearGradient id="paint65_linear_132_3" x1="57.3473" y1="42.2687" x2="568.625" y2="-311.409" gradientUnits="userSpaceOnUse">
<stop stop-color="#E900B5" stop-opacity="0.93"/>
<stop offset="0.354167" stop-color="#F55672" stop-opacity="0.78"/>
<stop offset="0.755208" stop-color="#F5EC07"/>
</linearGradient>
<linearGradient id="paint66_linear_132_3" x1="57.3453" y1="44.8968" x2="567.534" y2="-309.169" gradientUnits="userSpaceOnUse">
<stop stop-color="#E900B5" stop-opacity="0.93"/>
<stop offset="0.354167" stop-color="#F55672" stop-opacity="0.78"/>
<stop offset="0.755208" stop-color="#F5EC07"/>
</linearGradient>
<linearGradient id="paint67_linear_132_3" x1="57.3473" y1="47.4671" x2="566.836" y2="-306.879" gradientUnits="userSpaceOnUse">
<stop stop-color="#E900B5" stop-opacity="0.93"/>
<stop offset="0.354167" stop-color="#F55672" stop-opacity="0.78"/>
<stop offset="0.755208" stop-color="#F5EC07"/>
</linearGradient>
<linearGradient id="paint68_linear_132_3" x1="57.3473" y1="50.007" x2="566.19" y2="-304.578" gradientUnits="userSpaceOnUse">
<stop stop-color="#E900B5" stop-opacity="0.93"/>
<stop offset="0.354167" stop-color="#F55672" stop-opacity="0.78"/>
<stop offset="0.755208" stop-color="#F5EC07"/>
</linearGradient>
<linearGradient id="paint69_linear_132_3" x1="57.3473" y1="52.5268" x2="565.709" y2="-302.236" gradientUnits="userSpaceOnUse">
<stop stop-color="#E900B5" stop-opacity="0.93"/>
<stop offset="0.354167" stop-color="#F55672" stop-opacity="0.78"/>
<stop offset="0.755208" stop-color="#F5EC07"/>
</linearGradient>
<linearGradient id="paint70_linear_132_3" x1="57.348" y1="55.0203" x2="565.217" y2="-299.929" gradientUnits="userSpaceOnUse">
<stop stop-color="#E900B5" stop-opacity="0.93"/>
<stop offset="0.354167" stop-color="#F55672" stop-opacity="0.78"/>
<stop offset="0.755208" stop-color="#F5EC07"/>
</linearGradient>
<linearGradient id="paint71_linear_132_3" x1="57.3507" y1="57.4999" x2="564.979" y2="-297.564" gradientUnits="userSpaceOnUse">
<stop stop-color="#E900B5" stop-opacity="0.93"/>
<stop offset="0.354167" stop-color="#F55672" stop-opacity="0.78"/>
<stop offset="0.755208" stop-color="#F5EC07"/>
</linearGradient>
<linearGradient id="paint72_linear_132_3" x1="57.3473" y1="59.9604" x2="564.851" y2="-295.116" gradientUnits="userSpaceOnUse">
<stop stop-color="#E900B5" stop-opacity="0.93"/>
<stop offset="0.354167" stop-color="#F55672" stop-opacity="0.78"/>
<stop offset="0.755208" stop-color="#F5EC07"/>
</linearGradient>
<linearGradient id="paint73_linear_132_3" x1="57.3473" y1="62.3997" x2="564.641" y2="-292.753" gradientUnits="userSpaceOnUse">
<stop stop-color="#E900B5" stop-opacity="0.93"/>
<stop offset="0.354167" stop-color="#F55672" stop-opacity="0.78"/>
<stop offset="0.755208" stop-color="#F5EC07"/>
</linearGradient>
<linearGradient id="paint74_linear_132_3" x1="57.3473" y1="64.7781" x2="564.622" y2="-290.382" gradientUnits="userSpaceOnUse">
<stop stop-color="#E900B5" stop-opacity="0.93"/>
<stop offset="0.354167" stop-color="#F55672" stop-opacity="0.78"/>
<stop offset="0.755208" stop-color="#F5EC07"/>
</linearGradient>
<linearGradient id="paint75_linear_132_3" x1="57.3473" y1="67.1265" x2="564.682" y2="-288.012" gradientUnits="userSpaceOnUse">
<stop stop-color="#E900B5" stop-opacity="0.93"/>
<stop offset="0.354167" stop-color="#F55672" stop-opacity="0.78"/>
<stop offset="0.755208" stop-color="#F5EC07"/>
</linearGradient>
<linearGradient id="paint76_linear_132_3" x1="57.346" y1="69.534" x2="564.988" y2="-285.479" gradientUnits="userSpaceOnUse">
<stop stop-color="#E900B5" stop-opacity="0.93"/>
<stop offset="0.354167" stop-color="#F55672" stop-opacity="0.78"/>
<stop offset="0.755208" stop-color="#F5EC07"/>
</linearGradient>
<linearGradient id="paint77_linear_132_3" x1="57.3473" y1="71.8566" x2="565.24" y2="-283.078" gradientUnits="userSpaceOnUse">
<stop stop-color="#E900B5" stop-opacity="0.93"/>
<stop offset="0.354167" stop-color="#F55672" stop-opacity="0.78"/>
<stop offset="0.755208" stop-color="#F5EC07"/>
</linearGradient>
</defs>
</svg>
