<svg id="Livello_1" data-name="Livello 1" xmlns="http://www.w3.org/2000/svg" xmlns:xlink="http://www.w3.org/1999/xlink" viewBox="0 0 931.74 304.27"><defs><style>.cls-1{opacity:0.86;}.cls-2{fill:url(#linear-gradient);}.cls-3{fill:url(#linear-gradient-2);}.cls-4{fill:url(#linear-gradient-3);}.cls-5{fill:url(#linear-gradient-4);}.cls-6{fill:url(#linear-gradient-5);}.cls-7{fill:url(#linear-gradient-6);}.cls-8{fill:url(#linear-gradient-7);}.cls-9{fill:url(#linear-gradient-8);}.cls-10{fill:url(#linear-gradient-9);}.cls-11{fill:url(#linear-gradient-10);}.cls-12{fill:url(#linear-gradient-11);}.cls-13{fill:url(#linear-gradient-12);}.cls-14{fill:url(#linear-gradient-13);}.cls-15{fill:url(#linear-gradient-14);}.cls-16{fill:url(#linear-gradient-15);}.cls-17{fill:url(#linear-gradient-16);}.cls-18{fill:url(#linear-gradient-17);}.cls-19{fill:url(#linear-gradient-18);}.cls-20{fill:url(#linear-gradient-19);}.cls-21{fill:url(#linear-gradient-20);}.cls-22{fill:url(#linear-gradient-21);}.cls-23{fill:url(#linear-gradient-22);}.cls-24{fill:url(#linear-gradient-23);}.cls-25{fill:url(#linear-gradient-24);}.cls-26{fill:url(#linear-gradient-25);}.cls-27{fill:url(#linear-gradient-26);}.cls-28{fill:url(#linear-gradient-27);}.cls-29{fill:url(#linear-gradient-28);}.cls-30{fill:url(#linear-gradient-29);}.cls-31{fill:url(#linear-gradient-30);}.cls-32{fill:url(#linear-gradient-31);}.cls-33{fill:url(#linear-gradient-32);}.cls-34{opacity:0.63;fill:url(#linear-gradient-33);}.cls-35{opacity:0.55;fill:url(#linear-gradient-34);}.cls-36{opacity:0.34;}.cls-37,.cls-38,.cls-39,.cls-40,.cls-41,.cls-42,.cls-43,.cls-44,.cls-45,.cls-46,.cls-47,.cls-48,.cls-49,.cls-50,.cls-53,.cls-54,.cls-55,.cls-56,.cls-57,.cls-58,.cls-59,.cls-60,.cls-61,.cls-62,.cls-63,.cls-64,.cls-65,.cls-66,.cls-67{fill:none;}.cls-37{stroke:url(#linear-gradient-35);}.cls-38{stroke:url(#linear-gradient-36);}.cls-39{stroke:url(#linear-gradient-37);}.cls-40{stroke:url(#linear-gradient-38);}.cls-41{stroke:url(#linear-gradient-39);}.cls-42{stroke:url(#linear-gradient-40);}.cls-43{stroke:url(#linear-gradient-41);}.cls-44{stroke:url(#linear-gradient-42);}.cls-45{stroke:url(#linear-gradient-43);}.cls-46{stroke:url(#linear-gradient-44);}.cls-47{stroke:url(#linear-gradient-45);}.cls-48{stroke:url(#linear-gradient-46);}.cls-49{stroke:url(#linear-gradient-47);}.cls-50{stroke:url(#linear-gradient-48);}.cls-51{opacity:0.37;fill:url(#linear-gradient-49);}.cls-52{opacity:0.96;}.cls-53{stroke:#fff;}.cls-53,.cls-54,.cls-55,.cls-56,.cls-57,.cls-58,.cls-59,.cls-60,.cls-61,.cls-62,.cls-63,.cls-64,.cls-65,.cls-66,.cls-67{opacity:0.2;}.cls-54{stroke:url(#linear-gradient-50);}.cls-55{stroke:url(#linear-gradient-51);}.cls-56{stroke:url(#linear-gradient-52);}.cls-57{stroke:url(#linear-gradient-53);}.cls-58{stroke:url(#linear-gradient-54);}.cls-59{stroke:url(#linear-gradient-55);}.cls-60{stroke:url(#linear-gradient-56);}.cls-61{stroke:url(#linear-gradient-57);}.cls-62{stroke:url(#linear-gradient-58);}.cls-63{stroke:url(#linear-gradient-59);}.cls-64{stroke:url(#linear-gradient-60);}.cls-65{stroke:url(#linear-gradient-61);}.cls-66{stroke:url(#linear-gradient-62);}.cls-67{stroke:url(#linear-gradient-63);}</style><linearGradient id="linear-gradient" x1="-53.53" y1="316.64" x2="1045.47" y2="196.64" gradientTransform="translate(-18.78 28.69) rotate(-4.18)" gradientUnits="userSpaceOnUse"><stop offset="0" stop-color="#ffe600"/><stop offset="0.28" stop-color="#ff9503"/><stop offset="0.65" stop-color="#c20092"/><stop offset="1" stop-color="#2c63ff"/></linearGradient><linearGradient id="linear-gradient-2" x1="-52.22" y1="314.44" x2="1039.17" y2="199.15" gradientTransform="translate(-18.78 28.69) rotate(-4.18)" gradientUnits="userSpaceOnUse"><stop offset="0" stop-color="#ffe605"/><stop offset="0.28" stop-color="#ff9703"/><stop offset="0.65" stop-color="#c10094"/><stop offset="1" stop-color="#2c66ff"/></linearGradient><linearGradient id="linear-gradient-3" x1="-50.89" y1="312.27" x2="1032.84" y2="201.62" gradientTransform="translate(-18.78 28.69) rotate(-4.18)" gradientUnits="userSpaceOnUse"><stop offset="0" stop-color="#ffe709"/><stop offset="0.28" stop-color="#ff9903"/><stop offset="0.65" stop-color="#c00095"/><stop offset="1" stop-color="#2c6aff"/></linearGradient><linearGradient id="linear-gradient-4" x1="-49.52" y1="310.11" x2="1026.49" y2="204.07" gradientTransform="translate(-18.78 28.69) rotate(-4.18)" gradientUnits="userSpaceOnUse"><stop offset="0" stop-color="#ffe70e"/><stop offset="0.28" stop-color="#ff9b03"/><stop offset="0.65" stop-color="#bf0097"/><stop offset="1" stop-color="#2c6dff"/></linearGradient><linearGradient id="linear-gradient-5" x1="-48.13" y1="307.99" x2="1020.12" y2="206.5" gradientTransform="translate(-18.78 28.69) rotate(-4.18)" gradientUnits="userSpaceOnUse"><stop offset="0" stop-color="#ffe713"/><stop offset="0.28" stop-color="#fe9c03"/><stop offset="0.65" stop-color="#bf0198"/><stop offset="1" stop-color="#2c71ff"/></linearGradient><linearGradient id="linear-gradient-6" x1="-46.63" y1="306.66" x2="1013.79" y2="209.66" gradientTransform="translate(-18.78 28.69) rotate(-4.18)" gradientUnits="userSpaceOnUse"><stop offset="0" stop-color="#ffe818"/><stop offset="0.28" stop-color="#fe9e03"/><stop offset="0.65" stop-color="#be019a"/><stop offset="1" stop-color="#2c74ff"/></linearGradient><linearGradient id="linear-gradient-7" x1="-45.24" y1="303.85" x2="1007.31" y2="211.3" gradientTransform="translate(-18.78 28.69) rotate(-4.18)" gradientUnits="userSpaceOnUse"><stop offset="0" stop-color="#ffe81c"/><stop offset="0.28" stop-color="#fea003"/><stop offset="0.65" stop-color="#bd019b"/><stop offset="1" stop-color="#2c78ff"/></linearGradient><linearGradient id="linear-gradient-8" x1="-43.75" y1="301.85" x2="1000.88" y2="213.68" gradientTransform="translate(-18.78 28.69) rotate(-4.18)" gradientUnits="userSpaceOnUse"><stop offset="0" stop-color="#ffe821"/><stop offset="0.28" stop-color="#fea203"/><stop offset="0.65" stop-color="#bc019d"/><stop offset="1" stop-color="#2c7bff"/></linearGradient><linearGradient id="linear-gradient-9" x1="-42.22" y1="299.89" x2="994.43" y2="216.05" gradientTransform="translate(-18.78 28.69) rotate(-4.18)" gradientUnits="userSpaceOnUse"><stop offset="0" stop-color="#ffe926"/><stop offset="0.28" stop-color="#fea403"/><stop offset="0.65" stop-color="#bb019e"/><stop offset="1" stop-color="#2c7fff"/></linearGradient><linearGradient id="linear-gradient-10" x1="-40.67" y1="297.97" x2="987.97" y2="218.42" gradientTransform="translate(-18.78 28.69) rotate(-4.18)" gradientUnits="userSpaceOnUse"><stop offset="0" stop-color="#ffe92a"/><stop offset="0.28" stop-color="#fea603"/><stop offset="0.65" stop-color="#ba01a0"/><stop offset="1" stop-color="#2c82ff"/></linearGradient><linearGradient id="linear-gradient-11" x1="-39.09" y1="296.11" x2="981.48" y2="220.78" gradientTransform="translate(-18.78 28.69) rotate(-4.18)" gradientUnits="userSpaceOnUse"><stop offset="0" stop-color="#ffe92f"/><stop offset="0.28" stop-color="#fda803"/><stop offset="0.65" stop-color="#b902a1"/><stop offset="1" stop-color="#2c86ff"/></linearGradient><linearGradient id="linear-gradient-12" x1="-37.48" y1="294.3" x2="974.98" y2="223.14" gradientTransform="translate(-18.78 28.69) rotate(-4.18)" gradientUnits="userSpaceOnUse"><stop offset="0" stop-color="#ffea34"/><stop offset="0.28" stop-color="#fdaa03"/><stop offset="0.65" stop-color="#b802a3"/><stop offset="1" stop-color="#2c89ff"/></linearGradient><linearGradient id="linear-gradient-13" x1="-35.84" y1="292.55" x2="968.47" y2="225.5" gradientTransform="translate(-18.78 28.69) rotate(-4.18)" gradientUnits="userSpaceOnUse"><stop offset="0" stop-color="#ffea39"/><stop offset="0.28" stop-color="#fdab03"/><stop offset="0.65" stop-color="#b802a5"/><stop offset="1" stop-color="#2c8dff"/></linearGradient><linearGradient id="linear-gradient-14" x1="-34.17" y1="290.84" x2="961.93" y2="227.86" gradientTransform="translate(-18.78 28.69) rotate(-4.18)" gradientUnits="userSpaceOnUse"><stop offset="0" stop-color="#ffea3d"/><stop offset="0.28" stop-color="#fdad03"/><stop offset="0.65" stop-color="#b702a6"/><stop offset="1" stop-color="#2c90ff"/></linearGradient><linearGradient id="linear-gradient-15" x1="-32.47" y1="289.2" x2="955.38" y2="230.21" gradientTransform="translate(-18.78 28.69) rotate(-4.18)" gradientUnits="userSpaceOnUse"><stop offset="0" stop-color="#ffeb42"/><stop offset="0.28" stop-color="#fdaf03"/><stop offset="0.65" stop-color="#b602a8"/><stop offset="1" stop-color="#2c94ff"/></linearGradient><linearGradient id="linear-gradient-16" x1="-30.74" y1="287.6" x2="948.82" y2="232.56" gradientTransform="translate(-18.78 28.69) rotate(-4.18)" gradientUnits="userSpaceOnUse"><stop offset="0" stop-color="#ffeb47"/><stop offset="0.28" stop-color="#fdb103"/><stop offset="0.65" stop-color="#b502a9"/><stop offset="1" stop-color="#2c97ff"/></linearGradient><linearGradient id="linear-gradient-17" x1="-28.99" y1="286.06" x2="942.24" y2="234.9" gradientTransform="translate(-18.78 28.69) rotate(-4.18)" gradientUnits="userSpaceOnUse"><stop offset="0" stop-color="#ffeb4b"/><stop offset="0.28" stop-color="#fcb303"/><stop offset="0.65" stop-color="#b403ab"/><stop offset="1" stop-color="#2c9bff"/></linearGradient><linearGradient id="linear-gradient-18" x1="-27.22" y1="284.57" x2="935.64" y2="237.24" gradientTransform="translate(-18.78 28.69) rotate(-4.18)" gradientUnits="userSpaceOnUse"><stop offset="0" stop-color="#ffeb50"/><stop offset="0.28" stop-color="#fcb503"/><stop offset="0.65" stop-color="#b303ac"/><stop offset="1" stop-color="#2c9eff"/></linearGradient><linearGradient id="linear-gradient-19" x1="-25.41" y1="283.13" x2="929.03" y2="239.57" gradientTransform="translate(-18.78 28.69) rotate(-4.18)" gradientUnits="userSpaceOnUse"><stop offset="0" stop-color="#ffec55"/><stop offset="0.28" stop-color="#fcb703"/><stop offset="0.65" stop-color="#b203ae"/><stop offset="1" stop-color="#2ca2ff"/></linearGradient><linearGradient id="linear-gradient-20" x1="-23.59" y1="281.73" x2="922.41" y2="241.88" gradientTransform="translate(-18.78 28.69) rotate(-4.18)" gradientUnits="userSpaceOnUse"><stop offset="0" stop-color="#ffec59"/><stop offset="0.28" stop-color="#fcb903"/><stop offset="0.65" stop-color="#b103af"/><stop offset="1" stop-color="#2ca5ff"/></linearGradient><linearGradient id="linear-gradient-21" x1="-21.74" y1="280.38" x2="915.77" y2="244.19" gradientTransform="translate(-18.78 28.69) rotate(-4.18)" gradientUnits="userSpaceOnUse"><stop offset="0" stop-color="#ffec5e"/><stop offset="0.28" stop-color="#fcba03"/><stop offset="0.65" stop-color="#b103b1"/><stop offset="1" stop-color="#2ca9ff"/></linearGradient><linearGradient id="linear-gradient-22" x1="-19.87" y1="279.08" x2="909.11" y2="246.47" gradientTransform="translate(-18.78 28.69) rotate(-4.18)" gradientUnits="userSpaceOnUse"><stop offset="0" stop-color="#ffed63"/><stop offset="0.28" stop-color="#fcbc03"/><stop offset="0.65" stop-color="#b003b3"/><stop offset="1" stop-color="#2cacff"/></linearGradient><linearGradient id="linear-gradient-23" x1="-17.97" y1="277.81" x2="902.45" y2="248.74" gradientTransform="translate(-18.78 28.69) rotate(-4.18)" gradientUnits="userSpaceOnUse"><stop offset="0" stop-color="#ffed68"/><stop offset="0.28" stop-color="#fbbe03"/><stop offset="0.65" stop-color="#af04b4"/><stop offset="1" stop-color="#2cb0ff"/></linearGradient><linearGradient id="linear-gradient-24" x1="-16.06" y1="276.58" x2="895.76" y2="250.99" gradientTransform="translate(-18.78 28.69) rotate(-4.18)" gradientUnits="userSpaceOnUse"><stop offset="0" stop-color="#ffed6c"/><stop offset="0.28" stop-color="#fbc003"/><stop offset="0.65" stop-color="#ae04b6"/><stop offset="1" stop-color="#2cb3ff"/></linearGradient><linearGradient id="linear-gradient-25" x1="-14.12" y1="275.39" x2="889.07" y2="253.21" gradientTransform="translate(-18.78 28.69) rotate(-4.18)" gradientUnits="userSpaceOnUse"><stop offset="0" stop-color="#ffee71"/><stop offset="0.28" stop-color="#fbc203"/><stop offset="0.65" stop-color="#ad04b7"/><stop offset="1" stop-color="#2cb7ff"/></linearGradient><linearGradient id="linear-gradient-26" x1="-12.16" y1="274.24" x2="882.36" y2="255.41" gradientTransform="translate(-18.78 28.69) rotate(-4.18)" gradientUnits="userSpaceOnUse"><stop offset="0" stop-color="#ffee76"/><stop offset="0.28" stop-color="#fbc403"/><stop offset="0.65" stop-color="#ac04b9"/><stop offset="1" stop-color="#2cbaff"/></linearGradient><linearGradient id="linear-gradient-27" x1="-10.18" y1="273.12" x2="875.64" y2="257.58" gradientTransform="translate(-18.78 28.69) rotate(-4.18)" gradientUnits="userSpaceOnUse"><stop offset="0" stop-color="#ffee7a"/><stop offset="0.28" stop-color="#fbc603"/><stop offset="0.65" stop-color="#ab04ba"/><stop offset="1" stop-color="#2cbeff"/></linearGradient><linearGradient id="linear-gradient-28" x1="-8.18" y1="272.03" x2="868.91" y2="259.72" gradientTransform="translate(-18.78 28.69) rotate(-4.18)" gradientUnits="userSpaceOnUse"><stop offset="0" stop-color="#ffef7f"/><stop offset="0.28" stop-color="#fbc803"/><stop offset="0.65" stop-color="#aa04bc"/><stop offset="1" stop-color="#2cc1ff"/></linearGradient><linearGradient id="linear-gradient-29" x1="-6.17" y1="270.98" x2="862.17" y2="261.84" gradientTransform="translate(-18.78 28.69) rotate(-4.18)" gradientUnits="userSpaceOnUse"><stop offset="0" stop-color="#ffef84"/><stop offset="0.28" stop-color="#fac903"/><stop offset="0.65" stop-color="#aa05bd"/><stop offset="1" stop-color="#2cc5ff"/></linearGradient><linearGradient id="linear-gradient-30" x1="-4.13" y1="269.96" x2="855.42" y2="263.93" gradientTransform="translate(-18.78 28.69) rotate(-4.18)" gradientUnits="userSpaceOnUse"><stop offset="0" stop-color="#ffef89"/><stop offset="0.28" stop-color="#facb03"/><stop offset="0.65" stop-color="#a905bf"/><stop offset="1" stop-color="#2cc8ff"/></linearGradient><linearGradient id="linear-gradient-31" x1="-2.07" y1="268.9" x2="848.66" y2="265.91" gradientTransform="translate(-18.78 28.69) rotate(-4.18)" gradientUnits="userSpaceOnUse"><stop offset="0" stop-color="#fff08d"/><stop offset="0.28" stop-color="#facd03"/><stop offset="0.65" stop-color="#a805c0"/><stop offset="1" stop-color="#2cccff"/></linearGradient><linearGradient id="linear-gradient-32" y1="268.3" x2="841.89" y2="268.3" gradientTransform="translate(-18.78 28.69) rotate(-4.18)" gradientUnits="userSpaceOnUse"><stop offset="0" stop-color="#fff092"/><stop offset="0.28" stop-color="#facf03"/><stop offset="0.65" stop-color="#a705c2"/><stop offset="1" stop-color="#2ccfff"/></linearGradient><linearGradient id="linear-gradient-33" y1="216.39" x2="841.89" y2="216.39" gradientTransform="translate(-18.78 28.69) rotate(-4.18)" gradientUnits="userSpaceOnUse"><stop offset="0" stop-color="#fff092"/><stop offset="0.75" stop-color="#facf03"/><stop offset="0.98" stop-color="#a705c2"/></linearGradient><linearGradient id="linear-gradient-34" x1="766.05" y1="301.35" x2="88.05" y2="295.35" gradientTransform="translate(-18.78 28.69) rotate(-4.18)" gradientUnits="userSpaceOnUse"><stop offset="0" stop-color="#fff092"/><stop offset="0.28" stop-color="#facf03"/><stop offset="1" stop-color="#a705c2"/><stop offset="1" stop-color="#2ccfff"/></linearGradient><linearGradient id="linear-gradient-35" x1="-83.97" y1="236.14" x2="848.22" y2="236.14" gradientTransform="translate(-3.36 5.82) rotate(-0.8)" gradientUnits="userSpaceOnUse"><stop offset="0" stop-color="#fff"/><stop offset="0.97" stop-color="#d06faf" stop-opacity="0.9"/></linearGradient><linearGradient id="linear-gradient-36" x1="-83.97" y1="242.75" x2="848.22" y2="242.75" xlink:href="#linear-gradient-35"/><linearGradient id="linear-gradient-37" x1="-83.96" y1="249.37" x2="848.21" y2="249.37" xlink:href="#linear-gradient-35"/><linearGradient id="linear-gradient-38" x1="-83.96" y1="255.98" x2="848.21" y2="255.98" xlink:href="#linear-gradient-35"/><linearGradient id="linear-gradient-39" x1="-83.95" y1="262.59" x2="848.2" y2="262.59" xlink:href="#linear-gradient-35"/><linearGradient id="linear-gradient-40" x1="-83.95" y1="269.21" x2="848.2" y2="269.21" xlink:href="#linear-gradient-35"/><linearGradient id="linear-gradient-41" x1="-83.95" y1="275.82" x2="848.19" y2="275.82" xlink:href="#linear-gradient-35"/><linearGradient id="linear-gradient-42" x1="-83.95" y1="282.43" x2="848.18" y2="282.43" xlink:href="#linear-gradient-35"/><linearGradient id="linear-gradient-43" x1="-83.94" y1="289.05" x2="848.17" y2="289.05" xlink:href="#linear-gradient-35"/><linearGradient id="linear-gradient-44" x1="-83.94" y1="295.66" x2="848.16" y2="295.66" xlink:href="#linear-gradient-35"/><linearGradient id="linear-gradient-45" x1="-83.94" y1="302.27" x2="848.15" y2="302.27" xlink:href="#linear-gradient-35"/><linearGradient id="linear-gradient-46" x1="-83.93" y1="308.89" x2="848.14" y2="308.89" xlink:href="#linear-gradient-35"/><linearGradient id="linear-gradient-47" x1="-83.93" y1="313.4" x2="848.12" y2="313.4" xlink:href="#linear-gradient-35"/><linearGradient id="linear-gradient-48" x1="-83.93" y1="318.85" x2="848.1" y2="318.85" xlink:href="#linear-gradient-35"/><linearGradient id="linear-gradient-49" x1="-13.42" y1="317.79" x2="434.58" y2="343.79" gradientTransform="translate(-18.78 28.69) rotate(-4.18)" gradientUnits="userSpaceOnUse"><stop offset="0" stop-color="#fff"/><stop offset="0" stop-color="#fdfafe"/><stop offset="0" stop-color="#edccf3"/><stop offset="0.01" stop-color="#dea2e8"/><stop offset="0.01" stop-color="#d17cdf"/><stop offset="0.02" stop-color="#c55cd7"/><stop offset="0.02" stop-color="#bc40d1"/><stop offset="0.03" stop-color="#b42acb"/><stop offset="0.03" stop-color="#ae19c7"/><stop offset="0.04" stop-color="#aa0ec4"/><stop offset="0.05" stop-color="#a807c2"/><stop offset="0.08" stop-color="#a705c2"/><stop offset="0.82" stop-color="#facf03"/><stop offset="1" stop-color="#fff092"/></linearGradient><linearGradient id="linear-gradient-50" x1="-6.85" y1="184.58" x2="835.35" y2="184.58" gradientTransform="translate(-18.78 28.69) rotate(-4.18)" gradientUnits="userSpaceOnUse"><stop offset="0" stop-color="#fff"/><stop offset="0.22" stop-color="#d06faf" stop-opacity="0.9"/></linearGradient><linearGradient id="linear-gradient-51" x1="-6.85" y1="187.1" x2="835.35" y2="187.1" xlink:href="#linear-gradient-50"/><linearGradient id="linear-gradient-52" x1="-6.84" y1="189.67" x2="835.35" y2="189.67" xlink:href="#linear-gradient-50"/><linearGradient id="linear-gradient-53" x1="-6.84" y1="192.18" x2="835.35" y2="192.18" xlink:href="#linear-gradient-50"/><linearGradient id="linear-gradient-54" x1="-6.83" y1="194.68" x2="835.35" y2="194.68" xlink:href="#linear-gradient-50"/><linearGradient id="linear-gradient-55" x1="-6.83" y1="197.17" x2="835.35" y2="197.17" xlink:href="#linear-gradient-50"/><linearGradient id="linear-gradient-56" x1="-6.82" y1="199.8" x2="835.35" y2="199.8" xlink:href="#linear-gradient-50"/><linearGradient id="linear-gradient-57" x1="-6.82" y1="202.09" x2="835.35" y2="202.09" xlink:href="#linear-gradient-50"/><linearGradient id="linear-gradient-58" x1="-6.82" y1="204.53" x2="835.35" y2="204.53" xlink:href="#linear-gradient-50"/><linearGradient id="linear-gradient-59" x1="-6.82" y1="206.95" x2="835.35" y2="206.95" xlink:href="#linear-gradient-50"/><linearGradient id="linear-gradient-60" x1="-6.81" y1="209.35" x2="835.35" y2="209.35" xlink:href="#linear-gradient-50"/><linearGradient id="linear-gradient-61" x1="-6.81" y1="211.74" x2="835.35" y2="211.74" xlink:href="#linear-gradient-50"/><linearGradient id="linear-gradient-62" x1="-6.81" y1="214.1" x2="835.35" y2="214.1" xlink:href="#linear-gradient-50"/><linearGradient id="linear-gradient-63" x1="-6.8" y1="216.47" x2="835.35" y2="216.47" xlink:href="#linear-gradient-50"/></defs><g class="cls-1"><path class="cls-2" d="M-1.44,266.05s125.19-42.88,256.9-51.85C458,200.4,698.52,284.1,838.07,202.72l1.6,21.94s-99.2,95.48-290.73,81.4S264.56,201.5-.06,285Z" transform="translate(82.88 -140.31)"/><path class="cls-3" d="M838.08,202.94l1.58,21.53c-5.76,3.62-106.91,94.91-298,80S256.15,205.93.07,286.74l-1.5-20.49s126-43.2,261.71-50.4C464.53,205,703,281.7,838.08,202.94Z" transform="translate(82.88 -140.31)"/><path class="cls-4" d="M838.1,203.17l1.54,21.1C828.13,231.52,725,318.62,534.35,303S247.75,210.36.2,288.48l-1.61-22s126.86-43.54,266.5-48.93C471.05,209.54,707.55,279.3,838.1,203.17Z" transform="translate(82.88 -140.31)"/><path class="cls-5" d="M838.12,203.39l1.51,20.69C822.36,235,717.31,317.85,527.06,301.45S239.34,214.79.33,290.22L-1.4,266.63s127.68-43.91,271.3-47.47C477.55,214,712.07,276.9,838.12,203.39Z" transform="translate(82.88 -140.31)"/><path class="cls-6" d="M838.13,203.62l1.48,20.27c-23,14.49-130,93.2-319.84,76S230.93,219.22.45,292l-1.83-25.12s128.49-44.32,276.09-46C484,218.41,716.59,274.5,838.13,203.62Z" transform="translate(82.88 -140.31)"/><path class="cls-7" d="M838.15,203.84l1.45,19.85c-28.78,18.12-137.73,92.64-327.13,74.68s-290-74.71-511.89-4.68L-1.37,267S128,225.71,279.52,222.47C490.47,218,721.11,272.1,838.15,203.84Z" transform="translate(82.88 -140.31)"/><path class="cls-8" d="M838.17,204.07l1.41,19.43c-34.52,21.74-145.43,92.07-334.4,73.34S214.11,228.09.71,295.43l-2.06-28.22S128.73,222,284.33,224.12C497,227,725.62,269.7,838.17,204.07Z" transform="translate(82.88 -140.31)"/><path class="cls-9" d="M838.18,204.29l1.39,19c-40.28,25.36-153.15,91.5-341.68,72S205.7,232.52.83,297.16l-2.17-29.75s130.87-45.73,290.48-41.64C503.45,231.27,730.14,267.3,838.18,204.29Z" transform="translate(82.88 -140.31)"/><path class="cls-10" d="M838.2,204.52l1.36,18.59c-46,29-160.86,90.93-349,70.65S197.29,237,1,298.9l-2.29-31.3S130.33,221.35,294,227.43C509.92,235.46,734.66,264.9,838.2,204.52Z" transform="translate(82.88 -140.31)"/><path class="cls-11" d="M838.21,204.74l1.33,18.18c-51.79,32.6-168.56,90.36-356.24,69.3S188.88,241.38,1.09,300.64l-2.4-32.85S131.13,221,298.76,229.08C516.38,239.6,739.18,262.5,838.21,204.74Z" transform="translate(82.88 -140.31)"/><path class="cls-12" d="M838.23,205l1.3,17.76C782,259,663.26,312.52,476,290.69S180.47,245.81,1.21,302.38L-1.3,268s133.23-47.39,304.87-37.24C522.84,243.7,743.7,260.1,838.23,205Z" transform="translate(82.88 -140.31)"/><path class="cls-13" d="M838.25,205.19l1.26,17.35c-63.3,39.84-184,89.22-370.79,66.61s-296.66-38.91-467.38,15l-2.62-35.93s134-48,309.66-35.79C529.3,247.77,748.21,257.7,838.25,205.19Z" transform="translate(82.88 -140.31)"/><path class="cls-14" d="M838.26,205.42l1.24,16.92C770.44,265.81,647.82,311,461.43,287.61s-297.78-32.94-460,18.24l-2.74-37.48S133.53,219.71,313.19,234C535.76,251.8,752.73,255.3,838.26,205.42Z" transform="translate(82.88 -140.31)"/><path class="cls-15" d="M838.28,205.65l1.21,16.5c-74.82,47.09-199.39,88.08-385.36,63.92s-298.89-27-452.54,21.52l-2.85-39S134.33,219.24,318,235.7C542.23,255.79,757.25,252.9,838.28,205.65Z" transform="translate(82.88 -140.31)"/><path class="cls-16" d="M838.3,205.87,839.47,222c-80.57,50.71-207.09,87.51-392.63,62.58s-300-21-445.12,24.79l-3-40.57s136.38-50,324.05-31.41C548.7,259.76,761.77,250.5,838.3,205.87Z" transform="translate(82.88 -140.31)"/><path class="cls-17" d="M838.31,206.1l1.15,15.66C753.13,276.1,624.66,308.71,439.55,283S138.43,268,1.85,311.06L-1.23,269S136,218.21,327.63,239C555.17,263.7,766.29,248.1,838.31,206.1Z" transform="translate(82.88 -140.31)"/><path class="cls-18" d="M838.33,206.32l1.11,15.25c-92.07,58-222.51,86.38-407.18,59.89S130,272.4,2,312.8l-3.19-43.66s138-51.49,333.65-28.48C561.65,267.61,770.8,245.7,838.33,206.32Z" transform="translate(82.88 -140.31)"/><path class="cls-19" d="M838.35,206.55l1.08,14.83C741.6,283,609.21,307.19,425,279.93S121.61,276.83,2.1,314.54l-3.3-45.2s138.78-52.26,338.45-27C568.13,271.49,775.32,243.3,838.35,206.55Z" transform="translate(82.88 -140.31)"/><path class="cls-20" d="M838.36,206.77l1.06,14.41c-103.59,65.21-237.93,85.24-421.75,57.21S113.2,281.26,2.23,316.28l-3.42-46.75s139.59-53,343.25-25.56C574.62,275.36,779.84,240.9,838.36,206.77Z" transform="translate(82.88 -140.31)"/><path class="cls-21" d="M838.38,207l1,14c-109.34,68.83-245.63,84.67-429,55.86S104.79,285.69,2.36,318l-3.53-48.29s140.4-53.86,348-24.1C581.11,279.2,784.36,238.5,838.38,207Z" transform="translate(82.88 -140.31)"/><path class="cls-22" d="M838.4,207.22l1,13.58c-115.1,72.45-253.34,84.1-436.31,54.51S96.38,290.12,2.48,319.75l-3.64-49.84s141.22-54.7,352.84-22.63C587.61,283,788.88,236.1,838.4,207.22Z" transform="translate(82.88 -140.31)"/><path class="cls-23" d="M838.41,207.45l1,13.16c-120.85,76.07-261,83.53-443.58,53.17S88,294.55,2.61,321.49l-3.75-51.38s142-55.56,357.63-21.18C594.12,286.82,793.4,233.7,838.41,207.45Z" transform="translate(82.88 -140.31)"/><path class="cls-24" d="M838.43,207.67l.93,12.74c-126.61,79.7-268.75,83-450.86,51.83S79.56,299,2.74,323.22L-1.13,270.3s142.87-56.44,362.43-19.72C600.63,290.61,797.91,231.3,838.43,207.67Z" transform="translate(82.88 -140.31)"/><path class="cls-25" d="M838.45,207.9l.9,12.32C707,303.54,562.89,302.61,381.21,270.7S71.15,303.41,2.86,325l-4-54.47s143.72-57.33,367.23-18.25C607.15,294.38,802.43,228.9,838.45,207.9Z" transform="translate(82.88 -140.31)"/><path class="cls-26" d="M838.46,208.12l.87,11.91C701.21,307,555.16,301.85,373.91,269.16S62.74,307.84,3,326.7l-4.09-56s144.55-58.25,372-16.8C613.68,298.13,807,226.5,838.46,208.12Z" transform="translate(82.88 -140.31)"/><path class="cls-27" d="M838.48,208.35l.84,11.48c-143.88,90.57-291.88,81.26-472.7,47.8S54.33,312.27,3.12,328.44l-4.21-57.56s145.41-59.18,376.82-15.34C620.21,301.87,811.47,224.1,838.48,208.35Z" transform="translate(82.88 -140.31)"/><path class="cls-28" d="M838.49,208.57l.81,11.07c-149.62,94.18-299.58,80.69-480,46.45S45.93,316.71,3.24,330.17l-4.31-59.1s146.26-60.13,381.61-13.87C626.75,305.59,816,221.7,838.49,208.57Z" transform="translate(82.88 -140.31)"/><path class="cls-29" d="M838.51,208.8l.78,10.65C683.91,317.25,532,299.57,352,264.55S37.52,321.14,3.37,331.91l-4.43-60.64s147.13-61.11,386.41-12.42C633.29,309.31,820.5,219.3,838.51,208.8Z" transform="translate(82.88 -140.31)"/><path class="cls-30" d="M838.53,209l.74,10.23C678.14,320.68,524.28,298.8,344.74,263S29.11,325.57,3.5,333.65L-1,271.46s148-62.1,391.2-10.95C639.85,313,825,216.9,838.53,209Z" transform="translate(82.88 -140.31)"/><path class="cls-31" d="M838.54,209.25l.72,9.81c-166.89,105.05-322.7,79-501.81,42.42S20.7,330,3.63,335.39L-1,271.65s148.88-63.1,396-9.49C646.4,316.7,829.54,214.5,838.54,209.25Z" transform="translate(82.88 -140.31)"/><path class="cls-32" d="M838.56,209.47l.69,9.4C666.6,327.54,508.84,297.28,330.16,259.94S12.29,334.43,3.75,337.12L-1,271.85s149.84-64.44,400.81-8C653,320.06,834.06,212.1,838.56,209.47Z" transform="translate(82.88 -140.31)"/><path class="cls-33" d="M838.58,209.7s-179,114.35-434,55.77S-1,272-1,272l4.88,66.82s140.73-118.57,319-80.46,338,72.57,516.36-39.73Z" transform="translate(82.88 -140.31)"/></g><path class="cls-34" d="M-5.67,208.21s153-88.38,309.21-49.66,236.44,100,425.73,63.14c98.86-19.25,107.49-36.92,107.49-36.92l3.64,49.86s-108.65,90.92-383.28-5.08C170,129.2-4,231.15-4,231.15Z" transform="translate(82.88 -140.31)"/><path class="cls-35" d="M1,299s99.19-67.21,240.51-56.68c156.27,11.65,357.74,137.3,602.72,44.2l1.38,18.95s-105.2,81.89-343.63,16.08C273,258.34,160.76,290.3,5.34,358.81Z" transform="translate(82.88 -140.31)"/><g class="cls-36"><path class="cls-37" d="M-82.63,325.07s185.52-108.6,447.05-83.25,353,16.08,482.2-93.74" transform="translate(82.88 -140.31)"/><path class="cls-38" d="M-82.6,327.07s188.92-108.49,448.72-79.73,355.06,16.2,480.66-88" transform="translate(82.88 -140.31)"/><path class="cls-39" d="M-82.57,329.07s192.33-108.39,450.38-76.22,357.11,16.33,479.12-82.31" transform="translate(82.88 -140.31)"/><path class="cls-40" d="M-82.54,331.07s195.73-108.28,452.05-72.7,359.15,16.45,477.58-76.6" transform="translate(82.88 -140.31)"/><path class="cls-41" d="M-82.52,333.07S116.63,224.9,371.2,263.88,732.4,280.46,847.25,193" transform="translate(82.88 -140.31)"/><path class="cls-42" d="M-82.49,335.07S120.06,227,372.89,269.4s363.25,16.7,474.51-65.17" transform="translate(82.88 -140.31)"/><path class="cls-43" d="M-82.46,337.07s206-108,457.05-62.15,365.29,16.82,473-59.46" transform="translate(82.88 -140.31)"/><path class="cls-44" d="M-82.43,339.07s209.36-107.86,458.71-58.64,367.34,16.95,471.44-53.74" transform="translate(82.88 -140.31)"/><path class="cls-45" d="M-82.41,341.07S130.36,233.32,378,286s369.37,17.07,469.89-48" transform="translate(82.88 -140.31)"/><path class="cls-46" d="M-82.38,343.07S133.8,235.43,379.67,291.46,751.09,308.66,848,249.15" transform="translate(82.88 -140.31)"/><path class="cls-47" d="M-82.35,345.07S137.23,237.53,381.37,297s373.46,17.32,466.82-36.6" transform="translate(82.88 -140.31)"/><path class="cls-48" d="M-82.32,347.07s223-107.43,465.38-44.58,375.51,17.45,465.28-30.88" transform="translate(82.88 -140.31)"/><path class="cls-49" d="M-82.29,349.07S144.1,241.75,384.76,308s377.55,17.57,463.74-25.17" transform="translate(82.88 -140.31)"/><path class="cls-50" d="M-82.27,351.07s229.81-107.22,468.72-37.55,379.6,17.7,462.21-19.45" transform="translate(82.88 -140.31)"/></g><path class="cls-51" d="M7.23,384.74s52.7-33.38,189.33-71c218.21-60.05,387.78,120.07,643.91-78.12l2.19,29.92S716.9,368,535.6,343.13c-235.3-32.26-268.73-82.64-524,101.45Z" transform="translate(82.88 -140.31)"/><g class="cls-52"><path class="cls-53" d="M-4,230.81s133.58-93,369.57-33,281.05,75.72,475.18,41.49" transform="translate(82.88 -140.31)"/><path class="cls-53" d="M-3.82,233.5s87.88-60.18,246.2-52.85a626.9,626.9,0,0,1,123.49,18.12C464,223,528.87,240.92,589.15,251c82.61,13.81,148.68,9.36,251.8-8.82" transform="translate(82.88 -140.31)"/><path class="cls-53" d="M-3.62,236.18s88.17-59,246.2-53.37a622.45,622.45,0,0,1,123.6,16.94c96,23.06,160,41.34,223.21,52.33,87.45,15.31,157.24,9.55,251.76-7.12" transform="translate(82.88 -140.31)"/><path class="cls-53" d="M-3.43,238.87S85.05,180.78,242.79,185a616.13,616.13,0,0,1,123.7,15.74c93.92,21.86,157.07,40.54,223.14,52.49C681.92,270,755.43,263,841.36,247.8" transform="translate(82.88 -140.31)"/><path class="cls-53" d="M-3.23,241.56S85.55,184.33,243,187.14a611.68,611.68,0,0,1,123.8,14.55c91.83,20.67,154.1,39.74,223.07,52.64,97.13,18.32,174.36,9.95,251.7-3.69" transform="translate(82.88 -140.31)"/><path class="cls-53" d="M-3,244.24s89.09-56.39,246.24-54.94a608.93,608.93,0,0,1,123.9,13.37c89.74,19.46,151.14,38.93,223,52.79,102,19.82,182.92,10.14,251.67-2" transform="translate(82.88 -140.31)"/><path class="cls-53" d="M-2.84,246.93s89.41-54.23,246.26-55.46a582.31,582.31,0,0,1,124,12.17c87.65,18.27,148.17,38.13,222.93,52.95,106.81,21.32,191.48,10.34,251.63-.27" transform="translate(82.88 -140.31)"/><path class="cls-53" d="M-2.64,249.61s89.71-54.82,246.27-56c44.26-.32,84.48,3.17,124.1,11,85.55,17.06,145.2,37.33,222.86,53.09,111.65,22.82,200,10.54,251.6,1.45" transform="translate(82.88 -140.31)"/><path class="cls-53" d="M-2.44,252.3s90-54.09,246.28-56.5c45.26-.7,85.34,2.48,124.2,9.79,83.46,15.87,142.24,36.53,222.79,53.25,116.49,24.32,208.6,10.73,251.57,3.15" transform="translate(82.88 -140.31)"/><path class="cls-53" d="M-2.25,255s90.33-53.38,246.3-57c46.26-1.08,86.19,1.81,124.3,8.61,81.37,14.66,139.27,35.72,222.71,53.4,121.34,25.82,217.17,10.93,251.54,4.86" transform="translate(82.88 -140.31)"/><path class="cls-53" d="M-2,257.67S88.59,205,244.26,200.12c47.26-1.47,87.05,1.14,124.4,7.42C447.94,221,505,242.46,591.3,261.09c126.18,27.33,225.73,11.13,251.51,6.58" transform="translate(82.88 -140.31)"/><path class="cls-53" d="M-1.86,260.35s91-52.05,246.33-58.06c48.25-1.87,87.91.45,124.5,6.22,77.19,12.27,133.34,34.12,222.57,53.71,131,28.83,234.29,11.32,251.48,8.29" transform="translate(82.88 -140.31)"/><path class="cls-53" d="M-1.66,263s91.24-51.59,246.34-58.59c49.24-2.33,88.76-.22,124.6,5,75.1,11.07,130.37,33.31,222.5,53.86,135.86,30.33,242.85,11.51,251.45,10" transform="translate(82.88 -140.31)"/><path class="cls-53" d="M-1.46,265.72s91.54-50.8,246.34-59.11,206.45,26,347.14,57.87,251.41,11.71,251.41,11.71" transform="translate(82.88 -140.31)"/></g><g class="cls-52"><path class="cls-54" d="M-13.32,194s133.58-93,369.58-33,281,75.72,475.17,41.49" transform="translate(82.88 -140.31)"/><path class="cls-55" d="M-13.12,196.66s87.88-60.18,246.19-52.85a628.49,628.49,0,0,1,123.5,18.12c98.1,24.26,163,42.15,223.28,52.18,82.61,13.81,148.67,9.36,251.79-8.82" transform="translate(82.88 -140.31)"/><path class="cls-56" d="M-12.93,199.35s88.18-59,246.21-53.37a621.77,621.77,0,0,1,123.6,16.93c96,23.06,160,41.34,223.2,52.33,87.46,15.31,157.24,9.56,251.77-7.11" transform="translate(82.88 -140.31)"/><path class="cls-57" d="M-12.73,202s88.48-58.09,246.22-53.89a616.22,616.22,0,0,1,123.7,15.74c93.92,21.86,157.07,40.54,223.13,52.49,92.3,16.81,165.8,9.75,251.74-5.41" transform="translate(82.88 -140.31)"/><path class="cls-58" d="M-12.53,204.72S76.25,147.5,233.7,150.3a611.7,611.7,0,0,1,123.8,14.56c91.83,20.66,154.1,39.73,223.06,52.64,97.14,18.31,174.36,9.94,251.7-3.7" transform="translate(82.88 -140.31)"/><path class="cls-59" d="M-12.34,207.4S76.76,151,233.91,152.47a608.29,608.29,0,0,1,123.9,13.36c89.73,19.46,151.13,38.94,223,52.79,102,19.82,182.93,10.14,251.67-2" transform="translate(82.88 -140.31)"/><path class="cls-60" d="M-12.14,210.09s89.41-54.23,246.26-55.46a582.37,582.37,0,0,1,124,12.17c87.64,18.27,148.17,38.14,222.92,52.95,106.82,21.32,191.49,10.34,251.64-.27" transform="translate(82.88 -140.31)"/><path class="cls-61" d="M-11.94,212.77s89.71-54.82,246.27-56c44.26-.32,84.48,3.17,124.1,11,85.55,17.06,145.2,37.33,222.85,53.1,111.65,22.82,200.05,10.53,251.61,1.44" transform="translate(82.88 -140.31)"/><path class="cls-62" d="M-11.75,215.46s90-54.09,246.29-56.5c45.26-.7,85.33,2.48,124.2,9.79C442.2,184.62,501,205.28,581.52,222c116.49,24.33,208.61,10.73,251.57,3.16" transform="translate(82.88 -140.31)"/><path class="cls-63" d="M-11.55,218.14s90.33-53.38,246.29-57c46.27-1.08,86.2,1.81,124.31,8.61,81.37,14.67,139.27,35.72,222.71,53.4C703.09,249,798.93,234.06,833.3,228" transform="translate(82.88 -140.31)"/><path class="cls-64" d="M-11.36,220.83S79.28,168.13,235,163.29c47.26-1.47,87.06,1.13,124.41,7.41,79.28,13.47,136.3,34.92,222.64,53.56,126.17,27.32,225.73,11.12,251.51,6.57" transform="translate(82.88 -140.31)"/><path class="cls-65" d="M-11.16,223.51s90.94-52,246.32-58.06c48.26-1.87,87.91.45,124.51,6.22C436.85,184,493,205.79,582.24,225.38c131,28.83,234.29,11.32,251.48,8.29" transform="translate(82.88 -140.31)"/><path class="cls-66" d="M-11,226.2s91.23-51.59,246.33-58.59c49.25-2.33,88.77-.22,124.61,5,75.09,11.07,130.37,33.31,222.5,53.86,135.85,30.33,242.85,11.52,251.44,10" transform="translate(82.88 -140.31)"/><path class="cls-67" d="M-10.77,228.88s91.54-50.8,246.35-59.1,206.45,26,347.14,57.86,251.41,11.71,251.41,11.71" transform="translate(82.88 -140.31)"/></g></svg>