<svg id="Livello_1" data-name="Livello 1" xmlns="http://www.w3.org/2000/svg" xmlns:xlink="http://www.w3.org/1999/xlink" viewBox="0 0 959.01 298.48"><defs><style>.cls-1{opacity:0.86;}.cls-2{fill:url(#linear-gradient);}.cls-10,.cls-11,.cls-12,.cls-13,.cls-14,.cls-15,.cls-16,.cls-17,.cls-18,.cls-19,.cls-20,.cls-21,.cls-22,.cls-23,.cls-24,.cls-25,.cls-26,.cls-27,.cls-28,.cls-29,.cls-3,.cls-30,.cls-31,.cls-32,.cls-33,.cls-4,.cls-5,.cls-6,.cls-7,.cls-8,.cls-9{stroke-miterlimit:10;}.cls-3{stroke-width:0.03px;fill:url(#linear-gradient-2);stroke:url(#linear-gradient-3);}.cls-4{stroke-width:0.06px;fill:url(#linear-gradient-4);stroke:url(#linear-gradient-5);}.cls-5{stroke-width:0.1px;fill:url(#linear-gradient-6);stroke:url(#linear-gradient-7);}.cls-6{stroke-width:0.13px;fill:url(#linear-gradient-8);stroke:url(#linear-gradient-9);}.cls-7{stroke-width:0.16px;fill:url(#linear-gradient-10);stroke:url(#linear-gradient-11);}.cls-8{stroke-width:0.19px;fill:url(#linear-gradient-12);stroke:url(#linear-gradient-13);}.cls-9{stroke-width:0.23px;fill:url(#linear-gradient-14);stroke:url(#linear-gradient-15);}.cls-10{stroke-width:0.26px;fill:url(#linear-gradient-16);stroke:url(#linear-gradient-17);}.cls-11{stroke-width:0.29px;fill:url(#linear-gradient-18);stroke:url(#linear-gradient-19);}.cls-12{stroke-width:0.32px;fill:url(#linear-gradient-20);stroke:url(#linear-gradient-21);}.cls-13{stroke-width:0.35px;fill:url(#linear-gradient-22);stroke:url(#linear-gradient-23);}.cls-14{stroke-width:0.39px;fill:url(#linear-gradient-24);stroke:url(#linear-gradient-25);}.cls-15{stroke-width:0.42px;fill:url(#linear-gradient-26);stroke:url(#linear-gradient-27);}.cls-16{stroke-width:0.45px;fill:url(#linear-gradient-28);stroke:url(#linear-gradient-29);}.cls-17{stroke-width:0.48px;fill:url(#linear-gradient-30);stroke:url(#linear-gradient-31);}.cls-18{stroke-width:0.52px;fill:url(#linear-gradient-32);stroke:url(#linear-gradient-33);}.cls-19{stroke-width:0.55px;fill:url(#linear-gradient-34);stroke:url(#linear-gradient-35);}.cls-20{stroke-width:0.58px;fill:url(#linear-gradient-36);stroke:url(#linear-gradient-37);}.cls-21{stroke-width:0.61px;fill:url(#linear-gradient-38);stroke:url(#linear-gradient-39);}.cls-22{stroke-width:0.65px;fill:url(#linear-gradient-40);stroke:url(#linear-gradient-41);}.cls-23{stroke-width:0.68px;fill:url(#linear-gradient-42);stroke:url(#linear-gradient-43);}.cls-24{stroke-width:0.71px;fill:url(#linear-gradient-44);stroke:url(#linear-gradient-45);}.cls-25{stroke-width:0.74px;fill:url(#linear-gradient-46);stroke:url(#linear-gradient-47);}.cls-26{stroke-width:0.77px;fill:url(#linear-gradient-48);stroke:url(#linear-gradient-49);}.cls-27{stroke-width:0.81px;fill:url(#linear-gradient-50);stroke:url(#linear-gradient-51);}.cls-28{stroke-width:0.84px;fill:url(#linear-gradient-52);stroke:url(#linear-gradient-53);}.cls-29{stroke-width:0.87px;fill:url(#linear-gradient-54);stroke:url(#linear-gradient-55);}.cls-30{stroke-width:0.9px;fill:url(#linear-gradient-56);stroke:url(#linear-gradient-57);}.cls-31{stroke-width:0.94px;fill:url(#linear-gradient-58);stroke:url(#linear-gradient-59);}.cls-32{stroke-width:0.97px;fill:url(#linear-gradient-60);stroke:url(#linear-gradient-61);}.cls-33{fill:url(#linear-gradient-62);stroke:url(#linear-gradient-63);}.cls-34{opacity:0.63;fill:url(#linear-gradient-64);}.cls-35{opacity:0.55;fill:url(#linear-gradient-65);}.cls-36{opacity:0.34;}.cls-37,.cls-38,.cls-39,.cls-40,.cls-41,.cls-42,.cls-43,.cls-44,.cls-45,.cls-46,.cls-47,.cls-48,.cls-49,.cls-50,.cls-53,.cls-54,.cls-55,.cls-56,.cls-57,.cls-58,.cls-59,.cls-60,.cls-61,.cls-62,.cls-63,.cls-64,.cls-65,.cls-66,.cls-67{fill:none;}.cls-37{stroke:url(#linear-gradient-66);}.cls-38{stroke:url(#linear-gradient-67);}.cls-39{stroke:url(#linear-gradient-68);}.cls-40{stroke:url(#linear-gradient-69);}.cls-41{stroke:url(#linear-gradient-70);}.cls-42{stroke:url(#linear-gradient-71);}.cls-43{stroke:url(#linear-gradient-72);}.cls-44{stroke:url(#linear-gradient-73);}.cls-45{stroke:url(#linear-gradient-74);}.cls-46{stroke:url(#linear-gradient-75);}.cls-47{stroke:url(#linear-gradient-76);}.cls-48{stroke:url(#linear-gradient-77);}.cls-49{stroke:url(#linear-gradient-78);}.cls-50{stroke:url(#linear-gradient-79);}.cls-51{opacity:0.37;fill:url(#linear-gradient-80);}.cls-52{opacity:0.96;}.cls-53{stroke:#fff;}.cls-53,.cls-54,.cls-55,.cls-56,.cls-57,.cls-58,.cls-59,.cls-60,.cls-61,.cls-62,.cls-63,.cls-64,.cls-65,.cls-66,.cls-67{opacity:0.2;}.cls-54{stroke:url(#linear-gradient-81);}.cls-55{stroke:url(#linear-gradient-82);}.cls-56{stroke:url(#linear-gradient-83);}.cls-57{stroke:url(#linear-gradient-84);}.cls-58{stroke:url(#linear-gradient-85);}.cls-59{stroke:url(#linear-gradient-86);}.cls-60{stroke:url(#linear-gradient-87);}.cls-61{stroke:url(#linear-gradient-88);}.cls-62{stroke:url(#linear-gradient-89);}.cls-63{stroke:url(#linear-gradient-90);}.cls-64{stroke:url(#linear-gradient-91);}.cls-65{stroke:url(#linear-gradient-92);}.cls-66{stroke:url(#linear-gradient-93);}.cls-67{stroke:url(#linear-gradient-94);}</style><linearGradient id="linear-gradient" x1="-78.3" y1="313.54" x2="1077.02" y2="187.39" gradientTransform="translate(8.86 -17.26) rotate(2.01)" gradientUnits="userSpaceOnUse"><stop offset="0" stop-color="#d634b0"/><stop offset="0.01" stop-color="#d738b2"/><stop offset="0.03" stop-color="#d93fb4"/><stop offset="0.08" stop-color="#d941b5"/><stop offset="0.82" stop-color="#facf03"/><stop offset="1" stop-color="#fff092"/></linearGradient><linearGradient id="linear-gradient-2" x1="-76.53" y1="311.45" x2="1068.54" y2="190.48" xlink:href="#linear-gradient"/><linearGradient id="linear-gradient-3" x1="-19.97" y1="264.02" x2="858.04" y2="251.76" gradientUnits="userSpaceOnUse"><stop offset="0" stop-color="#fff"/><stop offset="0.97" stop-color="#d06faf" stop-opacity="0.9"/></linearGradient><linearGradient id="linear-gradient-4" x1="-74.75" y1="309.4" x2="1060.08" y2="193.54" xlink:href="#linear-gradient"/><linearGradient id="linear-gradient-5" x1="-19.93" y1="263.9" x2="856.99" y2="251.66" xlink:href="#linear-gradient-3"/><linearGradient id="linear-gradient-6" x1="-72.94" y1="307.41" x2="1051.66" y2="196.58" xlink:href="#linear-gradient"/><linearGradient id="linear-gradient-7" x1="-19.9" y1="263.81" x2="855.93" y2="251.58" xlink:href="#linear-gradient-3"/><linearGradient id="linear-gradient-8" x1="-71.11" y1="305.47" x2="1043.25" y2="199.6" xlink:href="#linear-gradient"/><linearGradient id="linear-gradient-9" x1="-19.87" y1="263.74" x2="854.88" y2="251.53" xlink:href="#linear-gradient-3"/><linearGradient id="linear-gradient-10" x1="-69.26" y1="303.59" x2="1034.88" y2="202.59" xlink:href="#linear-gradient"/><linearGradient id="linear-gradient-11" x1="-19.83" y1="263.71" x2="853.82" y2="251.51" xlink:href="#linear-gradient-3"/><linearGradient id="linear-gradient-12" x1="-67.39" y1="301.77" x2="1026.53" y2="205.57" xlink:href="#linear-gradient"/><linearGradient id="linear-gradient-13" x1="-19.8" y1="263.7" x2="852.77" y2="251.52" xlink:href="#linear-gradient-3"/><linearGradient id="linear-gradient-14" x1="-65.5" y1="300" x2="1018.21" y2="208.54" xlink:href="#linear-gradient"/><linearGradient id="linear-gradient-15" x1="-19.76" y1="263.73" x2="851.72" y2="251.56" xlink:href="#linear-gradient-3"/><linearGradient id="linear-gradient-16" x1="-63.59" y1="298.3" x2="1009.92" y2="211.49" xlink:href="#linear-gradient"/><linearGradient id="linear-gradient-17" x1="-19.73" y1="263.79" x2="850.66" y2="251.64" xlink:href="#linear-gradient-3"/><linearGradient id="linear-gradient-18" x1="-61.66" y1="296.67" x2="1001.65" y2="214.44" xlink:href="#linear-gradient"/><linearGradient id="linear-gradient-19" x1="-19.69" y1="263.9" x2="849.61" y2="251.76" xlink:href="#linear-gradient-3"/><linearGradient id="linear-gradient-20" x1="-59.7" y1="295.21" x2="993.42" y2="217.48" xlink:href="#linear-gradient"/><linearGradient id="linear-gradient-21" x1="-19.65" y1="264.16" x2="848.56" y2="252.04" xlink:href="#linear-gradient-3"/><linearGradient id="linear-gradient-22" x1="-57.74" y1="293.72" x2="985.21" y2="220.42" xlink:href="#linear-gradient"/><linearGradient id="linear-gradient-23" x1="-19.61" y1="264.37" x2="847.51" y2="252.26" xlink:href="#linear-gradient-3"/><linearGradient id="linear-gradient-24" x1="-55.75" y1="292.29" x2="977.03" y2="223.35" xlink:href="#linear-gradient"/><linearGradient id="linear-gradient-25" x1="-19.58" y1="264.63" x2="846.46" y2="252.54" xlink:href="#linear-gradient-3"/><linearGradient id="linear-gradient-26" x1="-53.75" y1="290.94" x2="968.88" y2="226.28" xlink:href="#linear-gradient"/><linearGradient id="linear-gradient-27" x1="-19.54" y1="264.95" x2="845.41" y2="252.87" xlink:href="#linear-gradient-3"/><linearGradient id="linear-gradient-28" x1="-51.73" y1="289.67" x2="960.75" y2="229.21" xlink:href="#linear-gradient"/><linearGradient id="linear-gradient-29" x1="-19.5" y1="265.32" x2="844.36" y2="253.26" xlink:href="#linear-gradient-3"/><linearGradient id="linear-gradient-30" x1="-49.69" y1="288.46" x2="952.64" y2="232.14" xlink:href="#linear-gradient"/><linearGradient id="linear-gradient-31" x1="-19.46" y1="265.75" x2="843.31" y2="253.71" xlink:href="#linear-gradient-3"/><linearGradient id="linear-gradient-32" x1="-47.64" y1="287.33" x2="944.57" y2="235.07" xlink:href="#linear-gradient"/><linearGradient id="linear-gradient-33" x1="-19.41" y1="266.25" x2="842.26" y2="254.22" xlink:href="#linear-gradient-3"/><linearGradient id="linear-gradient-34" x1="-45.57" y1="286.28" x2="936.52" y2="238" xlink:href="#linear-gradient"/><linearGradient id="linear-gradient-35" x1="-19.37" y1="266.8" x2="841.22" y2="254.79" xlink:href="#linear-gradient-3"/><linearGradient id="linear-gradient-36" x1="-43.49" y1="285.29" x2="928.49" y2="240.93" xlink:href="#linear-gradient"/><linearGradient id="linear-gradient-37" x1="-19.33" y1="267.41" x2="840.17" y2="255.41" xlink:href="#linear-gradient-3"/><linearGradient id="linear-gradient-38" x1="-41.4" y1="284.38" x2="920.5" y2="243.86" xlink:href="#linear-gradient"/><linearGradient id="linear-gradient-39" x1="-19.28" y1="268.08" x2="839.12" y2="256.09" xlink:href="#linear-gradient-3"/><linearGradient id="linear-gradient-40" x1="-39.3" y1="283.42" x2="912.52" y2="246.67" xlink:href="#linear-gradient"/><linearGradient id="linear-gradient-41" x1="-19.24" y1="268.69" x2="838.08" y2="256.72" xlink:href="#linear-gradient-3"/><linearGradient id="linear-gradient-42" x1="-37.18" y1="282.64" x2="904.57" y2="249.59" xlink:href="#linear-gradient"/><linearGradient id="linear-gradient-43" x1="-19.2" y1="269.45" x2="837.03" y2="257.49" xlink:href="#linear-gradient-3"/><linearGradient id="linear-gradient-44" x1="-35.05" y1="281.93" x2="896.65" y2="252.5" xlink:href="#linear-gradient"/><linearGradient id="linear-gradient-45" x1="-19.15" y1="270.25" x2="835.99" y2="258.31" xlink:href="#linear-gradient-3"/><linearGradient id="linear-gradient-46" x1="-32.91" y1="281.27" x2="888.75" y2="255.4" xlink:href="#linear-gradient"/><linearGradient id="linear-gradient-47" x1="-19.1" y1="271.09" x2="834.94" y2="259.17" xlink:href="#linear-gradient-3"/><linearGradient id="linear-gradient-48" x1="-30.76" y1="280.67" x2="880.87" y2="258.28" xlink:href="#linear-gradient"/><linearGradient id="linear-gradient-49" x1="-19.06" y1="271.96" x2="833.9" y2="260.05" xlink:href="#linear-gradient-3"/><linearGradient id="linear-gradient-50" x1="-28.6" y1="280.13" x2="873.02" y2="261.15" xlink:href="#linear-gradient"/><linearGradient id="linear-gradient-51" x1="-19.01" y1="272.84" x2="832.85" y2="260.95" xlink:href="#linear-gradient-3"/><linearGradient id="linear-gradient-52" x1="-26.44" y1="279.63" x2="865.19" y2="263.99" xlink:href="#linear-gradient"/><linearGradient id="linear-gradient-53" x1="-18.96" y1="273.75" x2="831.81" y2="261.87" xlink:href="#linear-gradient-3"/><linearGradient id="linear-gradient-54" x1="-24.26" y1="279.18" x2="857.38" y2="266.81" xlink:href="#linear-gradient"/><linearGradient id="linear-gradient-55" x1="-18.91" y1="274.67" x2="830.76" y2="262.8" xlink:href="#linear-gradient-3"/><linearGradient id="linear-gradient-56" x1="-22.08" y1="278.78" x2="849.6" y2="269.61" xlink:href="#linear-gradient"/><linearGradient id="linear-gradient-57" x1="-18.87" y1="275.59" x2="829.71" y2="263.75" xlink:href="#linear-gradient-3"/><linearGradient id="linear-gradient-58" x1="-19.89" y1="278.42" x2="841.84" y2="272.38" xlink:href="#linear-gradient"/><linearGradient id="linear-gradient-59" x1="-18.82" y1="276.53" x2="828.66" y2="264.69" xlink:href="#linear-gradient-3"/><linearGradient id="linear-gradient-60" x1="-17.69" y1="278.11" x2="834.11" y2="275.12" xlink:href="#linear-gradient"/><linearGradient id="linear-gradient-61" x1="-18.77" y1="277.46" x2="827.61" y2="265.64" xlink:href="#linear-gradient-3"/><linearGradient id="linear-gradient-62" x1="-15.49" y1="278.13" x2="826.4" y2="278.13" xlink:href="#linear-gradient"/><linearGradient id="linear-gradient-63" x1="-18.74" y1="278.39" x2="826.48" y2="266.58" xlink:href="#linear-gradient-3"/><linearGradient id="linear-gradient-64" y1="206.78" x2="883.2" y2="206.78" gradientTransform="translate(-18.78 28.69) rotate(-4.18)" gradientUnits="userSpaceOnUse"><stop offset="0" stop-color="#fff092"/><stop offset="0.34" stop-color="#f4ea4f"/><stop offset="0.49" stop-color="#f2ae7c"/><stop offset="0.63" stop-color="#f179a3"/><stop offset="0.74" stop-color="#f059bb"/><stop offset="0.8" stop-color="#f04dc4"/></linearGradient><linearGradient id="linear-gradient-65" x1="766.05" y1="301.35" x2="88.05" y2="295.35" gradientTransform="translate(-18.78 28.69) rotate(-4.18)" gradientUnits="userSpaceOnUse"><stop offset="0" stop-color="#f4ea4f"/><stop offset="0.28" stop-color="#facf03"/><stop offset="1" stop-color="#a705c2"/><stop offset="1" stop-color="#dc4fa0"/></linearGradient><linearGradient id="linear-gradient-66" x1="-83.97" y1="236.14" x2="848.22" y2="236.14" gradientTransform="translate(-3.36 5.82) rotate(-0.8)" xlink:href="#linear-gradient-3"/><linearGradient id="linear-gradient-67" x1="-83.97" y1="242.75" x2="848.22" y2="242.75" gradientTransform="translate(-3.36 5.82) rotate(-0.8)" xlink:href="#linear-gradient-3"/><linearGradient id="linear-gradient-68" x1="-83.96" y1="249.37" x2="848.21" y2="249.37" gradientTransform="translate(-3.36 5.82) rotate(-0.8)" xlink:href="#linear-gradient-3"/><linearGradient id="linear-gradient-69" x1="-83.96" y1="255.98" x2="848.21" y2="255.98" gradientTransform="translate(-3.36 5.82) rotate(-0.8)" xlink:href="#linear-gradient-3"/><linearGradient id="linear-gradient-70" x1="-83.95" y1="262.59" x2="848.2" y2="262.59" gradientTransform="translate(-3.36 5.82) rotate(-0.8)" xlink:href="#linear-gradient-3"/><linearGradient id="linear-gradient-71" x1="-83.95" y1="269.21" x2="848.2" y2="269.21" gradientTransform="translate(-3.36 5.82) rotate(-0.8)" xlink:href="#linear-gradient-3"/><linearGradient id="linear-gradient-72" x1="-83.95" y1="275.82" x2="848.19" y2="275.82" gradientTransform="translate(-3.36 5.82) rotate(-0.8)" xlink:href="#linear-gradient-3"/><linearGradient id="linear-gradient-73" x1="-83.95" y1="282.43" x2="848.18" y2="282.43" gradientTransform="translate(-3.36 5.82) rotate(-0.8)" xlink:href="#linear-gradient-3"/><linearGradient id="linear-gradient-74" x1="-83.94" y1="289.05" x2="848.17" y2="289.05" gradientTransform="translate(-3.36 5.82) rotate(-0.8)" xlink:href="#linear-gradient-3"/><linearGradient id="linear-gradient-75" x1="-83.94" y1="295.66" x2="848.16" y2="295.66" gradientTransform="translate(-3.36 5.82) rotate(-0.8)" xlink:href="#linear-gradient-3"/><linearGradient id="linear-gradient-76" x1="-83.94" y1="302.27" x2="848.15" y2="302.27" gradientTransform="translate(-3.36 5.82) rotate(-0.8)" xlink:href="#linear-gradient-3"/><linearGradient id="linear-gradient-77" x1="-83.93" y1="308.89" x2="848.14" y2="308.89" gradientTransform="translate(-3.36 5.82) rotate(-0.8)" xlink:href="#linear-gradient-3"/><linearGradient id="linear-gradient-78" x1="-83.93" y1="313.4" x2="848.12" y2="313.4" gradientTransform="translate(-3.36 5.82) rotate(-0.8)" xlink:href="#linear-gradient-3"/><linearGradient id="linear-gradient-79" x1="-83.93" y1="318.85" x2="848.1" y2="318.85" gradientTransform="translate(-3.36 5.82) rotate(-0.8)" xlink:href="#linear-gradient-3"/><linearGradient id="linear-gradient-80" x1="-28.84" y1="310.86" x2="419.16" y2="336.86" gradientTransform="translate(-18.78 28.69) rotate(-4.18)" gradientUnits="userSpaceOnUse"><stop offset="0" stop-color="#fff"/><stop offset="0" stop-color="#f8dcf2"/><stop offset="0.01" stop-color="#f1b8e3"/><stop offset="0.01" stop-color="#ea98d7"/><stop offset="0.02" stop-color="#e57ccc"/><stop offset="0.02" stop-color="#e066c4"/><stop offset="0.03" stop-color="#dd55bd"/><stop offset="0.04" stop-color="#db4ab8"/><stop offset="0.05" stop-color="#d943b6"/><stop offset="0.08" stop-color="#d941b5"/><stop offset="0.82" stop-color="#facf03"/><stop offset="1" stop-color="#fff092"/></linearGradient><linearGradient id="linear-gradient-81" x1="-6.85" y1="184.58" x2="835.35" y2="184.58" gradientTransform="translate(-18.78 28.69) rotate(-4.18)" gradientUnits="userSpaceOnUse"><stop offset="0" stop-color="#fff"/><stop offset="0.22" stop-color="#d06faf" stop-opacity="0.9"/></linearGradient><linearGradient id="linear-gradient-82" x1="-6.85" y1="187.1" x2="835.35" y2="187.1" xlink:href="#linear-gradient-81"/><linearGradient id="linear-gradient-83" x1="-6.84" y1="189.67" x2="835.35" y2="189.67" xlink:href="#linear-gradient-81"/><linearGradient id="linear-gradient-84" x1="-6.84" y1="192.18" x2="835.35" y2="192.18" xlink:href="#linear-gradient-81"/><linearGradient id="linear-gradient-85" x1="-6.83" y1="194.68" x2="835.35" y2="194.68" xlink:href="#linear-gradient-81"/><linearGradient id="linear-gradient-86" x1="-6.83" y1="197.17" x2="835.35" y2="197.17" xlink:href="#linear-gradient-81"/><linearGradient id="linear-gradient-87" x1="-6.82" y1="199.8" x2="835.35" y2="199.8" xlink:href="#linear-gradient-81"/><linearGradient id="linear-gradient-88" x1="-6.82" y1="202.09" x2="835.35" y2="202.09" xlink:href="#linear-gradient-81"/><linearGradient id="linear-gradient-89" x1="-6.82" y1="204.53" x2="835.35" y2="204.53" xlink:href="#linear-gradient-81"/><linearGradient id="linear-gradient-90" x1="-6.82" y1="206.95" x2="835.35" y2="206.95" xlink:href="#linear-gradient-81"/><linearGradient id="linear-gradient-91" x1="-6.81" y1="209.35" x2="835.35" y2="209.35" xlink:href="#linear-gradient-81"/><linearGradient id="linear-gradient-92" x1="-6.81" y1="211.74" x2="835.35" y2="211.74" xlink:href="#linear-gradient-81"/><linearGradient id="linear-gradient-93" x1="-6.81" y1="214.1" x2="835.35" y2="214.1" xlink:href="#linear-gradient-81"/><linearGradient id="linear-gradient-94" x1="-6.8" y1="216.47" x2="835.35" y2="216.47" xlink:href="#linear-gradient-81"/></defs><g class="cls-1"><path class="cls-2" d="M-19.43,238.56S118.4,109.05,363.36,211.51c184.2,77.05,417.14,99.68,494.58-43l-7.2,100.64s-138.4,103.11-327.3,68.47S252,203-20.09,257.55Z" transform="translate(82.88 -140.31)"/><path class="cls-3" d="M856.9,171.61l-7,97.68c-6.11,3-145,101.11-333.44,65.75S243.28,206.26-20,259l.72-20.54s138.44-126.89,383.47-25C550.4,290.83,782,309.68,856.9,171.61Z" transform="translate(82.88 -140.31)"/><path class="cls-4" d="M855.87,174.7l-6.76,94.73c-12.22,6-151.69,99.1-339.58,63s-275-123-529.48-72l.78-22.08S119.88,114.1,365,215.48C553.24,293.09,783.43,308.17,855.87,174.7Z" transform="translate(82.88 -140.31)"/><path class="cls-5" d="M854.84,177.79l-6.54,91.77C830,278.51,690,366.66,502.58,329.85S225.87,212.7-19.88,261.93L-19,238.3s139.67-121.67,384.83-20.83C556.08,295.35,784.89,306.66,854.84,177.79Z" transform="translate(82.88 -140.31)"/><path class="cls-6" d="M853.8,180.88l-6.31,88.82c-24.45,11.92-165,95.09-351.86,57.55S217.17,215.92-19.8,263.39l.88-25.18s140.28-119.06,385.51-18.76C558.92,297.62,786.36,305.15,853.8,180.88Z" transform="translate(82.88 -140.31)"/><path class="cls-7" d="M852.77,184l-6.09,85.86c-30.56,14.91-171.64,93.09-358,54.83S208.46,219.14-19.73,264.85l.93-26.72s140.9-116.45,386.2-16.69C561.76,299.88,787.82,303.63,852.77,184Z" transform="translate(82.88 -140.31)"/><path class="cls-8" d="M851.74,187.07,845.87,270c-36.67,17.89-178.3,91.08-364.14,52.09s-282-99.7-501.39-55.75l1-28.27s141.5-113.84,386.88-14.62C564.6,302.15,789.29,302.12,851.74,187.07Z" transform="translate(82.88 -140.31)"/><path class="cls-9" d="M850.7,190.16l-5.64,79.94C802.27,291,660.11,359.18,474.78,319.47s-283.73-93.9-494.37-51.7L-18.54,238S123.57,126.73,369,225.41C567.44,304.41,790.75,300.61,850.7,190.16Z" transform="translate(82.88 -140.31)"/><path class="cls-10" d="M849.67,193.25l-5.42,77c-48.9,23.85-191.6,87.07-376.42,46.64S182.35,228.79-19.51,269.23l1.09-31.36s142.73-108.62,388.25-10.48C570.28,306.67,792.21,299.1,849.67,193.25Z" transform="translate(82.88 -140.31)"/><path class="cls-11" d="M848.64,196.34l-5.21,74c-55,26.83-198.24,85.07-382.56,43.91S173.64,232-19.44,270.69l1.15-32.91s143.34-106,388.93-8.41C573.12,308.94,793.68,297.59,848.64,196.34Z" transform="translate(82.88 -140.31)"/><path class="cls-12" d="M847.6,199.43l-5,71.08c-61.11,29.81-204.89,83.06-388.7,41.18s-289-76.46-473.29-39.54l1.21-34.46s143.75-102.89,389.61-6.33C575.8,311.61,795.14,296.08,847.6,199.43Z" transform="translate(82.88 -140.31)"/><path class="cls-13" d="M846.57,202.52l-4.76,68.12C774.58,303.44,630.27,351.7,447,309.09S156.24,238.45-19.3,273.62l1.26-36s144.36-100.27,390.3-4.27C578.63,313.9,796.61,294.57,846.57,202.52Z" transform="translate(82.88 -140.31)"/><path class="cls-14" d="M845.54,205.61,841,270.78c-73.34,35.77-218.19,79.05-401,35.72S147.53,241.67-19.23,275.08l1.32-37.56s145-97.64,391-2.19C581.46,316.18,798.07,293.06,845.54,205.61Z" transform="translate(82.88 -140.31)"/><path class="cls-15" d="M844.5,208.7l-4.31,62.21c-79.45,38.76-224.84,77-407.12,33s-294.24-59-452.22-27.36l1.37-39.11s145.57-95,391.66-.12C584.3,318.46,799.54,291.55,844.5,208.7Z" transform="translate(82.88 -140.31)"/><path class="cls-16" d="M843.47,211.8l-4.09,59.25c-85.57,41.74-231.49,75-413.26,30.26s-296-53.2-445.2-23.31l1.42-40.66s146.19-92.39,392.35,2C587.14,320.73,801,290,843.47,211.8Z" transform="translate(82.88 -140.31)"/><path class="cls-17" d="M842.44,214.89l-3.87,56.29c-91.68,44.72-238.14,73-419.4,27.54S121.42,251.32-19,279.46l1.48-42.2s146.8-89.79,393,4C590,323,802.47,288.52,842.44,214.89Z" transform="translate(82.88 -140.31)"/><path class="cls-18" d="M841.4,218l-3.64,53.34C740,319,593,342.35,412.22,296.12s-299.51-41.58-431.16-15.2l1.54-43.75S130,150,376.3,243.27C592.82,325.26,803.93,287,841.4,218Z" transform="translate(82.88 -140.31)"/><path class="cls-19" d="M840.37,221.07,837,271.45c-103.9,50.69-251.44,69-431.69,22.08S104,257.76-18.86,282.38l1.58-45.3s148-84.57,394.39,8.17C595.66,327.52,805.4,285.5,840.37,221.07Z" transform="translate(82.88 -140.31)"/><path class="cls-20" d="M839.34,224.16l-3.21,47.43c-110,53.66-258.09,67-437.82,19.34s-303-29.95-417.1-7.09L-17.15,237s148.65-82,395.07,10.24C598.5,329.78,806.86,284,839.34,224.16Z" transform="translate(82.88 -140.31)"/><path class="cls-21" d="M838.3,227.25l-3,44.47c-116.12,56.65-264.74,65-444,16.62S86.6,264.2-18.72,285.3l1.7-48.39s149.26-79.38,395.75,12.31C601.35,332,808.33,282.48,838.3,227.25Z" transform="translate(82.88 -140.31)"/><path class="cls-22" d="M837.27,230.34l-2.76,41.52c-122.23,59.62-271.39,63-450.1,13.88s-306.51-18.32-403.06,1l1.75-49.94s150.07-77.27,396.44,14.38C604.35,333.84,809.79,281,837.27,230.34Z" transform="translate(82.88 -140.31)"/><path class="cls-23" d="M836.24,233.43,833.7,272c-128.35,62.61-278,61-456.24,11.16s-308.27-12.51-396,5.07l1.8-51.48s150.68-74.66,397.12,16.45C607.19,336.1,811.26,279.46,836.24,233.43Z" transform="translate(82.88 -140.31)"/><path class="cls-24" d="M835.2,236.53l-2.31,35.6c-134.46,65.59-284.69,59-462.38,8.42s-310-6.69-389,9.13l1.86-53s151.29-72.05,397.8,18.52C610,338.37,812.72,278,835.2,236.53Z" transform="translate(82.88 -140.31)"/><path class="cls-25" d="M834.17,239.62l-2.09,32.64c-140.57,68.57-291.34,57-468.52,5.7s-311.78-.88-382,13.18l1.91-54.58s151.9-69.43,398.49,20.6C612.87,340.63,814.19,276.44,834.17,239.62Z" transform="translate(82.88 -140.31)"/><path class="cls-26" d="M833.14,242.71l-1.87,29.69c-146.68,71.55-298,55-474.66,3s-313.53,4.92-375,17.23l2-56.12s152.51-66.83,399.17,22.66C615.71,342.89,815.65,274.92,833.14,242.71Z" transform="translate(82.88 -140.31)"/><path class="cls-27" d="M832.1,245.8l-1.64,26.73c-152.8,74.54-304.64,53-480.81.24S34.38,283.51-18.28,294.06l2-57.67s153.12-64.21,399.85,24.74C618.55,345.16,817.12,273.41,832.1,245.8Z" transform="translate(82.88 -140.31)"/><path class="cls-28" d="M831.07,248.89l-1.43,23.78c-158.9,77.51-311.28,51-486.94-2.49s-317,16.55-360.91,25.34l2.07-59.22S137.6,174.7,384.4,263.11C621.39,347.42,818.58,271.9,831.07,248.89Z" transform="translate(82.88 -140.31)"/><path class="cls-29" d="M830,252l-1.21,20.82c-165,80.5-317.93,49-493.08-5.22S17,290-18.14,297L-16,236.21s154.35-59,401.21,28.89C624.23,349.69,820,270.39,830,252Z" transform="translate(82.88 -140.31)"/><path class="cls-30" d="M829,255.07l-1,17.87c-171.13,83.47-324.58,47-499.22-7.95S8.26,293.17-18.07,298.44l2.19-62.31s155-56.38,401.89,30.95C627.07,352,821.51,268.88,829,255.07Z" transform="translate(82.88 -140.31)"/><path class="cls-31" d="M828,258.16l-.76,14.91C650,359.53,496,318,321.85,262.39S-.44,296.39-18,299.9L-15.76,236s155.57-53.76,402.58,33C629.91,354.21,823,267.37,828,258.16Z" transform="translate(82.88 -140.31)"/><path class="cls-32" d="M826.94,261.26l-.54,11.95c-183.35,89.44-337.89,43-511.5-13.41s-324,39.81-332.82,41.57L-15.63,236s156.18-51.15,403.26,35.1C632.75,356.48,824.44,265.86,826.94,261.26Z" transform="translate(82.88 -140.31)"/><path class="cls-33" d="M825.9,264.35S635.59,358.74,388.44,273-15.5,235.87-15.5,235.87l-2.35,67S134.84,200.11,308,257.21s328.18,108.55,517.64,16.13Z" transform="translate(82.88 -140.31)"/></g><path class="cls-34" d="M-5.67,208.21s153-88.38,309.21-49.66,236.44,100,425.73,63.14c98.86-19.25,146.86-64.86,146.86-64.86h0s-144.38,168.72-419,72.72C170,129.2-4,231.15-4,231.15Z" transform="translate(82.88 -140.31)"/><path class="cls-35" d="M1,299s99.19-67.21,240.51-56.68c156.27,11.65,357.74,137.3,602.72,44.2l1.38,18.95s-105.2,81.89-343.63,16.08C273,258.34,160.76,290.3,5.34,358.81Z" transform="translate(82.88 -140.31)"/><g class="cls-36"><path class="cls-37" d="M-82.63,325.07s185.52-108.6,447.05-83.25,353,16.08,482.2-93.74" transform="translate(82.88 -140.31)"/><path class="cls-38" d="M-82.6,327.07s188.92-108.49,448.72-79.73,355.06,16.2,480.66-88" transform="translate(82.88 -140.31)"/><path class="cls-39" d="M-82.57,329.07s192.33-108.39,450.38-76.22,357.11,16.33,479.12-82.31" transform="translate(82.88 -140.31)"/><path class="cls-40" d="M-82.54,331.07s195.73-108.28,452.05-72.7,359.15,16.45,477.58-76.6" transform="translate(82.88 -140.31)"/><path class="cls-41" d="M-82.52,333.07S116.63,224.9,371.2,263.88,732.4,280.46,847.25,193" transform="translate(82.88 -140.31)"/><path class="cls-42" d="M-82.49,335.07S120.06,227,372.89,269.4s363.25,16.7,474.51-65.17" transform="translate(82.88 -140.31)"/><path class="cls-43" d="M-82.46,337.07s206-108,457.05-62.15,365.29,16.82,473-59.46" transform="translate(82.88 -140.31)"/><path class="cls-44" d="M-82.43,339.07s209.36-107.86,458.71-58.64,367.34,16.95,471.44-53.74" transform="translate(82.88 -140.31)"/><path class="cls-45" d="M-82.41,341.07S130.36,233.32,378,286s369.37,17.07,469.89-48" transform="translate(82.88 -140.31)"/><path class="cls-46" d="M-82.38,343.07S133.8,235.43,379.67,291.46,751.09,308.66,848,249.15" transform="translate(82.88 -140.31)"/><path class="cls-47" d="M-82.35,345.07S137.23,237.53,381.37,297s373.46,17.32,466.82-36.6" transform="translate(82.88 -140.31)"/><path class="cls-48" d="M-82.32,347.07s223-107.43,465.38-44.58,375.51,17.45,465.28-30.88" transform="translate(82.88 -140.31)"/><path class="cls-49" d="M-82.29,349.07S144.1,241.75,384.76,308s377.55,17.57,463.74-25.17" transform="translate(82.88 -140.31)"/><path class="cls-50" d="M-82.27,351.07s229.81-107.22,468.72-37.55,379.6,17.7,462.21-19.45" transform="translate(82.88 -140.31)"/></g><path class="cls-51" d="M-8.65,379S44,345.58,180.68,308C398.88,247.91,568.46,428,824.59,229.84l2.18,29.92S701,362.2,519.72,337.34C284.41,305.08,251,254.7-4.28,438.79Z" transform="translate(82.88 -140.31)"/><g class="cls-52"><path class="cls-53" d="M-4,230.81s130.44-90.24,362.16-15.44c279,90.05,288.46,58.15,482.59,23.92" transform="translate(82.88 -140.31)"/><path class="cls-53" d="M-3.82,233.5S80.67,175,235.05,189.26c38.18,3.52,79.13,11.57,123.26,25.74C462.62,248.5,528.92,266.68,586,272.74c90,9.52,144.59-11.15,255-30.61" transform="translate(82.88 -140.31)"/><path class="cls-53" d="M-3.62,236.18S80.57,177.82,235,189.9c39.27,3.07,80.09,10.89,123.45,24.73,101.48,32.43,166.7,52.18,227.43,58.92C680.3,284,740,262.81,841.15,245" transform="translate(82.88 -140.31)"/><path class="cls-53" d="M-3.43,238.87S80.49,180.55,235,190.53c40.38,2.61,81,10.22,123.66,23.73,98.64,31.35,162.78,52.68,227.19,60.1C684.63,285.64,749.37,264,841.36,247.8" transform="translate(82.88 -140.31)"/><path class="cls-53" d="M-3.23,241.56s83.64-58.34,238.15-50.39c41.49,2.13,82,9.53,123.85,22.72,95.81,30.28,158.86,53.18,227,61.28,103.21,12.15,173-9.93,255.83-24.53" transform="translate(82.88 -140.31)"/><path class="cls-53" d="M-3,244.24s83.37-58.4,237.91-52.43a469.45,469.45,0,0,1,124.05,21.71c93,29.21,154.94,53.68,226.73,62.46,107.62,13,182.53-9.52,256.12-22.5" transform="translate(82.88 -140.31)"/><path class="cls-53" d="M-2.84,246.93s83.11-58.52,237.68-54.49a450.74,450.74,0,0,1,124.24,20.71c90.15,28.13,151,54.19,226.5,63.64,112,13.9,192-9.12,256.4-20.47" transform="translate(82.88 -140.31)"/><path class="cls-53" d="M-2.64,249.61s82.84-58.69,237.43-56.53a433.48,433.48,0,0,1,124.45,19.7c87.31,27.06,147.1,54.69,226.26,64.82,116.43,14.78,201.5-8.71,256.69-18.44" transform="translate(82.88 -140.31)"/><path class="cls-53" d="M-2.44,252.3s82.58-57.09,237.19-58.58c45.91-.45,85.85,6.81,124.64,18.69,84.48,26,143.19,55.19,226,66,120.83,15.66,211-8.3,257-16.42" transform="translate(82.88 -140.31)"/><path class="cls-53" d="M-2.25,255s82.31-59.15,237-60.63c47-.45,86.8,6.14,124.84,17.69C441.2,237,498.82,267.73,585.34,279.22c125.24,16.53,220.47-7.9,257.26-14.39" transform="translate(82.88 -140.31)"/><path class="cls-53" d="M-2,257.67S80,198.22,234.66,195c48.13-1,87.77,5.45,125,16.68C438.52,235.5,495.05,267.86,585.26,280c129.64,17.41,230-7.49,257.55-12.36" transform="translate(82.88 -140.31)"/><path class="cls-53" d="M-1.86,260.35s81.77-59.77,236.48-64.72c49.23-1.58,88.73,4.77,125.24,15.67,76,22.76,131.43,56.69,225.33,69.54,134,18.29,239.43-7.09,257.83-10.33" transform="translate(82.88 -140.31)"/><path class="cls-53" d="M-1.66,263s81.47-60.38,236.24-66.78c50.33-2.24,89.68,4.1,125.44,14.67,73.14,21.68,127.51,57.19,225.09,70.72C723.55,300.81,834,275,843.23,273.35" transform="translate(82.88 -140.31)"/><path class="cls-53" d="M-1.46,265.72s81.19-60.52,236-68.82S433.38,261.19,585,282.46c142.85,20,258.4-6.27,258.4-6.27" transform="translate(82.88 -140.31)"/></g><g class="cls-52"><path class="cls-54" d="M-13.32,194s133.58-93,369.58-33,281,75.72,475.17,41.49" transform="translate(82.88 -140.31)"/><path class="cls-55" d="M-13.12,196.66s87.88-60.18,246.19-52.85a628.49,628.49,0,0,1,123.5,18.12c98.1,24.26,163,42.15,223.28,52.18,82.61,13.81,148.67,9.36,251.79-8.82" transform="translate(82.88 -140.31)"/><path class="cls-56" d="M-12.93,199.35s88.18-59,246.21-53.37a621.77,621.77,0,0,1,123.6,16.93c96,23.06,160,41.34,223.2,52.33,87.46,15.31,157.24,9.56,251.77-7.11" transform="translate(82.88 -140.31)"/><path class="cls-57" d="M-12.73,202s88.48-58.09,246.22-53.89a616.22,616.22,0,0,1,123.7,15.74c93.92,21.86,157.07,40.54,223.13,52.49,92.3,16.81,165.8,9.75,251.74-5.41" transform="translate(82.88 -140.31)"/><path class="cls-58" d="M-12.53,204.72S76.25,147.5,233.7,150.3a611.7,611.7,0,0,1,123.8,14.56c91.83,20.66,154.1,39.73,223.06,52.64,97.14,18.31,174.36,9.94,251.7-3.7" transform="translate(82.88 -140.31)"/><path class="cls-59" d="M-12.34,207.4S76.76,151,233.91,152.47a608.29,608.29,0,0,1,123.9,13.36c89.73,19.46,151.13,38.94,223,52.79,102,19.82,182.93,10.14,251.67-2" transform="translate(82.88 -140.31)"/><path class="cls-60" d="M-12.14,210.09s89.41-54.23,246.26-55.46a582.37,582.37,0,0,1,124,12.17c87.64,18.27,148.17,38.14,222.92,52.95,106.82,21.32,191.49,10.34,251.64-.27" transform="translate(82.88 -140.31)"/><path class="cls-61" d="M-11.94,212.77s89.71-54.82,246.27-56c44.26-.32,84.48,3.17,124.1,11,85.55,17.06,145.2,37.33,222.85,53.1,111.65,22.82,200.05,10.53,251.61,1.44" transform="translate(82.88 -140.31)"/><path class="cls-62" d="M-11.75,215.46s90-54.09,246.29-56.5c45.26-.7,85.33,2.48,124.2,9.79C442.2,184.62,501,205.28,581.52,222c116.49,24.33,208.61,10.73,251.57,3.16" transform="translate(82.88 -140.31)"/><path class="cls-63" d="M-11.55,218.14s90.33-53.38,246.29-57c46.27-1.08,86.2,1.81,124.31,8.61,81.37,14.67,139.27,35.72,222.71,53.4C703.09,249,798.93,234.06,833.3,228" transform="translate(82.88 -140.31)"/><path class="cls-64" d="M-11.36,220.83S79.28,168.13,235,163.29c47.26-1.47,87.06,1.13,124.41,7.41,79.28,13.47,136.3,34.92,222.64,53.56,126.17,27.32,225.73,11.12,251.51,6.57" transform="translate(82.88 -140.31)"/><path class="cls-65" d="M-11.16,223.51s90.94-52,246.32-58.06c48.26-1.87,87.91.45,124.51,6.22C436.85,184,493,205.79,582.24,225.38c131,28.83,234.29,11.32,251.48,8.29" transform="translate(82.88 -140.31)"/><path class="cls-66" d="M-11,226.2s91.23-51.59,246.33-58.59c49.25-2.33,88.77-.22,124.61,5,75.09,11.07,130.37,33.31,222.5,53.86,135.85,30.33,242.85,11.52,251.44,10" transform="translate(82.88 -140.31)"/><path class="cls-67" d="M-10.77,228.88s91.54-50.8,246.35-59.1,206.45,26,347.14,57.86,251.41,11.71,251.41,11.71" transform="translate(82.88 -140.31)"/></g></svg>