<svg id="Livello_1" data-name="Livello 1" xmlns="http://www.w3.org/2000/svg" xmlns:xlink="http://www.w3.org/1999/xlink" viewBox="0 0 1080.68 1092.04"><defs><style>.cls-1{fill:url(#linear-gradient);}.cls-2{fill:url(#linear-gradient-2);}.cls-3{fill:url(#linear-gradient-3);}.cls-4{fill:url(#linear-gradient-4);}.cls-5{fill:url(#linear-gradient-5);}.cls-6{fill:url(#linear-gradient-6);}.cls-7{fill:url(#linear-gradient-7);}.cls-8{fill:url(#linear-gradient-8);}.cls-9{fill:url(#linear-gradient-9);}.cls-10{fill:url(#linear-gradient-10);}.cls-11{fill:url(#linear-gradient-11);}.cls-12{fill:url(#linear-gradient-12);}.cls-13{fill:url(#linear-gradient-13);}.cls-14{fill:url(#linear-gradient-14);}.cls-15{fill:url(#linear-gradient-15);}.cls-16{fill:url(#linear-gradient-16);}.cls-17{fill:url(#linear-gradient-17);}.cls-18{fill:url(#linear-gradient-18);}.cls-19{fill:url(#linear-gradient-19);}.cls-20{fill:url(#linear-gradient-20);}.cls-21{fill:url(#linear-gradient-21);}.cls-22{fill:url(#linear-gradient-22);}.cls-23{fill:url(#linear-gradient-23);}.cls-24{fill:url(#linear-gradient-24);}.cls-25{fill:url(#linear-gradient-25);}.cls-26{fill:url(#linear-gradient-26);}.cls-27{fill:url(#linear-gradient-27);}.cls-28{fill:url(#linear-gradient-28);}.cls-29{fill:url(#linear-gradient-29);}.cls-30{fill:url(#linear-gradient-30);}.cls-31{fill:url(#linear-gradient-31);}.cls-32{fill:url(#linear-gradient-32);}.cls-33{fill:url(#linear-gradient-33);}.cls-34{fill:url(#linear-gradient-34);}.cls-35{fill:url(#linear-gradient-35);}.cls-36{fill:url(#linear-gradient-36);}.cls-37{fill:url(#linear-gradient-37);}.cls-38{fill:url(#linear-gradient-38);}.cls-39{fill:url(#linear-gradient-39);}.cls-40{fill:url(#linear-gradient-40);}.cls-41{fill:url(#linear-gradient-41);}.cls-42{fill:url(#linear-gradient-42);}.cls-43{fill:url(#linear-gradient-43);}.cls-44{fill:url(#linear-gradient-44);}.cls-45{fill:url(#linear-gradient-45);}.cls-46{fill:url(#linear-gradient-46);}.cls-47{fill:url(#linear-gradient-47);}.cls-48{fill:url(#linear-gradient-48);}.cls-49{fill:url(#linear-gradient-49);}.cls-50{fill:url(#linear-gradient-50);}.cls-51{fill:url(#linear-gradient-51);}.cls-52{fill:url(#linear-gradient-52);}.cls-53{fill:url(#linear-gradient-53);}.cls-54{fill:url(#linear-gradient-54);}.cls-55{fill:url(#linear-gradient-55);}.cls-56{fill:url(#linear-gradient-56);}.cls-57{fill:url(#linear-gradient-57);}.cls-58{fill:url(#linear-gradient-58);}.cls-59{fill:url(#linear-gradient-59);}.cls-60{fill:url(#linear-gradient-60);}.cls-61{fill:url(#linear-gradient-61);}.cls-62{fill:url(#linear-gradient-62);}.cls-63{fill:url(#linear-gradient-63);}.cls-64{fill:url(#linear-gradient-64);}.cls-65{fill:url(#linear-gradient-65);}.cls-66{fill:url(#linear-gradient-66);}.cls-67{fill:url(#linear-gradient-67);}.cls-68{fill:url(#linear-gradient-68);}.cls-69{fill:url(#linear-gradient-69);}.cls-70{fill:url(#linear-gradient-70);}.cls-71{fill:url(#linear-gradient-71);}.cls-72{fill:url(#linear-gradient-72);}.cls-73{fill:url(#linear-gradient-73);}.cls-74{fill:url(#linear-gradient-74);}.cls-75{fill:url(#linear-gradient-75);}.cls-76{fill:url(#linear-gradient-76);}.cls-77{fill:url(#linear-gradient-77);}.cls-78{fill:url(#linear-gradient-78);}.cls-79{fill:url(#linear-gradient-79);}.cls-80{fill:url(#linear-gradient-80);}.cls-81{fill:url(#linear-gradient-81);}.cls-101,.cls-102,.cls-103,.cls-104,.cls-105,.cls-106,.cls-107,.cls-108,.cls-109,.cls-110,.cls-111,.cls-112,.cls-113,.cls-114,.cls-82,.cls-83,.cls-99{isolation:isolate;}.cls-82{opacity:0.63;fill:url(#linear-gradient-82);}.cls-83{opacity:0.55;fill:url(#linear-gradient-83);}.cls-84{opacity:0.34;}.cls-101,.cls-102,.cls-103,.cls-104,.cls-105,.cls-106,.cls-107,.cls-108,.cls-109,.cls-110,.cls-111,.cls-112,.cls-113,.cls-114,.cls-85,.cls-86,.cls-87,.cls-88,.cls-89,.cls-90,.cls-91,.cls-92,.cls-93,.cls-94,.cls-95,.cls-96,.cls-97,.cls-98{fill:none;}.cls-85{stroke:url(#linear-gradient-84);}.cls-86{stroke:url(#linear-gradient-85);}.cls-87{stroke:url(#linear-gradient-86);}.cls-88{stroke:url(#linear-gradient-87);}.cls-89{stroke:url(#linear-gradient-88);}.cls-90{stroke:url(#linear-gradient-89);}.cls-91{stroke:url(#linear-gradient-90);}.cls-92{stroke:url(#linear-gradient-91);}.cls-93{stroke:url(#linear-gradient-92);}.cls-94{stroke:url(#linear-gradient-93);}.cls-95{stroke:url(#linear-gradient-94);}.cls-96{stroke:url(#linear-gradient-95);}.cls-97{stroke:url(#linear-gradient-96);}.cls-98{stroke:url(#linear-gradient-97);}.cls-99{opacity:0.37;fill:url(#linear-gradient-98);}.cls-100{opacity:0.96;}.cls-101,.cls-102,.cls-103,.cls-104,.cls-105,.cls-106,.cls-107,.cls-108,.cls-109,.cls-110,.cls-111,.cls-112,.cls-113,.cls-114{opacity:0.2;}.cls-101{stroke:url(#linear-gradient-99);}.cls-102{stroke:url(#linear-gradient-100);}.cls-103{stroke:url(#linear-gradient-101);}.cls-104{stroke:url(#linear-gradient-102);}.cls-105{stroke:url(#linear-gradient-103);}.cls-106{stroke:url(#linear-gradient-104);}.cls-107{stroke:url(#linear-gradient-105);}.cls-108{stroke:url(#linear-gradient-106);}.cls-109{stroke:url(#linear-gradient-107);}.cls-110{stroke:url(#linear-gradient-108);}.cls-111{stroke:url(#linear-gradient-109);}.cls-112{stroke:url(#linear-gradient-110);}.cls-113{stroke:url(#linear-gradient-111);}.cls-114{stroke:url(#linear-gradient-112);}</style><linearGradient id="linear-gradient" x1="7236.57" y1="6875.27" x2="7239.28" y2="6875.56" gradientTransform="matrix(1, -0.07, -0.07, -1, 64.06, -112.66)" gradientUnits="userSpaceOnUse"><stop offset="0" stop-color="#ffe600"/><stop offset="0.28" stop-color="#ff9503"/><stop offset="0.65" stop-color="#c20092"/><stop offset="1" stop-color="#2c63ff"/></linearGradient><linearGradient id="linear-gradient-2" x1="7783.75" y1="6804.88" x2="7783.75" y2="6804.88" xlink:href="#linear-gradient"/><linearGradient id="linear-gradient-3" x1="8078.28" y1="6875.72" x2="8081.42" y2="6876.06" xlink:href="#linear-gradient"/><linearGradient id="linear-gradient-4" x1="7497.75" y1="6917.88" x2="7497.75" y2="6917.88" xlink:href="#linear-gradient"/><linearGradient id="linear-gradient-5" x1="7776.6" y1="6806.99" x2="7776.6" y2="6806.99" gradientTransform="matrix(1, -0.07, -0.07, -1, 64.06, -112.66)" gradientUnits="userSpaceOnUse"><stop offset="0" stop-color="#ffe605"/><stop offset="0.28" stop-color="#ff9703"/><stop offset="0.65" stop-color="#c10094"/><stop offset="1" stop-color="#2c66ff"/></linearGradient><linearGradient id="linear-gradient-6" x1="8078.36" y1="6875.72" x2="8081.3" y2="6876.03" xlink:href="#linear-gradient-5"/><linearGradient id="linear-gradient-7" x1="7502.43" y1="6915.89" x2="7502.43" y2="6915.89" xlink:href="#linear-gradient-5"/><linearGradient id="linear-gradient-8" x1="7236.53" y1="6874.3" x2="7239.33" y2="6874.59" xlink:href="#linear-gradient-5"/><linearGradient id="linear-gradient-9" x1="7236.49" y1="6873.31" x2="7239.38" y2="6873.6" gradientTransform="matrix(1, -0.07, -0.07, -1, 64.06, -112.66)" gradientUnits="userSpaceOnUse"><stop offset="0" stop-color="#ffe709"/><stop offset="0.28" stop-color="#ff9903"/><stop offset="0.65" stop-color="#c00095"/><stop offset="1" stop-color="#2c6aff"/></linearGradient><linearGradient id="linear-gradient-10" x1="7769.42" y1="6808.99" x2="7769.42" y2="6808.99" xlink:href="#linear-gradient-9"/><linearGradient id="linear-gradient-11" x1="8020.14" y1="6858" x2="8092.64" y2="6865.4" xlink:href="#linear-gradient-9"/><linearGradient id="linear-gradient-12" x1="7301.5" y1="6212.89" x2="8428.42" y2="6323.95" gradientTransform="matrix(1, -0.07, -0.07, -1, 64.06, -112.66)" gradientUnits="userSpaceOnUse"><stop offset="0" stop-color="#ffe70e"/><stop offset="0.28" stop-color="#ff9b03"/><stop offset="0.8" stop-color="#bf0097"/></linearGradient><linearGradient id="linear-gradient-13" x1="7755.11" y1="6813.16" x2="7755.11" y2="6813.16" gradientTransform="matrix(1, -0.07, -0.07, -1, 64.06, -112.66)" gradientUnits="userSpaceOnUse"><stop offset="0" stop-color="#ffe713"/><stop offset="0.28" stop-color="#fe9c03"/><stop offset="0.65" stop-color="#bf0198"/><stop offset="1" stop-color="#2c71ff"/></linearGradient><linearGradient id="linear-gradient-14" x1="8078.56" y1="6875.7" x2="8081" y2="6875.93" xlink:href="#linear-gradient-13"/><linearGradient id="linear-gradient-15" x1="7516.46" y1="6909.82" x2="7516.46" y2="6909.82" xlink:href="#linear-gradient-13"/><linearGradient id="linear-gradient-16" x1="7236.41" y1="6871.34" x2="7239.44" y2="6871.63" xlink:href="#linear-gradient-13"/><linearGradient id="linear-gradient-17" x1="7747.94" y1="6815.2" x2="7747.94" y2="6815.2" gradientTransform="matrix(1, -0.07, -0.07, -1, 64.06, -112.66)" gradientUnits="userSpaceOnUse"><stop offset="0" stop-color="#ffe818"/><stop offset="0.28" stop-color="#fe9e03"/><stop offset="0.65" stop-color="#be019a"/><stop offset="1" stop-color="#2c74ff"/></linearGradient><linearGradient id="linear-gradient-18" x1="8078.63" y1="6875.7" x2="8080.92" y2="6875.91" xlink:href="#linear-gradient-17"/><linearGradient id="linear-gradient-19" x1="7236.39" y1="6870.44" x2="7239.47" y2="6870.72" xlink:href="#linear-gradient-17"/><linearGradient id="linear-gradient-20" x1="7740.78" y1="6817.26" x2="7740.78" y2="6817.26" gradientTransform="matrix(1, -0.07, -0.07, -1, 64.06, -112.66)" gradientUnits="userSpaceOnUse"><stop offset="0" stop-color="#ffe81c"/><stop offset="0.28" stop-color="#fea003"/><stop offset="0.65" stop-color="#bd019b"/><stop offset="1" stop-color="#2c78ff"/></linearGradient><linearGradient id="linear-gradient-21" x1="8078.69" y1="6875.69" x2="8080.83" y2="6875.88" xlink:href="#linear-gradient-20"/><linearGradient id="linear-gradient-22" x1="7236.38" y1="6869.46" x2="7239.48" y2="6869.74" xlink:href="#linear-gradient-20"/><linearGradient id="linear-gradient-23" x1="7733.62" y1="6819.34" x2="7733.62" y2="6819.34" gradientTransform="matrix(1, -0.07, -0.07, -1, 64.06, -112.66)" gradientUnits="userSpaceOnUse"><stop offset="0" stop-color="#ffe821"/><stop offset="0.28" stop-color="#fea203"/><stop offset="0.65" stop-color="#bc019d"/><stop offset="1" stop-color="#2c7bff"/></linearGradient><linearGradient id="linear-gradient-24" x1="8078.75" y1="6875.69" x2="8080.74" y2="6875.86" xlink:href="#linear-gradient-23"/><linearGradient id="linear-gradient-25" x1="7236.36" y1="6868.5" x2="7239.48" y2="6868.76" xlink:href="#linear-gradient-23"/><linearGradient id="linear-gradient-26" x1="7726.42" y1="6821.4" x2="7726.42" y2="6821.4" gradientTransform="matrix(1, -0.07, -0.07, -1, 64.06, -112.66)" gradientUnits="userSpaceOnUse"><stop offset="0" stop-color="#ffe926"/><stop offset="0.28" stop-color="#fea403"/><stop offset="0.65" stop-color="#bb019e"/><stop offset="1" stop-color="#2c7fff"/></linearGradient><linearGradient id="linear-gradient-27" x1="8078.81" y1="6875.68" x2="8080.66" y2="6875.82" xlink:href="#linear-gradient-26"/><linearGradient id="linear-gradient-28" x1="7236.4" y1="6867.54" x2="7239.51" y2="6867.79" xlink:href="#linear-gradient-26"/><linearGradient id="linear-gradient-29" x1="7265.46" y1="-7480.63" x2="7265.46" y2="-7480.63" gradientUnits="userSpaceOnUse"><stop offset="0" stop-color="#fff"/><stop offset="1"/></linearGradient><linearGradient id="linear-gradient-30" x1="7620.37" y1="-7559.02" x2="7621.7" y2="-7559.02" xlink:href="#linear-gradient-29"/><linearGradient id="linear-gradient-31" x1="6780.85" y1="-7488.63" x2="6783.25" y2="-7488.63" xlink:href="#linear-gradient-29"/><linearGradient id="linear-gradient-32" x1="7712.12" y1="6825.52" x2="7712.12" y2="6825.52" gradientTransform="matrix(1, -0.07, -0.07, -1, 64.06, -112.66)" gradientUnits="userSpaceOnUse"><stop offset="0" stop-color="#ffe92f"/><stop offset="0.28" stop-color="#fda803"/><stop offset="0.65" stop-color="#b902a1"/><stop offset="1" stop-color="#2c86ff"/></linearGradient><linearGradient id="linear-gradient-33" x1="8078.92" y1="6875.62" x2="8080.51" y2="6875.74" xlink:href="#linear-gradient-32"/><linearGradient id="linear-gradient-34" x1="7236.36" y1="6865.6" x2="7239.44" y2="6865.83" xlink:href="#linear-gradient-32"/><linearGradient id="linear-gradient-35" x1="7704.98" y1="6827.59" x2="7704.98" y2="6827.59" gradientTransform="matrix(1, -0.07, -0.07, -1, 64.06, -112.66)" gradientUnits="userSpaceOnUse"><stop offset="0" stop-color="#ffea34"/><stop offset="0.28" stop-color="#fdaa03"/><stop offset="0.65" stop-color="#b802a3"/><stop offset="1" stop-color="#2c89ff"/></linearGradient><linearGradient id="linear-gradient-36" x1="8078.97" y1="6875.65" x2="8080.45" y2="6875.75" xlink:href="#linear-gradient-35"/><linearGradient id="linear-gradient-37" x1="7236.37" y1="6864.61" x2="7239.41" y2="6864.83" xlink:href="#linear-gradient-35"/><linearGradient id="linear-gradient-38" x1="7697.82" y1="6829.66" x2="7697.82" y2="6829.66" gradientTransform="matrix(1, -0.07, -0.07, -1, 64.06, -112.66)" gradientUnits="userSpaceOnUse"><stop offset="0" stop-color="#ffea39"/><stop offset="0.28" stop-color="#fdab03"/><stop offset="0.65" stop-color="#b802a5"/><stop offset="1" stop-color="#2c8dff"/></linearGradient><linearGradient id="linear-gradient-39" x1="8079.03" y1="6875.64" x2="8080.37" y2="6875.73" xlink:href="#linear-gradient-38"/><linearGradient id="linear-gradient-40" x1="7236.35" y1="6863.69" x2="7239.34" y2="6863.89" xlink:href="#linear-gradient-38"/><linearGradient id="linear-gradient-41" x1="7690.65" y1="6831.72" x2="7690.65" y2="6831.72" gradientTransform="matrix(1, -0.07, -0.07, -1, 64.06, -112.66)" gradientUnits="userSpaceOnUse"><stop offset="0" stop-color="#ffea3d"/><stop offset="0.28" stop-color="#fdad03"/><stop offset="0.65" stop-color="#b702a6"/><stop offset="1" stop-color="#2c90ff"/></linearGradient><linearGradient id="linear-gradient-42" x1="8079.08" y1="6875.62" x2="8080.31" y2="6875.7" xlink:href="#linear-gradient-41"/><linearGradient id="linear-gradient-43" x1="7236.41" y1="6862.71" x2="7239.33" y2="6862.9" xlink:href="#linear-gradient-41"/><linearGradient id="linear-gradient-44" x1="7255.35" y1="7162.03" x2="8243.2" y2="7221.02" gradientTransform="matrix(1, -0.07, -0.07, -1, 64.06, -112.66)" gradientUnits="userSpaceOnUse"><stop offset="0" stop-color="#ffeb42"/><stop offset="0.28" stop-color="#fdaf03"/><stop offset="0.65" stop-color="#b602a8"/><stop offset="1" stop-color="#2c94ff"/></linearGradient><linearGradient id="linear-gradient-45" x1="7676.33" y1="6835.85" x2="7676.33" y2="6835.85" gradientTransform="matrix(1, -0.07, -0.07, -1, 64.06, -112.66)" gradientUnits="userSpaceOnUse"><stop offset="0" stop-color="#ffeb47"/><stop offset="0.28" stop-color="#fdb103"/><stop offset="0.65" stop-color="#b502a9"/></linearGradient><linearGradient id="linear-gradient-46" x1="8079.17" y1="6875.6" x2="8080.19" y2="6875.66" xlink:href="#linear-gradient-45"/><linearGradient id="linear-gradient-47" x1="7236.48" y1="6860.78" x2="7239.22" y2="6860.94" xlink:href="#linear-gradient-45"/><linearGradient id="linear-gradient-48" x1="7669.17" y1="6837.92" x2="7669.17" y2="6837.92" gradientTransform="matrix(1, -0.07, -0.07, -1, 64.06, -112.66)" gradientUnits="userSpaceOnUse"><stop offset="0" stop-color="#ffeb4b"/><stop offset="0.28" stop-color="#fcb303"/><stop offset="0.65" stop-color="#b403ab"/><stop offset="1" stop-color="#2c9bff"/></linearGradient><linearGradient id="linear-gradient-49" x1="8079.21" y1="6875.59" x2="8080.14" y2="6875.64" xlink:href="#linear-gradient-48"/><linearGradient id="linear-gradient-50" x1="7236.54" y1="6859.84" x2="7239.2" y2="6859.98" xlink:href="#linear-gradient-48"/><linearGradient id="linear-gradient-51" x1="7662.04" y1="6839.97" x2="7662.04" y2="6839.97" gradientTransform="matrix(1, -0.07, -0.07, -1, 64.06, -112.66)" gradientUnits="userSpaceOnUse"><stop offset="0" stop-color="#ffeb50"/><stop offset="0.28" stop-color="#fcb503"/><stop offset="0.65" stop-color="#b303ac"/></linearGradient><linearGradient id="linear-gradient-52" x1="8077.22" y1="6888.93" x2="8126.92" y2="6891.37" xlink:href="#linear-gradient-51"/><linearGradient id="linear-gradient-53" x1="7236.56" y1="6858.88" x2="7239.11" y2="6859.01" xlink:href="#linear-gradient-51"/><linearGradient id="linear-gradient-54" x1="7654.85" y1="6842.04" x2="7654.85" y2="6842.04" gradientTransform="matrix(1, -0.07, -0.07, -1, 64.06, -112.66)" gradientUnits="userSpaceOnUse"><stop offset="0" stop-color="#ffec55"/><stop offset="0.28" stop-color="#fcb703"/><stop offset="0.65" stop-color="#b203ae"/><stop offset="1" stop-color="#2ca2ff"/></linearGradient><linearGradient id="linear-gradient-55" x1="8079.3" y1="6875.57" x2="8080.03" y2="6875.6" xlink:href="#linear-gradient-54"/><linearGradient id="linear-gradient-56" x1="7236.62" y1="6857.92" x2="7239.03" y2="6858.03" xlink:href="#linear-gradient-54"/><linearGradient id="linear-gradient-57" x1="8079.31" y1="6875.54" x2="8079.99" y2="6875.57" gradientTransform="matrix(1, -0.07, -0.07, -1, 64.06, -112.66)" gradientUnits="userSpaceOnUse"><stop offset="0" stop-color="#ffec59"/><stop offset="0.28" stop-color="#fcb903"/><stop offset="0.65" stop-color="#b103af"/><stop offset="1" stop-color="#2ca5ff"/></linearGradient><linearGradient id="linear-gradient-58" x1="7236.68" y1="6856.97" x2="7238.96" y2="6857.07" xlink:href="#linear-gradient-57"/><linearGradient id="linear-gradient-59" x1="8079.38" y1="6875.54" x2="8079.95" y2="6875.56" gradientTransform="matrix(1, -0.07, -0.07, -1, 64.06, -112.66)" gradientUnits="userSpaceOnUse"><stop offset="0" stop-color="#ffec5e"/><stop offset="0.28" stop-color="#fcba03"/><stop offset="0.65" stop-color="#b103b1"/><stop offset="1" stop-color="#2ca9ff"/></linearGradient><linearGradient id="linear-gradient-60" x1="7236.73" y1="6856" x2="7238.88" y2="6856.08" xlink:href="#linear-gradient-59"/><linearGradient id="linear-gradient-61" x1="8079.43" y1="6875.52" x2="8079.9" y2="6875.53" gradientTransform="matrix(1, -0.07, -0.07, -1, 64.06, -112.66)" gradientUnits="userSpaceOnUse"><stop offset="0" stop-color="#ffed63"/><stop offset="0.28" stop-color="#fcbc03"/><stop offset="0.65" stop-color="#b003b3"/></linearGradient><linearGradient id="linear-gradient-62" x1="7236.8" y1="6855.03" x2="7238.8" y2="6855.1" xlink:href="#linear-gradient-61"/><linearGradient id="linear-gradient-63" x1="7252.36" y1="7086.35" x2="8172.78" y2="7115.42" gradientTransform="matrix(1, -0.07, -0.07, -1, 64.06, -112.66)" gradientUnits="userSpaceOnUse"><stop offset="0" stop-color="#ffed68"/><stop offset="0.28" stop-color="#fbbe03"/><stop offset="0.65" stop-color="#af04b4"/><stop offset="1" stop-color="#2cb0ff"/></linearGradient><linearGradient id="linear-gradient-64" x1="8079.46" y1="6875.49" x2="8079.84" y2="6875.5" gradientTransform="matrix(1, -0.07, -0.07, -1, 64.06, -112.66)" gradientUnits="userSpaceOnUse"><stop offset="0" stop-color="#ffed6c"/><stop offset="0.28" stop-color="#fbc003"/><stop offset="0.65" stop-color="#ae04b6"/></linearGradient><linearGradient id="linear-gradient-65" x1="7236.95" y1="6853.08" x2="7238.58" y2="6853.12" xlink:href="#linear-gradient-64"/><linearGradient id="linear-gradient-66" x1="8079.49" y1="6875.48" x2="8079.8" y2="6875.49" gradientTransform="matrix(1, -0.07, -0.07, -1, 64.06, -112.66)" gradientUnits="userSpaceOnUse"><stop offset="0" stop-color="#ffee71"/><stop offset="0.28" stop-color="#fbc203"/><stop offset="0.65" stop-color="#ad04b7"/><stop offset="1" stop-color="#2cb7ff"/></linearGradient><linearGradient id="linear-gradient-67" x1="7237.05" y1="6852.14" x2="7238.53" y2="6852.18" xlink:href="#linear-gradient-66"/><linearGradient id="linear-gradient-68" x1="8079.52" y1="6875.46" x2="8079.77" y2="6875.47" gradientTransform="matrix(1, -0.07, -0.07, -1, 64.06, -112.66)" gradientUnits="userSpaceOnUse"><stop offset="0" stop-color="#ffee76"/><stop offset="0.28" stop-color="#fbc403"/><stop offset="0.65" stop-color="#ac04b9"/><stop offset="1" stop-color="#2cbaff"/></linearGradient><linearGradient id="linear-gradient-69" x1="7237.13" y1="6851.18" x2="7238.41" y2="6851.21" xlink:href="#linear-gradient-68"/><linearGradient id="linear-gradient-70" x1="8079.19" y1="6870.71" x2="8079.39" y2="6870.72" gradientTransform="matrix(1, -0.07, -0.07, -1, 64.06, -112.66)" gradientUnits="userSpaceOnUse"><stop offset="0" stop-color="#ffee7a"/><stop offset="0.28" stop-color="#fbc603"/><stop offset="0.65" stop-color="#ab04ba"/></linearGradient><linearGradient id="linear-gradient-71" x1="7236.87" y1="6845.49" x2="7237.97" y2="6845.51" xlink:href="#linear-gradient-70"/><linearGradient id="linear-gradient-72" x1="8079.56" y1="6875.43" x2="8079.72" y2="6875.43" gradientTransform="matrix(1, -0.07, -0.07, -1, 64.06, -112.66)" gradientUnits="userSpaceOnUse"><stop offset="0" stop-color="#ffef7f"/><stop offset="0.28" stop-color="#fbc803"/><stop offset="0.65" stop-color="#aa04bc"/></linearGradient><linearGradient id="linear-gradient-73" x1="7237.31" y1="6849.26" x2="7238.2" y2="6849.27" xlink:href="#linear-gradient-72"/><linearGradient id="linear-gradient-74" x1="8079.58" y1="6875.44" x2="8079.7" y2="6875.44" gradientTransform="matrix(1, -0.07, -0.07, -1, 64.06, -112.66)" gradientUnits="userSpaceOnUse"><stop offset="0" stop-color="#ffef84"/><stop offset="0.28" stop-color="#fac903"/><stop offset="0.65" stop-color="#aa05bd"/></linearGradient><linearGradient id="linear-gradient-75" x1="7237.42" y1="6848.29" x2="7238.14" y2="6848.3" xlink:href="#linear-gradient-74"/><linearGradient id="linear-gradient-76" x1="8079.6" y1="6875.4" x2="8079.67" y2="6875.4" gradientTransform="matrix(1, -0.07, -0.07, -1, 64.06, -112.66)" gradientUnits="userSpaceOnUse"><stop offset="0" stop-color="#ffef89"/><stop offset="0.28" stop-color="#facb03"/><stop offset="0.65" stop-color="#a905bf"/></linearGradient><linearGradient id="linear-gradient-77" x1="7237.53" y1="6847.32" x2="7238.01" y2="6847.33" xlink:href="#linear-gradient-76"/><linearGradient id="linear-gradient-78" x1="8079.63" y1="6875.39" x2="8079.66" y2="6875.39" gradientTransform="matrix(1, -0.07, -0.07, -1, 64.06, -112.66)" gradientUnits="userSpaceOnUse"><stop offset="0" stop-color="#fff08d"/><stop offset="0.28" stop-color="#facd03"/><stop offset="0.65" stop-color="#a805c0"/></linearGradient><linearGradient id="linear-gradient-79" x1="7237.63" y1="6846.36" x2="7237.88" y2="6846.36" xlink:href="#linear-gradient-78"/><linearGradient id="linear-gradient-80" x1="8079.64" y1="6875.39" x2="8079.65" y2="6875.39" gradientTransform="matrix(1, -0.07, -0.07, -1, 64.06, -112.66)" gradientUnits="userSpaceOnUse"><stop offset="0" stop-color="#fff092"/><stop offset="0.28" stop-color="#facf03"/><stop offset="0.65" stop-color="#a705c2"/></linearGradient><linearGradient id="linear-gradient-81" x1="7237.75" y1="6845.43" x2="7237.76" y2="6845.43" xlink:href="#linear-gradient-80"/><linearGradient id="linear-gradient-82" x1="7378.91" y1="6366.99" x2="8281.81" y2="6366.99" gradientTransform="matrix(1, -0.07, -0.07, -1, 64.06, -112.66)" gradientUnits="userSpaceOnUse"><stop offset="0" stop-color="#fff092"/><stop offset="0.31" stop-color="#facf03"/><stop offset="0.98" stop-color="#a705c2"/></linearGradient><linearGradient id="linear-gradient-83" x1="8183.78" y1="6318.5" x2="7426.19" y2="6325.2" gradientTransform="matrix(1, -0.07, -0.07, -1, 64.06, -112.66)" gradientUnits="userSpaceOnUse"><stop offset="0" stop-color="#fff092"/><stop offset="0.28" stop-color="#facf03"/><stop offset="1" stop-color="#a705c2"/><stop offset="1" stop-color="#2ccfff"/></linearGradient><linearGradient id="linear-gradient-84" x1="6916.61" y1="6795.43" x2="7848.81" y2="6795.43" gradientTransform="matrix(1, 0.09, 0.09, -1, -613.82, -952.87)" gradientUnits="userSpaceOnUse"><stop offset="0" stop-color="#fff"/><stop offset="0.97" stop-color="#d06faf" stop-opacity="0.9"/></linearGradient><linearGradient id="linear-gradient-85" x1="6916.62" y1="6788.8" x2="7848.81" y2="6788.8" xlink:href="#linear-gradient-84"/><linearGradient id="linear-gradient-86" x1="6916.62" y1="6782.2" x2="7848.79" y2="6782.2" xlink:href="#linear-gradient-84"/><linearGradient id="linear-gradient-87" x1="6916.63" y1="6775.59" x2="7848.79" y2="6775.59" xlink:href="#linear-gradient-84"/><linearGradient id="linear-gradient-88" x1="6916.62" y1="6768.98" x2="7848.79" y2="6768.98" xlink:href="#linear-gradient-84"/><linearGradient id="linear-gradient-89" x1="6916.63" y1="6762.36" x2="7848.78" y2="6762.36" xlink:href="#linear-gradient-84"/><linearGradient id="linear-gradient-90" x1="6916.64" y1="6755.75" x2="7848.8" y2="6755.75" xlink:href="#linear-gradient-84"/><linearGradient id="linear-gradient-91" x1="6916.64" y1="6749.13" x2="7848.77" y2="6749.13" xlink:href="#linear-gradient-84"/><linearGradient id="linear-gradient-92" x1="6916.64" y1="6742.48" x2="7848.77" y2="6742.48" xlink:href="#linear-gradient-84"/><linearGradient id="linear-gradient-93" x1="6916.64" y1="6735.91" x2="7848.71" y2="6735.91" xlink:href="#linear-gradient-84"/><linearGradient id="linear-gradient-94" x1="6916.65" y1="6729.28" x2="7848.74" y2="6729.28" xlink:href="#linear-gradient-84"/><linearGradient id="linear-gradient-95" x1="6916.65" y1="6722.68" x2="7848.72" y2="6722.68" xlink:href="#linear-gradient-84"/><linearGradient id="linear-gradient-96" x1="6916.66" y1="6710.13" x2="7848.75" y2="6710.13" xlink:href="#linear-gradient-84"/><linearGradient id="linear-gradient-97" x1="6916.65" y1="6712.72" x2="7848.69" y2="6712.72" xlink:href="#linear-gradient-84"/><linearGradient id="linear-gradient-98" x1="7353.73" y1="6386.53" x2="7837.79" y2="6358.44" gradientTransform="matrix(1, 0.08, 0.08, -1, -877.11, -1262.57)" gradientUnits="userSpaceOnUse"><stop offset="0" stop-color="#fff"/><stop offset="0" stop-color="#fdfafe"/><stop offset="0" stop-color="#edccf3"/><stop offset="0.01" stop-color="#dea2e8"/><stop offset="0.01" stop-color="#d17cdf"/><stop offset="0.02" stop-color="#c55cd7"/><stop offset="0.02" stop-color="#bc40d1"/><stop offset="0.03" stop-color="#b42acb"/><stop offset="0.03" stop-color="#ae19c7"/><stop offset="0.04" stop-color="#aa0ec4"/><stop offset="0.05" stop-color="#a807c2"/><stop offset="0.08" stop-color="#a705c2"/><stop offset="0.82" stop-color="#facf03"/><stop offset="1" stop-color="#fff092"/></linearGradient><linearGradient id="linear-gradient-99" x1="7318.18" y1="6397.51" x2="8160.37" y2="6397.51" gradientTransform="matrix(1.03, -0.04, 0.11, -1.01, -1305.13, -285.76)" gradientUnits="userSpaceOnUse"><stop offset="0" stop-color="#fff"/><stop offset="0.22" stop-color="#d06faf" stop-opacity="0.9"/></linearGradient><linearGradient id="linear-gradient-100" x1="7318.19" y1="6395.03" x2="8160.38" y2="6395.03" xlink:href="#linear-gradient-99"/><linearGradient id="linear-gradient-101" x1="7318.19" y1="6392.45" x2="8160.38" y2="6392.45" xlink:href="#linear-gradient-99"/><linearGradient id="linear-gradient-102" x1="7318.2" y1="6389.97" x2="8160.38" y2="6389.97" xlink:href="#linear-gradient-99"/><linearGradient id="linear-gradient-103" x1="7318.2" y1="6387.44" x2="8160.37" y2="6387.44" xlink:href="#linear-gradient-99"/><linearGradient id="linear-gradient-104" x1="7318.2" y1="6384.95" x2="8160.39" y2="6384.95" xlink:href="#linear-gradient-99"/><linearGradient id="linear-gradient-105" x1="7318.21" y1="6382.31" x2="8160.38" y2="6382.31" xlink:href="#linear-gradient-99"/><linearGradient id="linear-gradient-106" x1="7318.21" y1="6380.04" x2="8160.38" y2="6380.04" xlink:href="#linear-gradient-99"/><linearGradient id="linear-gradient-107" x1="7318.21" y1="6377.59" x2="8160.37" y2="6377.59" xlink:href="#linear-gradient-99"/><linearGradient id="linear-gradient-108" x1="7318.22" y1="6375.16" x2="8160.38" y2="6375.16" xlink:href="#linear-gradient-99"/><linearGradient id="linear-gradient-109" x1="7318.22" y1="6372.76" x2="8160.43" y2="6372.76" xlink:href="#linear-gradient-99"/><linearGradient id="linear-gradient-110" x1="7318.22" y1="6370.37" x2="8160.38" y2="6370.37" xlink:href="#linear-gradient-99"/><linearGradient id="linear-gradient-111" x1="7318.19" y1="6368.04" x2="8160.34" y2="6368.04" xlink:href="#linear-gradient-99"/><linearGradient id="linear-gradient-112" x1="7318.23" y1="6365.65" x2="8160.38" y2="6365.65" xlink:href="#linear-gradient-99"/></defs><path class="cls-1" d="M6782.1-7487.85l-1.38-18.95" transform="translate(-6780.72 7950.9)"/><path class="cls-2" d="M7331.1-7466.79" transform="translate(-6780.72 7950.9)"/><path class="cls-3" d="M7620.23-7570.13l1.6,21.94" transform="translate(-6780.72 7950.9)"/><path class="cls-4" d="M7037.62-7558.65" transform="translate(-6780.72 7950.9)"/><path class="cls-5" d="M7323.82-7468.38" transform="translate(-6780.72 7950.9)"/><path class="cls-6" d="M7620.24-7569.91l1.58,21.53" transform="translate(-6780.72 7950.9)"/><path class="cls-7" d="M7042.44-7557" transform="translate(-6780.72 7950.9)"/><path class="cls-8" d="M6782.23-7486.11l-1.5-20.49" transform="translate(-6780.72 7950.9)"/><path class="cls-9" d="M6782.36-7484.37l-1.61-22" transform="translate(-6780.72 7950.9)"/><path class="cls-10" d="M7316.51-7469.85" transform="translate(-6780.72 7950.9)"/><path class="cls-11" d="M7566.87-7536.49l54.93-12.09" transform="translate(-6780.72 7950.9)"/><path class="cls-12" d="M7786.51-6881.51l28.07-128.75c-47.48-1.51-180,129.28-349.1,40.55-149-78.17-486.69-68.88-518.27,108.56l-1.73-23.59s127.68-43.91,271.3-47.47C7424.43-6937.37,7660.46-6808,7786.51-6881.51Z" transform="translate(-6780.72 7950.9)"/><path class="cls-13" d="M7301.93-7473" transform="translate(-6780.72 7950.9)"/><path class="cls-14" d="M7620.29-7569.23l1.48,20.27" transform="translate(-6780.72 7950.9)"/><path class="cls-15" d="M7056.87-7552" transform="translate(-6780.72 7950.9)"/><path class="cls-16" d="M6782.61-7480.85l-1.83-25.12" transform="translate(-6780.72 7950.9)"/><path class="cls-17" d="M7294.63-7474.48" transform="translate(-6780.72 7950.9)"/><path class="cls-18" d="M7620.31-7569l1.45,19.85" transform="translate(-6780.72 7950.9)"/><path class="cls-19" d="M6782.74-7479.16l-1.95-26.69" transform="translate(-6780.72 7950.9)"/><path class="cls-20" d="M7287.34-7476" transform="translate(-6780.72 7950.9)"/><path class="cls-21" d="M7620.33-7568.78l1.41,19.43" transform="translate(-6780.72 7950.9)"/><path class="cls-22" d="M6782.87-7477.42l-2.06-28.22" transform="translate(-6780.72 7950.9)"/><path class="cls-23" d="M7280.05-7477.56" transform="translate(-6780.72 7950.9)"/><path class="cls-24" d="M7620.34-7568.56l1.39,19" transform="translate(-6780.72 7950.9)"/><path class="cls-25" d="M6783-7475.69l-2.17-29.75" transform="translate(-6780.72 7950.9)"/><path class="cls-26" d="M7272.72-7479.09" transform="translate(-6780.72 7950.9)"/><path class="cls-27" d="M7620.36-7568.33l1.36,18.59" transform="translate(-6780.72 7950.9)"/><path class="cls-28" d="M6783.16-7473.95l-2.29-31.3" transform="translate(-6780.72 7950.9)"/><path class="cls-29" d="M7265.46-7480.63" transform="translate(-6780.72 7950.9)"/><path class="cls-30" d="M7620.37-7568.11l1.33,18.18" transform="translate(-6780.72 7950.9)"/><path class="cls-31" d="M6783.25-7472.21l-2.4-32.85" transform="translate(-6780.72 7950.9)"/><path class="cls-32" d="M7258.16-7482.16" transform="translate(-6780.72 7950.9)"/><path class="cls-33" d="M7620.39-7567.85l1.3,17.76" transform="translate(-6780.72 7950.9)"/><path class="cls-34" d="M6783.37-7470.47l-2.51-34.38" transform="translate(-6780.72 7950.9)"/><path class="cls-35" d="M7250.88-7483.7" transform="translate(-6780.72 7950.9)"/><path class="cls-36" d="M7620.41-7567.66l1.26,17.35" transform="translate(-6780.72 7950.9)"/><path class="cls-37" d="M6783.5-7468.7l-2.62-35.93" transform="translate(-6780.72 7950.9)"/><path class="cls-38" d="M7243.59-7485.24" transform="translate(-6780.72 7950.9)"/><path class="cls-39" d="M7620.42-7567.43l1.24,16.92" transform="translate(-6780.72 7950.9)"/><path class="cls-40" d="M6783.59-7467l-2.74-37.48" transform="translate(-6780.72 7950.9)"/><path class="cls-41" d="M7236.29-7486.78" transform="translate(-6780.72 7950.9)"/><path class="cls-42" d="M7620.44-7567.2l1.21,16.5" transform="translate(-6780.72 7950.9)"/><path class="cls-43" d="M6783.75-7465.26l-2.85-39" transform="translate(-6780.72 7950.9)"/><path class="cls-44" d="M7639.41-7950.9l1.17,16.13c-80.57,50.71-207.09,87.51-392.63,62.58s-300-21-445.12,24.79l-3-40.57s136.38-50,324.05-31.41C7353.54-7596.27,7563.93-7822.12,7639.41-7950.9Z" transform="translate(-6780.72 7950.9)"/><path class="cls-45" d="M7221.71-7489.85" transform="translate(-6780.72 7950.9)"/><path class="cls-46" d="M7620.47-7566.75l1.15,15.66" transform="translate(-6780.72 7950.9)"/><path class="cls-47" d="M6784-7461.79l-3.08-42.06" transform="translate(-6780.72 7950.9)"/><path class="cls-48" d="M7214.42-7491.39" transform="translate(-6780.72 7950.9)"/><path class="cls-49" d="M7620.49-7566.53l1.11,15.25" transform="translate(-6780.72 7950.9)"/><path class="cls-50" d="M6784.16-7460l-3.19-43.66" transform="translate(-6780.72 7950.9)"/><path class="cls-51" d="M7207.16-7492.92" transform="translate(-6780.72 7950.9)"/><path class="cls-52" d="M7659.71-7598.19l-38.12,46.72" transform="translate(-6780.72 7950.9)"/><path class="cls-53" d="M6784.26-7458.31l-3.3-45.2" transform="translate(-6780.72 7950.9)"/><path class="cls-54" d="M7199.83-7494.46" transform="translate(-6780.72 7950.9)"/><path class="cls-55" d="M7620.52-7566.08l1.06,14.41" transform="translate(-6780.72 7950.9)"/><path class="cls-56" d="M6784.39-7456.57l-3.42-46.75" transform="translate(-6780.72 7950.9)"/><path class="cls-57" d="M7620.54-7565.85l1,14" transform="translate(-6780.72 7950.9)"/><path class="cls-58" d="M6784.52-7454.85l-3.53-48.29" transform="translate(-6780.72 7950.9)"/><path class="cls-59" d="M7620.56-7565.63l1,13.58" transform="translate(-6780.72 7950.9)"/><path class="cls-60" d="M6784.64-7453.1l-3.64-49.84" transform="translate(-6780.72 7950.9)"/><path class="cls-61" d="M7620.57-7565.4l1,13.16" transform="translate(-6780.72 7950.9)"/><path class="cls-62" d="M6784.77-7451.36l-3.75-51.38" transform="translate(-6780.72 7950.9)"/><path class="cls-63" d="M7629.16-7868.48l.93,12.74c-126.61,79.7-268.75,83-450.86,51.83s-308.94,26.76-385.76,51l-3.87-52.92s142.87-56.44,362.43-19.72C7387.19-7480,7587.72-7777.11,7629.16-7868.48Z" transform="translate(-6780.72 7950.9)"/><path class="cls-64" d="M7620.61-7564.95l.9,12.32" transform="translate(-6780.72 7950.9)"/><path class="cls-65" d="M6785-7447.85l-4-54.47" transform="translate(-6780.72 7950.9)"/><path class="cls-66" d="M7620.62-7564.73l.87,11.91" transform="translate(-6780.72 7950.9)"/><path class="cls-67" d="M6785.16-7446.15l-4.09-56" transform="translate(-6780.72 7950.9)"/><path class="cls-68" d="M7620.64-7564.5l.84,11.48" transform="translate(-6780.72 7950.9)"/><path class="cls-69" d="M6785.28-7444.41l-4.21-57.56" transform="translate(-6780.72 7950.9)"/><path class="cls-70" d="M7620.65-7559.53l.81,11.07" transform="translate(-6780.72 7950.9)"/><path class="cls-71" d="M6785.4-7437.93l-4.31-59.1" transform="translate(-6780.72 7950.9)"/><path class="cls-72" d="M7620.67-7564l.78,10.65" transform="translate(-6780.72 7950.9)"/><path class="cls-73" d="M6785.53-7440.94l-4.43-60.64" transform="translate(-6780.72 7950.9)"/><path class="cls-74" d="M7620.69-7563.85l.74,10.23" transform="translate(-6780.72 7950.9)"/><path class="cls-75" d="M6785.66-7439.2l-4.5-62.19" transform="translate(-6780.72 7950.9)"/><path class="cls-76" d="M7620.7-7563.6l.72,9.81" transform="translate(-6780.72 7950.9)"/><path class="cls-77" d="M6785.79-7437.46l-4.63-63.74" transform="translate(-6780.72 7950.9)"/><path class="cls-78" d="M7620.72-7563.38l.69,9.4" transform="translate(-6780.72 7950.9)"/><path class="cls-79" d="M6785.91-7435.73l-4.75-65.27" transform="translate(-6780.72 7950.9)"/><path class="cls-80" d="M7621.4-7554.22l-.66-8.93" transform="translate(-6780.72 7950.9)"/><path class="cls-81" d="M6781.16-7500.85,6786-7434" transform="translate(-6780.72 7950.9)"/><path class="cls-82" d="M6957-7031.62s153-88.38,309.21-49.66,236.44,100,425.73,63.14c98.86-19.25,161.58-69.43,161.58-69.43l7.89,43.81s-167,129.48-441.62,33.48c-287.12-100.35-461.12,1.6-461.12,1.6Z" transform="translate(-6780.72 7950.9)"/><path class="cls-83" d="M6912.23-6937.68s160.87-144.65,302.19-134.12c156.27,11.65,218.77,156.05,607.81,55.29l28.76,8s-246.14,79.85-396.69,21.54c-281.35-95.29-397.43-34.8-525.95,128.07Z" transform="translate(-6780.72 7950.9)"/><g class="cls-84"><path class="cls-85" d="M6896.57-6995s196.05-88.17,453.38-35,349.26,53.67,489.45-41.73" transform="translate(-6780.72 7950.9)"/><path class="cls-86" d="M6896.38-6993s199.42-87.7,454.67-31.37,351.3,54,487.31-36.18" transform="translate(-6780.72 7950.9)"/><path class="cls-87" d="M6896.2-6991s202.8-87.24,455.94-27.71,353.33,54.36,485.17-30.69" transform="translate(-6780.72 7950.9)"/><path class="cls-88" d="M6896-6989s206.17-86.77,457.23-24,355.34,54.7,483-25.18" transform="translate(-6780.72 7950.9)"/><path class="cls-89" d="M6895.82-6987s209.56-86.29,458.51-20.36,357.37,55,480.9-19.66" transform="translate(-6780.72 7950.9)"/><path class="cls-90" d="M6895.64-6985.06s212.93-85.83,459.78-16.68,359.4,55.38,478.76-14.14" transform="translate(-6780.72 7950.9)"/><path class="cls-91" d="M6895.45-6983.07s216.36-85.39,461.08-13,361.4,55.72,476.64-8.63" transform="translate(-6780.72 7950.9)"/><path class="cls-92" d="M6895.27-6981.08s219.68-84.89,462.35-9.33,363.43,56.07,474.48-3.11" transform="translate(-6780.72 7950.9)"/><path class="cls-93" d="M6895.08-6979.09s223.05-84.42,463.65-5.6,365.44,56.4,472.33,2.44" transform="translate(-6780.72 7950.9)"/><path class="cls-94" d="M6894.89-6977.09s226.44-83.95,464.92-2,367.46,56.75,470.17,7.92" transform="translate(-6780.72 7950.9)"/><path class="cls-95" d="M6894.71-6975.1s229.8-83.49,466.2,1.71,369.48,57.09,468.06,13.44" transform="translate(-6780.72 7950.9)"/><path class="cls-96" d="M6894.52-6973.11s233.2-83,467.48,5.36,371.51,57.43,465.92,19" transform="translate(-6780.72 7950.9)"/><path class="cls-97" d="M6894.34-6971.12s236.55-82.54,468.77,9c214.61,104.75,333.5,87.76,463.77,24.47" transform="translate(-6780.72 7950.9)"/><path class="cls-98" d="M6894.15-6969.13s239.94-82.07,470.05,12.7,375.54,58.13,461.64,30" transform="translate(-6780.72 7950.9)"/></g><path class="cls-99" d="M6946.56-7032.69s57-25.24,197.74-42.28c224.68-27.18,406.29,169.95,688.87,11.74l28.23,13.8s-183.12,111.52-353.62,64.89c-228-66.64-286.08-132.72-565.73,11.68Z" transform="translate(-6780.72 7950.9)"/><g class="cls-100"><path class="cls-101" d="M6966.92-7069.18s153.78-89.52,383.46-20.43,272.67,86.6,477.3,58.76" transform="translate(-6780.72 7950.9)"/><path class="cls-102" d="M6966.62-7066.48s101-57.87,261.22-44.88a603.09,603.09,0,0,1,122.68,22.71c95.6,28,158.5,48.43,218.16,60.71,81.75,16.9,150,14.72,258.69-.07" transform="translate(-6780.72 7950.9)"/><path class="cls-103" d="M6966.32-7063.75s101.06-56.67,261.33-45.4a598.84,598.84,0,0,1,123,21.5c93.69,26.74,155.6,47.51,218.06,60.87,86.41,18.59,158.72,15.22,258.34,1.66" transform="translate(-6780.72 7950.9)"/><path class="cls-104" d="M6966-7061.06s101.21-55.73,261.45-45.93a596.18,596.18,0,0,1,123.33,20.3c91.78,25.45,152.75,46.6,217.94,61,91.08,20.28,167.43,15.71,258,3.38" transform="translate(-6780.72 7950.9)"/><path class="cls-105" d="M6965.72-7058.3s101.34-54.84,261.55-46.46a594.1,594.1,0,0,1,123.65,19.11c89.88,24.16,149.87,45.67,217.85,61.17,95.74,22,176.13,16.21,257.64,5.11" transform="translate(-6780.72 7950.9)"/><path class="cls-106" d="M6965.41-7055.57s101.52-54,261.67-47a593.82,593.82,0,0,1,124,17.9c87.95,22.87,147,44.77,217.76,61.33,100.41,23.67,184.84,16.71,257.29,6.83" transform="translate(-6780.72 7950.9)"/><path class="cls-107" d="M6965.11-7052.84s101.43-51.79,261.78-47.52a571,571,0,0,1,124.3,16.69c86.05,21.6,144.12,43.86,217.65,61.49,105.05,25.36,193.54,17.21,256.93,8.58" transform="translate(-6780.72 7950.9)"/><path class="cls-108" d="M6964.81-7050.12s101.85-52.38,261.89-48.06c45.24,1.23,85.65,6.18,124.63,15.51,84.13,20.29,141.23,42.92,217.55,61.63,109.7,27.05,202.24,17.71,256.58,10.32" transform="translate(-6780.72 7950.9)"/><path class="cls-109" d="M6964.5-7047.39s102-51.63,262-48.57c46.33.89,86.64,5.52,124.95,14.29,82.23,19,138.38,42,217.45,61.79,114.36,28.74,210.95,18.21,256.22,12.05" transform="translate(-6780.72 7950.9)"/><path class="cls-110" d="M6964.2-7044.67s102.21-50.89,262.1-49.07c47.44.53,87.66,4.86,125.29,13.09,80.32,17.73,135.48,41.09,217.35,61.94,119,30.46,219.65,18.7,255.87,13.77" transform="translate(-6780.72 7950.9)"/><path class="cls-111" d="M6963.89-7041.93s102.4-50.2,262.27-49.63c48.52.18,88.67,4.21,125.62,11.89,78.41,16.44,132.6,40.17,217.25,62.09,123.68,32.12,228.35,19.21,255.52,15.51" transform="translate(-6780.72 7950.9)"/><path class="cls-112" d="M6963.6-7039.21s102.57-49.48,262.32-50.15c49.62-.2,89.66,3.55,125.94,10.68,76.48,15.21,129.72,39.26,217.15,62.25,128.33,33.81,237.05,19.71,255.17,17.24" transform="translate(-6780.72 7950.9)"/><path class="cls-113" d="M6963.26-7036.48s102.79-49.05,262.43-50.69c50.71-.62,90.66,2.9,126.27,9.45,74.58,13.86,126.85,38.34,217.05,62.4,133,35.5,245.75,20.21,254.81,19" transform="translate(-6780.72 7950.9)"/><path class="cls-114" d="M6963-7033.76s103-48.24,262.55-51.2,205.88,33.61,343.54,70.83,254.45,20.71,254.45,20.71" transform="translate(-6780.72 7950.9)"/></g></svg>