<svg id="Livello_1" data-name="Livello 1" xmlns="http://www.w3.org/2000/svg" xmlns:xlink="http://www.w3.org/1999/xlink" viewBox="0 0 931.75 296.88"><defs><style>.cls-1,.cls-18,.cls-2,.cls-20,.cls-21,.cls-22,.cls-23,.cls-24,.cls-25,.cls-26,.cls-27,.cls-28,.cls-29,.cls-30,.cls-31,.cls-32,.cls-33,.cls-34{isolation:isolate;}.cls-1{opacity:0.63;fill:url(#linear-gradient);}.cls-2{opacity:0.55;fill:url(#linear-gradient-2);}.cls-3{opacity:0.34;}.cls-10,.cls-11,.cls-12,.cls-13,.cls-14,.cls-15,.cls-16,.cls-17,.cls-20,.cls-21,.cls-22,.cls-23,.cls-24,.cls-25,.cls-26,.cls-27,.cls-28,.cls-29,.cls-30,.cls-31,.cls-32,.cls-33,.cls-34,.cls-4,.cls-5,.cls-6,.cls-7,.cls-8,.cls-9{fill:none;}.cls-4{stroke:url(#linear-gradient-3);}.cls-5{stroke:url(#linear-gradient-4);}.cls-6{stroke:url(#linear-gradient-5);}.cls-7{stroke:url(#linear-gradient-6);}.cls-8{stroke:url(#linear-gradient-7);}.cls-9{stroke:url(#linear-gradient-8);}.cls-10{stroke:url(#linear-gradient-9);}.cls-11{stroke:url(#linear-gradient-10);}.cls-12{stroke:url(#linear-gradient-11);}.cls-13{stroke:url(#linear-gradient-12);}.cls-14{stroke:url(#linear-gradient-13);}.cls-15{stroke:url(#linear-gradient-14);}.cls-16{stroke:url(#linear-gradient-15);}.cls-17{stroke:url(#linear-gradient-16);}.cls-18{opacity:0.37;fill:url(#linear-gradient-17);}.cls-19{opacity:0.96;}.cls-20{stroke:#fff;}.cls-20,.cls-21,.cls-22,.cls-23,.cls-24,.cls-25,.cls-26,.cls-27,.cls-28,.cls-29,.cls-30,.cls-31,.cls-32,.cls-33,.cls-34{opacity:0.2;}.cls-21{stroke:url(#linear-gradient-18);}.cls-22{stroke:url(#linear-gradient-19);}.cls-23{stroke:url(#linear-gradient-20);}.cls-24{stroke:url(#linear-gradient-21);}.cls-25{stroke:url(#linear-gradient-22);}.cls-26{stroke:url(#linear-gradient-23);}.cls-27{stroke:url(#linear-gradient-24);}.cls-28{stroke:url(#linear-gradient-25);}.cls-29{stroke:url(#linear-gradient-26);}.cls-30{stroke:url(#linear-gradient-27);}.cls-31{stroke:url(#linear-gradient-28);}.cls-32{stroke:url(#linear-gradient-29);}.cls-33{stroke:url(#linear-gradient-30);}.cls-34{stroke:url(#linear-gradient-31);}</style><linearGradient id="linear-gradient" x1="7316.23" y1="6391.54" x2="8158.13" y2="6391.54" gradientTransform="matrix(1, -0.07, -0.07, -1, 64.06, -112.66)" gradientUnits="userSpaceOnUse"><stop offset="0" stop-color="#fff092"/><stop offset="0" stop-color="#fdf693"/><stop offset="0" stop-color="#fbfd95"/><stop offset="0.01" stop-color="#faff95"/><stop offset="0.42" stop-color="#f7c30b"/><stop offset="0.43" stop-color="#f7be11"/><stop offset="0.53" stop-color="#f97d53"/><stop offset="0.61" stop-color="#fb4e83"/><stop offset="0.67" stop-color="#fc31a1"/><stop offset="0.7" stop-color="#fc26ac"/><stop offset="0.74" stop-color="#f52c95"/><stop offset="0.81" stop-color="#ea3670"/><stop offset="0.88" stop-color="#e23d55"/><stop offset="0.93" stop-color="#dd4145"/><stop offset="0.98" stop-color="#db433f"/></linearGradient><linearGradient id="linear-gradient-2" x1="8108.92" y1="6350.1" x2="7430.92" y2="6356.1" gradientTransform="matrix(1, -0.07, -0.07, -1, 64.06, -112.66)" gradientUnits="userSpaceOnUse"><stop offset="0" stop-color="#fffa62"/><stop offset="0.08" stop-color="#fef662"/><stop offset="0.14" stop-color="#fceb60"/><stop offset="0.21" stop-color="#f8d95d"/><stop offset="0.28" stop-color="#f3bf5a"/><stop offset="0.34" stop-color="#ed9d55"/><stop offset="0.4" stop-color="#e57450"/><stop offset="0.45" stop-color="#de524b"/><stop offset="0.7" stop-color="#e72f65"/><stop offset="1" stop-color="#f40088"/></linearGradient><linearGradient id="linear-gradient-3" x1="6852.26" y1="6833.86" x2="7784.45" y2="6833.86" gradientTransform="matrix(1, -0.01, -0.01, -1, 79.51, -135.5)" gradientUnits="userSpaceOnUse"><stop offset="0" stop-color="#fff"/><stop offset="0.97" stop-color="#d06faf" stop-opacity="0.9"/></linearGradient><linearGradient id="linear-gradient-4" x1="6852.26" y1="6827.23" x2="7784.45" y2="6827.23" xlink:href="#linear-gradient-3"/><linearGradient id="linear-gradient-5" x1="6852.27" y1="6820.63" x2="7784.44" y2="6820.63" xlink:href="#linear-gradient-3"/><linearGradient id="linear-gradient-6" x1="6852.28" y1="6814.01" x2="7784.44" y2="6814.01" xlink:href="#linear-gradient-3"/><linearGradient id="linear-gradient-7" x1="6852.27" y1="6807.4" x2="7784.44" y2="6807.4" xlink:href="#linear-gradient-3"/><linearGradient id="linear-gradient-8" x1="6852.28" y1="6800.78" x2="7784.42" y2="6800.78" xlink:href="#linear-gradient-3"/><linearGradient id="linear-gradient-9" x1="6852.28" y1="6794.17" x2="7784.45" y2="6794.17" xlink:href="#linear-gradient-3"/><linearGradient id="linear-gradient-10" x1="6852.29" y1="6787.56" x2="7784.41" y2="6787.56" xlink:href="#linear-gradient-3"/><linearGradient id="linear-gradient-11" x1="6852.28" y1="6780.9" x2="7784.42" y2="6780.9" xlink:href="#linear-gradient-3"/><linearGradient id="linear-gradient-12" x1="6852.29" y1="6774.33" x2="7784.36" y2="6774.33" xlink:href="#linear-gradient-3"/><linearGradient id="linear-gradient-13" x1="6852.29" y1="6767.71" x2="7784.38" y2="6767.71" xlink:href="#linear-gradient-3"/><linearGradient id="linear-gradient-14" x1="6852.3" y1="6761.1" x2="7784.36" y2="6761.1" xlink:href="#linear-gradient-3"/><linearGradient id="linear-gradient-15" x1="6852.3" y1="6756.59" x2="7784.35" y2="6756.59" xlink:href="#linear-gradient-3"/><linearGradient id="linear-gradient-16" x1="6852.3" y1="6751.14" x2="7784.34" y2="6751.14" xlink:href="#linear-gradient-3"/><linearGradient id="linear-gradient-17" x1="7327.6" y1="6330.92" x2="7775.6" y2="6304.92" gradientTransform="matrix(1, -0.07, -0.07, -1, 64.06, -112.66)" gradientUnits="userSpaceOnUse"><stop offset="0" stop-color="#fff"/><stop offset="0" stop-color="#fdfafe"/><stop offset="0" stop-color="#edccf3"/><stop offset="0.01" stop-color="#dea2e8"/><stop offset="0.01" stop-color="#d17cdf"/><stop offset="0.02" stop-color="#c55cd7"/><stop offset="0.02" stop-color="#bc40d1"/><stop offset="0.03" stop-color="#b42acb"/><stop offset="0.03" stop-color="#ae19c7"/><stop offset="0.04" stop-color="#aa0ec4"/><stop offset="0.05" stop-color="#a807c2"/><stop offset="0.08" stop-color="#a705c2"/><stop offset="0.82" stop-color="#facf03"/><stop offset="1" stop-color="#fff092"/></linearGradient><linearGradient id="linear-gradient-18" x1="7301.64" y1="6428.04" x2="8143.83" y2="6428.04" gradientTransform="matrix(1, -0.07, -0.07, -1, 64.06, -112.66)" gradientUnits="userSpaceOnUse"><stop offset="0" stop-color="#fff"/><stop offset="0.22" stop-color="#d06faf" stop-opacity="0.9"/></linearGradient><linearGradient id="linear-gradient-19" x1="7301.65" y1="6425.56" x2="8143.83" y2="6425.56" xlink:href="#linear-gradient-18"/><linearGradient id="linear-gradient-20" x1="7301.64" y1="6422.98" x2="8143.84" y2="6422.98" xlink:href="#linear-gradient-18"/><linearGradient id="linear-gradient-21" x1="7301.65" y1="6420.5" x2="8143.84" y2="6420.5" xlink:href="#linear-gradient-18"/><linearGradient id="linear-gradient-22" x1="7301.66" y1="6417.97" x2="8143.83" y2="6417.97" xlink:href="#linear-gradient-18"/><linearGradient id="linear-gradient-23" x1="7301.66" y1="6415.49" x2="8143.84" y2="6415.49" xlink:href="#linear-gradient-18"/><linearGradient id="linear-gradient-24" x1="7301.67" y1="6412.85" x2="8143.84" y2="6412.85" xlink:href="#linear-gradient-18"/><linearGradient id="linear-gradient-25" x1="7301.67" y1="6410.57" x2="8143.84" y2="6410.57" xlink:href="#linear-gradient-18"/><linearGradient id="linear-gradient-26" x1="7301.67" y1="6408.12" x2="8143.83" y2="6408.12" xlink:href="#linear-gradient-18"/><linearGradient id="linear-gradient-27" x1="7301.68" y1="6405.69" x2="8143.83" y2="6405.69" xlink:href="#linear-gradient-18"/><linearGradient id="linear-gradient-28" x1="7301.67" y1="6403.29" x2="8143.89" y2="6403.29" xlink:href="#linear-gradient-18"/><linearGradient id="linear-gradient-29" x1="7301.68" y1="6400.91" x2="8143.84" y2="6400.91" xlink:href="#linear-gradient-18"/><linearGradient id="linear-gradient-30" x1="7301.65" y1="6398.57" x2="8143.79" y2="6398.57" xlink:href="#linear-gradient-18"/><linearGradient id="linear-gradient-31" x1="7301.68" y1="6396.18" x2="8143.84" y2="6396.18" xlink:href="#linear-gradient-18"/></defs><path class="cls-1" d="M6892.3-7056.78s153-88.38,309.21-49.66,236.44,100,425.73,63.14c98.86-19.25,107.49-36.92,107.49-36.92l3.64,49.86s-108.65,90.92-383.28-5.08c-287.12-100.35-461.12,1.6-461.12,1.6Z" transform="translate(-6836.83 7159.77)"/><path class="cls-2" d="M6922.35-7011.36s99.19-67.21,240.51-56.68c156.27,11.65,357.74,137.3,602.72,44.2l1.38,18.95s-105.2,81.89-343.63,16.08c-229-63.21-341.22-31.25-496.64,37.26Z" transform="translate(-6836.83 7159.77)"/><g class="cls-3"><path class="cls-4" d="M6837.08-6982.4s185.52-108.6,447.05-83.25,353,16.08,482.2-93.74" transform="translate(-6836.83 7159.77)"/><path class="cls-5" d="M6837.11-6980.4s188.92-108.49,448.72-79.73,355.06,16.2,480.66-88" transform="translate(-6836.83 7159.77)"/><path class="cls-6" d="M6837.14-6978.4s192.33-108.39,450.38-76.22,357.11,16.33,479.12-82.31" transform="translate(-6836.83 7159.77)"/><path class="cls-7" d="M6837.17-6976.4s195.73-108.28,452.05-72.7,359.15,16.45,477.58-76.6" transform="translate(-6836.83 7159.77)"/><path class="cls-8" d="M6837.19-6974.4s199.15-108.17,453.72-69.19,361.2,16.58,476.05-70.88" transform="translate(-6836.83 7159.77)"/><path class="cls-9" d="M6837.22-6972.4s202.55-108.07,455.38-65.67,363.25,16.7,474.51-65.17" transform="translate(-6836.83 7159.77)"/><path class="cls-10" d="M6837.25-6970.4s206-108,457.05-62.15,365.29,16.82,473-59.46" transform="translate(-6836.83 7159.77)"/><path class="cls-11" d="M6837.28-6968.4S7046.64-7076.26,7296-7027s367.34,16.95,471.44-53.74" transform="translate(-6836.83 7159.77)"/><path class="cls-12" d="M6837.3-6966.4s212.77-107.75,460.41-55.07,369.37,17.07,469.89-48" transform="translate(-6836.83 7159.77)"/><path class="cls-13" d="M6837.33-6964.4S7053.51-7072,7299.38-7016s371.42,17.2,468.33-42.31" transform="translate(-6836.83 7159.77)"/><path class="cls-14" d="M6837.36-6962.4s219.58-107.54,463.72-48.07,373.46,17.32,466.82-36.6" transform="translate(-6836.83 7159.77)"/><path class="cls-15" d="M6837.39-6960.4s223-107.43,465.38-44.58,375.51,17.45,465.28-30.88" transform="translate(-6836.83 7159.77)"/><path class="cls-16" d="M6837.42-6958.4s226.39-107.32,467.05-41.07,377.55,17.57,463.74-25.17" transform="translate(-6836.83 7159.77)"/><path class="cls-17" d="M6837.44-6956.4s229.81-107.22,468.72-37.55,379.6,17.7,462.21-19.45" transform="translate(-6836.83 7159.77)"/></g><path class="cls-18" d="M6926.94-6922.73s52.7-33.38,189.33-71c218.21-60.05,387.78,120.07,643.91-78.12l2.19,29.92s-125.76,102.46-307.06,77.59c-235.3-32.26-268.73-82.64-524,101.45Z" transform="translate(-6836.83 7159.77)"/><g class="cls-19"><path class="cls-20" d="M6879.19-7077.17s133.58-93,369.57-33,281.05,75.72,475.18,41.49" transform="translate(-6836.83 7159.77)"/><path class="cls-20" d="M6879.37-7074.48s87.88-60.18,246.2-52.85a627.39,627.39,0,0,1,123.49,18.12c98.13,24.23,163,42.15,223.28,52.23,82.61,13.81,148.68,9.36,251.8-8.82" transform="translate(-6836.83 7159.77)"/><path class="cls-20" d="M6879.57-7071.8s88.17-59,246.2-53.37a622.38,622.38,0,0,1,123.6,16.94c96,23.06,160,41.34,223.21,52.33,87.45,15.31,157.24,9.55,251.76-7.12" transform="translate(-6836.83 7159.77)"/><path class="cls-20" d="M6879.76-7069.11S6968.24-7127.2,7126-7123a615.93,615.93,0,0,1,123.7,15.74c93.92,21.86,157.07,40.54,223.14,52.49,92.29,16.77,165.8,9.77,251.73-5.43" transform="translate(-6836.83 7159.77)"/><path class="cls-20" d="M6880-7066.42s88.78-57.23,246.23-54.42a611.8,611.8,0,0,1,123.8,14.55c91.83,20.67,154.1,39.74,223.07,52.64,97.13,18.32,174.36,9.95,251.7-3.69" transform="translate(-6836.83 7159.77)"/><path class="cls-20" d="M6880.19-7063.74s89.09-56.39,246.24-54.94a609.2,609.2,0,0,1,123.9,13.37c89.74,19.46,151.14,38.93,223,52.79,102,19.82,182.92,10.14,251.67-2" transform="translate(-6836.83 7159.77)"/><path class="cls-20" d="M6880.35-7061s89.41-54.23,246.26-55.46a582.28,582.28,0,0,1,124,12.17c87.65,18.27,148.17,38.13,222.93,52.95,106.81,21.32,191.48,10.34,251.63-.27" transform="translate(-6836.83 7159.77)"/><path class="cls-20" d="M6880.55-7058.37s89.71-54.82,246.27-56c44.26-.32,84.48,3.17,124.1,11,85.55,17.06,145.2,37.33,222.86,53.09,111.65,22.82,200,10.54,251.6,1.45" transform="translate(-6836.83 7159.77)"/><path class="cls-20" d="M6880.75-7055.68s90-54.09,246.28-56.5c45.26-.7,85.34,2.48,124.2,9.79,83.46,15.87,142.24,36.53,222.79,53.25,116.49,24.32,208.6,10.73,251.57,3.15" transform="translate(-6836.83 7159.77)"/><path class="cls-20" d="M6880.94-7053s90.33-53.38,246.3-57c46.26-1.08,86.19,1.81,124.3,8.61,81.37,14.66,139.27,35.72,222.71,53.4,121.34,25.82,217.17,10.93,251.54,4.86" transform="translate(-6836.83 7159.77)"/><path class="cls-20" d="M6881.19-7050.31s90.59-52.67,246.26-57.55c47.26-1.47,87.05,1.14,124.4,7.42,79.28,13.46,136.34,34.92,222.64,53.55,126.18,27.33,225.73,11.13,251.51,6.58" transform="translate(-6836.83 7159.77)"/><path class="cls-20" d="M6881.33-7047.63s91-52.05,246.33-58.06c48.25-1.87,87.91.45,124.5,6.22,77.19,12.27,133.34,34.12,222.57,53.71,131,28.83,234.29,11.32,251.48,8.29" transform="translate(-6836.83 7159.77)"/><path class="cls-20" d="M6881.53-7045s91.24-51.59,246.34-58.59c49.24-2.33,88.76-.22,124.6,5,75.1,11.07,130.37,33.31,222.5,53.86,135.86,30.33,242.85,11.51,251.45,10" transform="translate(-6836.83 7159.77)"/><path class="cls-20" d="M6881.73-7042.26s91.54-50.8,246.34-59.11,206.45,26,347.14,57.87,251.41,11.71,251.41,11.71" transform="translate(-6836.83 7159.77)"/></g><g class="cls-19"><path class="cls-21" d="M6876.58-7075.13s133.58-93,369.58-33,281,75.72,475.17,41.49" transform="translate(-6836.83 7159.77)"/><path class="cls-22" d="M6876.78-7072.47s87.88-60.18,246.19-52.85a627.38,627.38,0,0,1,123.5,18.12c98.1,24.26,163,42.15,223.28,52.18,82.61,13.81,148.67,9.36,251.79-8.82" transform="translate(-6836.83 7159.77)"/><path class="cls-23" d="M6877-7069.78s88.18-59,246.21-53.37a620.9,620.9,0,0,1,123.6,16.93c96,23.06,160,41.34,223.2,52.33,87.46,15.31,157.24,9.56,251.77-7.11" transform="translate(-6836.83 7159.77)"/><path class="cls-24" d="M6877.17-7067.13s88.48-58.09,246.22-53.89a615.84,615.84,0,0,1,123.7,15.74c93.92,21.86,157.07,40.54,223.13,52.49,92.3,16.81,165.8,9.75,251.74-5.41" transform="translate(-6836.83 7159.77)"/><path class="cls-25" d="M6877.37-7064.41s88.78-57.22,246.23-54.42a611,611,0,0,1,123.8,14.56c91.83,20.66,154.1,39.73,223.06,52.64,97.14,18.31,174.36,9.94,251.7-3.7" transform="translate(-6836.83 7159.77)"/><path class="cls-26" d="M6877.56-7061.73s89.1-56.4,246.25-54.93a607.78,607.78,0,0,1,123.9,13.36c89.73,19.46,151.13,38.94,223,52.79,102,19.82,182.93,10.14,251.67-2" transform="translate(-6836.83 7159.77)"/><path class="cls-27" d="M6877.76-7059s89.41-54.23,246.26-55.46a582.28,582.28,0,0,1,124,12.17c87.64,18.27,148.17,38.14,222.92,52.95,106.82,21.32,191.49,10.34,251.64-.27" transform="translate(-6836.83 7159.77)"/><path class="cls-28" d="M6878-7056.36s89.71-54.82,246.27-56c44.26-.32,84.48,3.17,124.1,11,85.55,17.06,145.2,37.33,222.85,53.1,111.65,22.82,200,10.53,251.61,1.44" transform="translate(-6836.83 7159.77)"/><path class="cls-29" d="M6878.15-7053.67s90-54.09,246.29-56.5c45.26-.7,85.33,2.48,124.2,9.79,83.46,15.87,142.26,36.53,222.78,53.25C7587.91-7022.8,7680-7036.4,7723-7044" transform="translate(-6836.83 7159.77)"/><path class="cls-30" d="M6878.35-7051s90.33-53.38,246.29-57c46.27-1.08,86.2,1.81,124.31,8.61,81.37,14.67,139.27,35.72,222.71,53.4,121.33,25.85,217.17,10.91,251.54,4.85" transform="translate(-6836.83 7159.77)"/><path class="cls-31" d="M6878.54-7048.3s90.64-52.7,246.36-57.54c47.26-1.47,87.06,1.13,124.41,7.41,79.28,13.47,136.3,34.92,222.64,53.56,126.17,27.32,225.73,11.12,251.51,6.57" transform="translate(-6836.83 7159.77)"/><path class="cls-32" d="M6878.74-7045.62s90.94-52,246.32-58.06c48.26-1.87,87.91.45,124.51,6.22,77.18,12.33,133.33,34.12,222.57,53.71,131,28.83,234.29,11.32,251.48,8.29" transform="translate(-6836.83 7159.77)"/><path class="cls-33" d="M6878.9-7042.93s91.23-51.59,246.33-58.59c49.25-2.33,88.77-.22,124.61,5,75.09,11.07,130.37,33.31,222.5,53.86,135.85,30.33,242.85,11.52,251.44,10" transform="translate(-6836.83 7159.77)"/><path class="cls-34" d="M6879.13-7040.25s91.54-50.8,246.35-59.1,206.45,26,347.14,57.86S7724-7029.78,7724-7029.78" transform="translate(-6836.83 7159.77)"/></g></svg>