<svg xmlns="http://www.w3.org/2000/svg" xmlns:xlink="http://www.w3.org/1999/xlink" width="300" zoomAndPan="magnify" viewBox="0 0 224.87999 225" height="300" preserveAspectRatio="xMidYMid meet" version="1.0"><defs><clipPath id="id1"><path d="M 36 171 L 61 171 L 61 195.46875 L 36 195.46875 Z M 36 171 " clip-rule="nonzero"/></clipPath><clipPath id="id2"><path d="M 24 29.804688 L 73 29.804688 L 73 163 L 24 163 Z M 24 29.804688 " clip-rule="nonzero"/></clipPath><clipPath id="id3"><path d="M 100 171 L 125 171 L 125 195.46875 L 100 195.46875 Z M 100 171 " clip-rule="nonzero"/></clipPath><clipPath id="id4"><path d="M 88 29.804688 L 137 29.804688 L 137 163 L 88 163 Z M 88 29.804688 " clip-rule="nonzero"/></clipPath><clipPath id="id5"><path d="M 164 171 L 189 171 L 189 195.46875 L 164 195.46875 Z M 164 171 " clip-rule="nonzero"/></clipPath><clipPath id="id6"><path d="M 152 29.804688 L 201 29.804688 L 201 163 L 152 163 Z M 152 29.804688 " clip-rule="nonzero"/></clipPath></defs><g clip-path="url(#id1)"><path fill="#040606" d="M 49.695312 192.585938 C 49.273438 192.648438 48.84375 192.679688 48.402344 192.679688 C 43.234375 192.679688 39.042969 188.511719 39.042969 183.371094 C 39.042969 178.230469 43.234375 174.066406 48.402344 174.066406 C 48.84375 174.066406 49.273438 174.097656 49.695312 174.15625 C 45.144531 174.789062 41.644531 178.671875 41.644531 183.371094 C 41.644531 188.074219 45.144531 191.957031 49.695312 192.585938 Z M 48.714844 171.273438 C 41.996094 171.273438 36.550781 176.6875 36.550781 183.371094 C 36.550781 190.054688 41.996094 195.472656 48.714844 195.472656 C 55.433594 195.472656 60.878906 190.054688 60.878906 183.371094 C 60.878906 176.6875 55.433594 171.273438 48.714844 171.273438 " fill-opacity="1" fill-rule="nonzero"/></g><g clip-path="url(#id2)"><path fill="#040606" d="M 38.222656 56.191406 L 42.371094 131.117188 L 34.011719 55.957031 C 32.84375 41.53125 48.714844 38.171875 48.714844 38.171875 C 37.972656 44.019531 38.222656 56.191406 38.222656 56.191406 Z M 48.714844 29.820312 C 33.8125 29.820312 22.480469 43.128906 24.9375 57.75 L 34.480469 114.507812 L 41.609375 156.9375 C 42.953125 164.914062 54.476562 164.914062 55.820312 156.9375 L 62.953125 114.507812 L 72.492188 57.75 C 74.949219 43.128906 63.617188 29.820312 48.714844 29.820312 " fill-opacity="1" fill-rule="nonzero"/></g><g clip-path="url(#id3)"><path fill="#040606" d="M 113.636719 192.585938 C 113.214844 192.648438 112.78125 192.679688 112.34375 192.679688 C 107.171875 192.679688 102.984375 188.511719 102.984375 183.371094 C 102.984375 178.230469 107.171875 174.066406 112.34375 174.066406 C 112.78125 174.066406 113.214844 174.097656 113.636719 174.15625 C 109.085938 174.789062 105.582031 178.671875 105.582031 183.371094 C 105.582031 188.074219 109.085938 191.957031 113.636719 192.585938 Z M 112.652344 171.273438 C 105.933594 171.273438 100.488281 176.6875 100.488281 183.371094 C 100.488281 190.054688 105.933594 195.472656 112.652344 195.472656 C 119.375 195.472656 124.820312 190.054688 124.820312 183.371094 C 124.820312 176.6875 119.375 171.273438 112.652344 171.273438 " fill-opacity="1" fill-rule="nonzero"/></g><g clip-path="url(#id4)"><path fill="#040606" d="M 102.164062 56.191406 L 106.308594 131.117188 L 97.953125 55.957031 C 96.78125 41.53125 112.652344 38.171875 112.652344 38.171875 C 101.914062 44.019531 102.164062 56.191406 102.164062 56.191406 Z M 112.652344 29.820312 C 97.753906 29.820312 86.421875 43.128906 88.878906 57.75 L 98.417969 114.507812 L 105.550781 156.9375 C 106.890625 164.914062 118.417969 164.914062 119.757812 156.9375 L 126.890625 114.507812 L 136.433594 57.75 C 138.886719 43.128906 127.554688 29.820312 112.652344 29.820312 " fill-opacity="1" fill-rule="nonzero"/></g><g clip-path="url(#id5)"><path fill="#040606" d="M 177.289062 192.585938 C 176.867188 192.648438 176.433594 192.679688 175.996094 192.679688 C 170.828125 192.679688 166.636719 188.511719 166.636719 183.371094 C 166.636719 178.230469 170.828125 174.066406 175.996094 174.066406 C 176.433594 174.066406 176.867188 174.097656 177.289062 174.15625 C 172.738281 174.789062 169.234375 178.671875 169.234375 183.371094 C 169.234375 188.074219 172.738281 191.957031 177.289062 192.585938 Z M 176.308594 171.273438 C 169.589844 171.273438 164.140625 176.6875 164.140625 183.371094 C 164.140625 190.054688 169.589844 195.472656 176.308594 195.472656 C 183.027344 195.472656 188.472656 190.054688 188.472656 183.371094 C 188.472656 176.6875 183.027344 171.273438 176.308594 171.273438 " fill-opacity="1" fill-rule="nonzero"/></g><g clip-path="url(#id6)"><path fill="#040606" d="M 165.816406 56.191406 L 169.964844 131.117188 L 161.605469 55.957031 C 160.433594 41.53125 176.304688 38.171875 176.304688 38.171875 C 165.566406 44.019531 165.816406 56.191406 165.816406 56.191406 Z M 176.308594 29.820312 C 161.40625 29.820312 150.074219 43.128906 152.53125 57.75 L 162.070312 114.507812 L 169.203125 156.9375 C 170.542969 164.914062 182.070312 164.914062 183.410156 156.9375 L 190.542969 114.507812 L 200.085938 57.75 C 202.542969 43.128906 191.210938 29.820312 176.308594 29.820312 " fill-opacity="1" fill-rule="nonzero"/></g></svg>