<svg xmlns="http://www.w3.org/2000/svg" xmlns:xlink="http://www.w3.org/1999/xlink" width="300" zoomAndPan="magnify" viewBox="0 0 224.87999 225" height="300" preserveAspectRatio="xMidYMid meet" version="1.0"><defs><clipPath id="id1"><path d="M 10.277344 7.734375 L 214 7.734375 L 214 211.625 L 10.277344 211.625 Z M 10.277344 7.734375 " clip-rule="nonzero"/></clipPath></defs><path fill="#100f0d" d="M 117.589844 172.734375 C 114.425781 173.761719 111.035156 173.3125 108.25 171.507812 C 105.304688 169.570312 103.53125 166.359375 103.53125 162.898438 L 103.53125 116.785156 C 103.53125 110.574219 100.949219 104.828125 96.628906 100.691406 L 106.429688 97.492188 C 109.574219 96.46875 112.988281 96.914062 115.769531 98.71875 C 118.714844 100.65625 120.488281 103.867188 120.488281 107.328125 L 120.488281 153.445312 C 120.488281 159.652344 123.070312 165.398438 127.394531 169.539062 Z M 138.75 166.691406 C 132.90625 164.769531 128.964844 159.453125 128.964844 153.445312 L 128.964844 107.328125 C 128.964844 101.003906 125.769531 95.125 120.40625 91.632812 C 115.453125 88.402344 109.410156 87.609375 103.796875 89.429688 L 85.269531 95.492188 C 83.511719 96.054688 82.335938 97.675781 82.335938 99.515625 C 82.335938 101.351562 83.511719 102.976562 85.269531 103.539062 C 91.113281 105.457031 95.054688 110.773438 95.054688 116.785156 L 95.054688 162.898438 C 95.054688 169.222656 98.25 175.101562 103.613281 178.597656 C 106.828125 180.683594 110.488281 181.757812 114.195312 181.757812 C 116.199219 181.757812 118.234375 181.445312 120.222656 180.796875 L 138.75 174.738281 C 140.507812 174.175781 141.683594 172.550781 141.683594 170.714844 C 141.683594 168.875 140.507812 167.253906 138.75 166.691406 " fill-opacity="1" fill-rule="nonzero"/><path fill="#100f0d" d="M 112.011719 46.097656 C 119.03125 46.097656 124.726562 51.792969 124.726562 58.8125 C 124.726562 65.835938 119.03125 71.53125 112.011719 71.53125 C 104.988281 71.53125 99.292969 65.835938 99.292969 58.8125 C 99.292969 51.792969 104.988281 46.097656 112.011719 46.097656 Z M 112.011719 80.007812 C 123.699219 80.007812 133.203125 70.503906 133.203125 58.8125 C 133.203125 47.125 123.699219 37.621094 112.011719 37.621094 C 100.320312 37.621094 90.816406 47.125 90.816406 58.8125 C 90.816406 70.503906 100.320312 80.007812 112.011719 80.007812 " fill-opacity="1" fill-rule="nonzero"/><g clip-path="url(#id1)"><path fill="#100f0d" d="M 182.050781 177.238281 L 199.273438 194.457031 L 151.765625 194.457031 C 151.171875 194.457031 150.574219 194.589844 150.027344 194.824219 C 138.007812 200.203125 125.207031 202.9375 112.011719 202.9375 C 60.582031 202.9375 18.753906 161.109375 18.753906 109.679688 C 18.753906 58.25 60.582031 16.425781 112.011719 16.425781 C 163.441406 16.425781 205.265625 58.25 205.265625 109.679688 C 205.265625 132.449219 196.953125 154.371094 181.871094 171.425781 C 180.378906 173.097656 180.460938 175.648438 182.050781 177.238281 Z M 112.011719 7.945312 C 55.910156 7.945312 10.277344 53.582031 10.277344 109.679688 C 10.277344 165.78125 55.910156 211.414062 112.011719 211.414062 C 126.117188 211.414062 139.777344 208.566406 152.660156 202.9375 L 209.503906 202.9375 C 211.226562 202.9375 212.765625 201.910156 213.414062 200.320312 C 214.074219 198.730469 213.710938 196.910156 212.5 195.699219 L 190.8125 173.992188 C 205.628906 155.863281 213.742188 133.175781 213.742188 109.679688 C 213.742188 53.582031 168.109375 7.945312 112.011719 7.945312 " fill-opacity="1" fill-rule="nonzero"/></g></svg>