<svg xmlns="http://www.w3.org/2000/svg" xmlns:xlink="http://www.w3.org/1999/xlink" width="300" zoomAndPan="magnify" viewBox="0 0 224.87999 225" height="300" preserveAspectRatio="xMidYMid meet" version="1.0"><defs><clipPath id="id1"><path d="M 15.25 7 L 163 7 L 163 216 L 15.25 216 Z M 15.25 7 " clip-rule="nonzero"/></clipPath><clipPath id="id2"><path d="M 88 80 L 211.648438 80 L 211.648438 143 L 88 143 Z M 88 80 " clip-rule="nonzero"/></clipPath></defs><g clip-path="url(#id1)"><path fill="#000000" d="M 156.328125 141.988281 C 155.925781 141.988281 155.527344 142.027344 155.132812 142.105469 C 154.738281 142.183594 154.355469 142.300781 153.984375 142.453125 C 153.609375 142.605469 153.257812 142.796875 152.921875 143.019531 C 152.589844 143.242188 152.277344 143.496094 151.996094 143.78125 C 151.710938 144.066406 151.457031 144.375 151.230469 144.710938 C 151.007812 145.042969 150.820312 145.398438 150.664062 145.769531 C 150.511719 146.140625 150.394531 146.523438 150.316406 146.917969 C 150.238281 147.3125 150.199219 147.710938 150.199219 148.113281 L 150.199219 172.609375 C 150.199219 173.613281 150.148438 174.613281 150.050781 175.613281 C 149.949219 176.613281 149.804688 177.601562 149.609375 178.585938 C 149.410156 179.570312 149.167969 180.542969 148.875 181.5 C 148.585938 182.460938 148.246094 183.40625 147.863281 184.332031 C 147.476562 185.257812 147.050781 186.164062 146.578125 187.046875 C 146.105469 187.933594 145.589844 188.792969 145.03125 189.625 C 144.472656 190.460938 143.875 191.265625 143.238281 192.039062 C 142.601562 192.816406 141.929688 193.558594 141.222656 194.265625 C 140.511719 194.976562 139.769531 195.648438 138.992188 196.285156 C 138.21875 196.921875 137.414062 197.519531 136.578125 198.074219 C 135.746094 198.632812 134.886719 199.148438 134 199.621094 C 133.117188 200.09375 132.210938 200.519531 131.285156 200.90625 C 130.355469 201.289062 129.414062 201.625 128.453125 201.917969 C 127.496094 202.207031 126.523438 202.453125 125.539062 202.648438 C 124.554688 202.84375 123.5625 202.988281 122.566406 203.089844 C 121.566406 203.1875 120.566406 203.234375 119.5625 203.234375 L 58.308594 203.234375 C 57.304688 203.234375 56.304688 203.1875 55.308594 203.085938 C 54.308594 202.988281 53.316406 202.839844 52.332031 202.644531 C 51.347656 202.449219 50.375 202.207031 49.417969 201.914062 C 48.457031 201.625 47.511719 201.285156 46.585938 200.902344 C 45.660156 200.519531 44.753906 200.089844 43.867188 199.617188 C 42.984375 199.144531 42.125 198.628906 41.289062 198.070312 C 40.457031 197.511719 39.648438 196.917969 38.875 196.28125 C 38.097656 195.644531 37.355469 194.96875 36.648438 194.261719 C 35.9375 193.550781 35.265625 192.808594 34.628906 192.035156 C 33.992188 191.257812 33.394531 190.453125 32.835938 189.621094 C 32.28125 188.785156 31.765625 187.925781 31.292969 187.042969 C 30.820312 186.15625 30.390625 185.25 30.007812 184.324219 C 29.621094 183.398438 29.285156 182.453125 28.992188 181.496094 C 28.703125 180.535156 28.460938 179.5625 28.261719 178.578125 C 28.066406 177.59375 27.921875 176.605469 27.824219 175.605469 C 27.722656 174.605469 27.675781 173.605469 27.675781 172.605469 L 27.675781 50.121094 C 27.675781 49.117188 27.726562 48.117188 27.824219 47.117188 C 27.921875 46.121094 28.070312 45.128906 28.265625 44.144531 C 28.460938 43.160156 28.707031 42.1875 28.996094 41.230469 C 29.289062 40.269531 29.628906 39.324219 30.011719 38.398438 C 30.394531 37.472656 30.824219 36.566406 31.296875 35.683594 C 31.769531 34.796875 32.285156 33.9375 32.84375 33.105469 C 33.402344 32.269531 33.996094 31.464844 34.632812 30.691406 C 35.269531 29.914062 35.945312 29.171875 36.652344 28.464844 C 37.363281 27.753906 38.105469 27.082031 38.878906 26.445312 C 39.65625 25.808594 40.460938 25.214844 41.292969 24.65625 C 42.128906 24.097656 42.988281 23.582031 43.871094 23.109375 C 44.757812 22.636719 45.664062 22.210938 46.589844 21.828125 C 47.515625 21.441406 48.460938 21.105469 49.417969 20.8125 C 50.378906 20.523438 51.351562 20.28125 52.335938 20.082031 C 53.320312 19.886719 54.308594 19.742188 55.308594 19.644531 C 56.304688 19.542969 57.304688 19.496094 58.308594 19.496094 L 119.570312 19.496094 C 120.574219 19.496094 121.574219 19.546875 122.574219 19.644531 C 123.574219 19.742188 124.566406 19.890625 125.550781 20.085938 C 126.53125 20.28125 127.503906 20.527344 128.464844 20.816406 C 129.425781 21.109375 130.367188 21.445312 131.296875 21.832031 C 132.222656 22.214844 133.128906 22.644531 134.015625 23.117188 C 134.898438 23.589844 135.757812 24.105469 136.59375 24.660156 C 137.425781 25.21875 138.230469 25.816406 139.007812 26.453125 C 139.78125 27.089844 140.523438 27.761719 141.234375 28.46875 C 141.945312 29.179688 142.617188 29.921875 143.253906 30.695312 C 143.890625 31.472656 144.488281 32.277344 145.042969 33.109375 C 145.601562 33.945312 146.117188 34.804688 146.589844 35.6875 C 147.0625 36.570312 147.492188 37.476562 147.875 38.402344 C 148.257812 39.332031 148.597656 40.273438 148.886719 41.234375 C 149.179688 42.191406 149.421875 43.164062 149.617188 44.148438 C 149.8125 45.128906 149.960938 46.121094 150.058594 47.121094 C 150.15625 48.117188 150.207031 49.117188 150.207031 50.121094 L 150.207031 74.617188 C 150.21875 75.011719 150.269531 75.398438 150.359375 75.78125 C 150.449219 76.164062 150.574219 76.535156 150.730469 76.894531 C 150.890625 77.253906 151.085938 77.59375 151.3125 77.917969 C 151.535156 78.238281 151.789062 78.539062 152.074219 78.8125 C 152.355469 79.085938 152.664062 79.328125 152.992188 79.542969 C 153.324219 79.757812 153.671875 79.9375 154.035156 80.085938 C 154.402344 80.230469 154.777344 80.34375 155.164062 80.417969 C 155.550781 80.492188 155.9375 80.53125 156.332031 80.53125 C 156.726562 80.53125 157.117188 80.492188 157.503906 80.417969 C 157.886719 80.34375 158.265625 80.230469 158.628906 80.085938 C 158.992188 79.9375 159.339844 79.757812 159.671875 79.542969 C 160 79.328125 160.308594 79.085938 160.589844 78.8125 C 160.875 78.539062 161.128906 78.238281 161.355469 77.917969 C 161.578125 77.59375 161.773438 77.253906 161.933594 76.894531 C 162.09375 76.535156 162.214844 76.164062 162.304688 75.78125 C 162.394531 75.398438 162.445312 75.011719 162.457031 74.617188 L 162.457031 50.121094 C 162.457031 48.714844 162.390625 47.316406 162.25 45.917969 C 162.113281 44.519531 161.90625 43.132812 161.632812 41.757812 C 161.359375 40.378906 161.015625 39.019531 160.609375 37.675781 C 160.199219 36.332031 159.726562 35.011719 159.191406 33.714844 C 158.652344 32.417969 158.050781 31.152344 157.390625 29.914062 C 156.726562 28.675781 156.007812 27.472656 155.226562 26.304688 C 154.445312 25.136719 153.609375 24.011719 152.71875 22.925781 C 151.828125 21.839844 150.886719 20.800781 149.894531 19.808594 C 148.898438 18.816406 147.859375 17.875 146.773438 16.984375 C 145.6875 16.09375 144.5625 15.257812 143.394531 14.476562 C 142.226562 13.695312 141.023438 12.976562 139.785156 12.3125 C 138.546875 11.652344 137.277344 11.050781 135.980469 10.515625 C 134.683594 9.976562 133.363281 9.503906 132.019531 9.097656 C 130.675781 8.6875 129.316406 8.347656 127.9375 8.074219 C 126.558594 7.800781 125.171875 7.59375 123.773438 7.453125 C 122.378906 7.316406 120.976562 7.246094 119.570312 7.246094 L 58.308594 7.246094 C 56.90625 7.246094 55.503906 7.316406 54.105469 7.453125 C 52.707031 7.59375 51.320312 7.800781 49.945312 8.074219 C 48.566406 8.347656 47.207031 8.6875 45.863281 9.097656 C 44.519531 9.503906 43.195312 9.976562 41.898438 10.515625 C 40.601562 11.050781 39.335938 11.652344 38.097656 12.3125 C 36.855469 12.976562 35.652344 13.695312 34.488281 14.476562 C 33.320312 15.257812 32.191406 16.09375 31.105469 16.984375 C 30.019531 17.875 28.980469 18.816406 27.988281 19.808594 C 26.996094 20.800781 26.054688 21.839844 25.160156 22.925781 C 24.269531 24.011719 23.433594 25.136719 22.65625 26.304688 C 21.875 27.472656 21.152344 28.675781 20.492188 29.914062 C 19.828125 31.152344 19.230469 32.417969 18.691406 33.714844 C 18.152344 35.011719 17.679688 36.332031 17.273438 37.675781 C 16.863281 39.019531 16.523438 40.378906 16.25 41.757812 C 15.976562 43.132812 15.769531 44.519531 15.628906 45.917969 C 15.492188 47.316406 15.421875 48.714844 15.421875 50.121094 L 15.421875 172.605469 C 15.421875 174.007812 15.492188 175.410156 15.628906 176.804688 C 15.769531 178.203125 15.976562 179.589844 16.25 180.964844 C 16.523438 182.34375 16.863281 183.703125 17.273438 185.046875 C 17.679688 186.390625 18.152344 187.710938 18.691406 189.007812 C 19.230469 190.304688 19.828125 191.574219 20.492188 192.8125 C 21.152344 194.050781 21.875 195.25 22.65625 196.417969 C 23.433594 197.585938 24.269531 198.710938 25.160156 199.796875 C 26.054688 200.882812 26.996094 201.921875 27.988281 202.914062 C 28.980469 203.90625 30.019531 204.847656 31.105469 205.742188 C 32.191406 206.632812 33.320312 207.464844 34.488281 208.246094 C 35.652344 209.027344 36.855469 209.746094 38.097656 210.410156 C 39.335938 211.070312 40.601562 211.671875 41.898438 212.210938 C 43.195312 212.746094 44.519531 213.21875 45.863281 213.628906 C 47.207031 214.035156 48.566406 214.375 49.945312 214.648438 C 51.320312 214.925781 52.707031 215.128906 54.105469 215.269531 C 55.503906 215.40625 56.90625 215.476562 58.308594 215.476562 L 119.570312 215.476562 C 120.976562 215.476562 122.378906 215.40625 123.773438 215.269531 C 125.171875 215.128906 126.558594 214.925781 127.9375 214.648438 C 129.316406 214.375 130.675781 214.035156 132.019531 213.628906 C 133.363281 213.21875 134.683594 212.746094 135.980469 212.210938 C 137.277344 211.671875 138.546875 211.070312 139.785156 210.410156 C 141.023438 209.746094 142.226562 209.027344 143.394531 208.246094 C 144.5625 207.464844 145.6875 206.632812 146.773438 205.742188 C 147.859375 204.847656 148.898438 203.90625 149.894531 202.914062 C 150.886719 201.921875 151.828125 200.882812 152.71875 199.796875 C 153.609375 198.710938 154.445312 197.585938 155.226562 196.417969 C 156.007812 195.25 156.726562 194.050781 157.390625 192.8125 C 158.050781 191.574219 158.652344 190.304688 159.191406 189.007812 C 159.726562 187.710938 160.199219 186.390625 160.609375 185.046875 C 161.015625 183.703125 161.359375 182.34375 161.632812 180.964844 C 161.90625 179.589844 162.113281 178.203125 162.25 176.804688 C 162.390625 175.410156 162.457031 174.007812 162.457031 172.605469 L 162.457031 148.105469 C 162.457031 147.703125 162.417969 147.308594 162.339844 146.914062 C 162.261719 146.519531 162.144531 146.136719 161.988281 145.765625 C 161.835938 145.394531 161.648438 145.039062 161.421875 144.707031 C 161.199219 144.371094 160.945312 144.0625 160.660156 143.777344 C 160.375 143.496094 160.066406 143.242188 159.730469 143.019531 C 159.398438 142.792969 159.042969 142.605469 158.671875 142.453125 C 158.300781 142.296875 157.917969 142.183594 157.523438 142.105469 C 157.128906 142.027344 156.730469 141.988281 156.328125 141.988281 Z M 156.328125 141.988281 " fill-opacity="1" fill-rule="evenodd"/></g><g clip-path="url(#id2)"><path fill="#000000" d="M 185.179688 82.53125 C 184.898438 82.226562 184.589844 81.957031 184.253906 81.71875 C 183.917969 81.480469 183.5625 81.277344 183.1875 81.109375 C 182.808594 80.941406 182.417969 80.8125 182.019531 80.722656 C 181.617188 80.632812 181.207031 80.585938 180.796875 80.578125 C 180.382812 80.570312 179.976562 80.605469 179.570312 80.679688 C 179.164062 80.753906 178.769531 80.867188 178.390625 81.023438 C 178.007812 81.175781 177.644531 81.367188 177.300781 81.597656 C 176.957031 81.824219 176.640625 82.082031 176.347656 82.375 C 176.058594 82.664062 175.796875 82.984375 175.570312 83.324219 C 175.34375 83.667969 175.152344 84.03125 174.996094 84.414062 C 174.84375 84.796875 174.726562 85.191406 174.652344 85.59375 C 174.578125 86 174.542969 86.410156 174.550781 86.820312 C 174.558594 87.230469 174.605469 87.640625 174.695312 88.042969 C 174.785156 88.445312 174.914062 88.832031 175.082031 89.210938 C 175.25 89.585938 175.453125 89.941406 175.691406 90.277344 C 175.933594 90.613281 176.203125 90.917969 176.503906 91.199219 L 190.554688 105.242188 L 95.066406 105.242188 C 94.65625 105.226562 94.246094 105.253906 93.839844 105.320312 C 93.433594 105.390625 93.039062 105.496094 92.65625 105.644531 C 92.273438 105.792969 91.90625 105.976562 91.558594 106.199219 C 91.210938 106.417969 90.890625 106.671875 90.59375 106.957031 C 90.300781 107.242188 90.035156 107.554688 89.800781 107.894531 C 89.566406 108.234375 89.371094 108.59375 89.210938 108.972656 C 89.050781 109.351562 88.929688 109.742188 88.847656 110.144531 C 88.765625 110.546875 88.722656 110.953125 88.722656 111.367188 C 88.722656 111.777344 88.765625 112.183594 88.847656 112.585938 C 88.929688 112.992188 89.050781 113.382812 89.210938 113.761719 C 89.371094 114.136719 89.566406 114.496094 89.800781 114.835938 C 90.035156 115.175781 90.300781 115.488281 90.59375 115.773438 C 90.890625 116.058594 91.210938 116.3125 91.558594 116.535156 C 91.90625 116.753906 92.273438 116.9375 92.65625 117.085938 C 93.039062 117.234375 93.433594 117.339844 93.839844 117.410156 C 94.246094 117.476562 94.65625 117.503906 95.066406 117.488281 L 190.554688 117.488281 L 176.503906 131.53125 C 176.203125 131.8125 175.933594 132.121094 175.691406 132.453125 C 175.453125 132.789062 175.25 133.144531 175.082031 133.523438 C 174.914062 133.898438 174.785156 134.289062 174.695312 134.691406 C 174.605469 135.09375 174.558594 135.5 174.550781 135.910156 C 174.542969 136.324219 174.578125 136.730469 174.652344 137.136719 C 174.726562 137.542969 174.84375 137.933594 174.996094 138.316406 C 175.152344 138.699219 175.34375 139.0625 175.570312 139.40625 C 175.796875 139.75 176.058594 140.066406 176.347656 140.355469 C 176.640625 140.648438 176.957031 140.90625 177.300781 141.136719 C 177.644531 141.363281 178.007812 141.554688 178.390625 141.707031 C 178.769531 141.863281 179.164062 141.976562 179.570312 142.050781 C 179.976562 142.125 180.382812 142.160156 180.796875 142.152344 C 181.207031 142.144531 181.617188 142.097656 182.019531 142.007812 C 182.417969 141.917969 182.808594 141.789062 183.1875 141.625 C 183.5625 141.457031 183.917969 141.253906 184.253906 141.011719 C 184.589844 140.773438 184.898438 140.503906 185.179688 140.203125 L 209.683594 115.703125 C 209.96875 115.417969 210.21875 115.109375 210.445312 114.773438 C 210.667969 114.441406 210.855469 114.085938 211.007812 113.714844 C 211.164062 113.34375 211.277344 112.960938 211.355469 112.566406 C 211.433594 112.171875 211.472656 111.773438 211.472656 111.371094 C 211.472656 110.96875 211.433594 110.566406 211.355469 110.171875 C 211.277344 109.777344 211.164062 109.394531 211.007812 109.023438 C 210.855469 108.652344 210.667969 108.296875 210.445312 107.964844 C 210.21875 107.628906 209.96875 107.320312 209.683594 107.035156 Z M 185.179688 82.53125 " fill-opacity="1" fill-rule="evenodd"/></g></svg>