<svg xmlns="http://www.w3.org/2000/svg" xmlns:xlink="http://www.w3.org/1999/xlink" width="300" zoomAndPan="magnify" viewBox="0 0 224.87999 225" height="300" preserveAspectRatio="xMidYMid meet" version="1.0"><defs><clipPath id="id1"><path d="M 100 171 L 125 171 L 125 195.46875 L 100 195.46875 Z M 100 171 " clip-rule="nonzero"/></clipPath><clipPath id="id2"><path d="M 88 29.804688 L 137 29.804688 L 137 163 L 88 163 Z M 88 29.804688 " clip-rule="nonzero"/></clipPath></defs><g clip-path="url(#id1)"><path fill="#040606" d="M 113.636719 192.585938 C 113.214844 192.648438 112.78125 192.679688 112.34375 192.679688 C 107.171875 192.679688 102.984375 188.511719 102.984375 183.371094 C 102.984375 178.230469 107.171875 174.066406 112.34375 174.066406 C 112.78125 174.066406 113.214844 174.097656 113.636719 174.15625 C 109.085938 174.789062 105.582031 178.671875 105.582031 183.371094 C 105.582031 188.074219 109.085938 191.957031 113.636719 192.585938 Z M 112.652344 171.273438 C 105.933594 171.273438 100.488281 176.6875 100.488281 183.371094 C 100.488281 190.054688 105.933594 195.472656 112.652344 195.472656 C 119.375 195.472656 124.820312 190.054688 124.820312 183.371094 C 124.820312 176.6875 119.375 171.273438 112.652344 171.273438 " fill-opacity="1" fill-rule="nonzero"/></g><g clip-path="url(#id2)"><path fill="#040606" d="M 102.164062 56.191406 L 106.308594 131.117188 L 97.953125 55.957031 C 96.78125 41.53125 112.652344 38.171875 112.652344 38.171875 C 101.914062 44.019531 102.164062 56.191406 102.164062 56.191406 Z M 112.652344 29.820312 C 97.753906 29.820312 86.421875 43.128906 88.878906 57.75 L 98.417969 114.507812 L 105.550781 156.9375 C 106.890625 164.914062 118.417969 164.914062 119.757812 156.9375 L 126.890625 114.507812 L 136.433594 57.75 C 138.886719 43.128906 127.554688 29.820312 112.652344 29.820312 " fill-opacity="1" fill-rule="nonzero"/></g></svg>