<svg xmlns="http://www.w3.org/2000/svg" xmlns:xlink="http://www.w3.org/1999/xlink" width="300" zoomAndPan="magnify" viewBox="0 0 224.87999 225" height="300" preserveAspectRatio="xMidYMid meet" version="1.0"><path fill="#000000" d="M 220.035156 198.664062 L 162.1875 140.816406 C 186.414062 108.285156 183.863281 61.972656 154.351562 32.460938 C 121.9375 0.046875 69.199219 0.046875 36.785156 32.460938 C 4.371094 64.875 4.371094 117.617188 36.785156 150.03125 C 66.296875 179.542969 112.605469 182.089844 145.136719 157.867188 L 202.984375 215.714844 C 207.695312 220.421875 215.328125 220.421875 220.035156 215.714844 C 224.746094 211.003906 224.746094 203.371094 220.035156 198.664062 Z M 48.152344 138.664062 C 22.007812 112.519531 22.007812 69.976562 48.152344 43.828125 C 74.296875 17.683594 116.839844 17.683594 142.984375 43.828125 C 169.132812 69.976562 169.132812 112.519531 142.984375 138.664062 C 116.839844 164.808594 74.296875 164.808594 48.152344 138.664062 Z M 48.152344 138.664062 " fill-opacity="1" fill-rule="nonzero"/></svg>