<svg xmlns="http://www.w3.org/2000/svg" xmlns:xlink="http://www.w3.org/1999/xlink" width="300" zoomAndPan="magnify" viewBox="0 0 224.87999 225" height="300" preserveAspectRatio="xMidYMid meet" version="1.0"><defs><clipPath id="id1"><path d="M 68 171 L 93 171 L 93 195.46875 L 68 195.46875 Z M 68 171 " clip-rule="nonzero"/></clipPath><clipPath id="id2"><path d="M 56 29.804688 L 105 29.804688 L 105 163 L 56 163 Z M 56 29.804688 " clip-rule="nonzero"/></clipPath><clipPath id="id3"><path d="M 132 171 L 157 171 L 157 195.46875 L 132 195.46875 Z M 132 171 " clip-rule="nonzero"/></clipPath><clipPath id="id4"><path d="M 120 29.804688 L 169 29.804688 L 169 163 L 120 163 Z M 120 29.804688 " clip-rule="nonzero"/></clipPath></defs><g clip-path="url(#id1)"><path fill="#040606" d="M 81.773438 192.585938 C 81.351562 192.648438 80.917969 192.679688 80.480469 192.679688 C 75.308594 192.679688 71.121094 188.511719 71.121094 183.371094 C 71.121094 178.230469 75.308594 174.066406 80.480469 174.066406 C 80.917969 174.066406 81.351562 174.097656 81.773438 174.15625 C 77.222656 174.789062 73.71875 178.671875 73.71875 183.371094 C 73.71875 188.074219 77.222656 191.957031 81.773438 192.585938 Z M 80.792969 171.273438 C 74.074219 171.273438 68.625 176.6875 68.625 183.371094 C 68.625 190.054688 74.074219 195.472656 80.792969 195.472656 C 87.511719 195.472656 92.957031 190.054688 92.957031 183.371094 C 92.957031 176.6875 87.511719 171.273438 80.792969 171.273438 " fill-opacity="1" fill-rule="nonzero"/></g><g clip-path="url(#id2)"><path fill="#040606" d="M 70.300781 56.191406 L 74.449219 131.117188 L 66.089844 55.957031 C 64.917969 41.53125 80.789062 38.171875 80.789062 38.171875 C 70.050781 44.019531 70.300781 56.191406 70.300781 56.191406 Z M 80.792969 29.820312 C 65.890625 29.820312 54.558594 43.128906 57.015625 57.75 L 66.554688 114.507812 L 73.6875 156.941406 C 75.027344 164.914062 86.554688 164.914062 87.894531 156.941406 L 95.027344 114.507812 L 104.570312 57.75 C 107.027344 43.128906 95.695312 29.820312 80.792969 29.820312 " fill-opacity="1" fill-rule="nonzero"/></g><g clip-path="url(#id3)"><path fill="#040606" d="M 145.425781 192.585938 C 145.003906 192.648438 144.574219 192.679688 144.132812 192.679688 C 138.964844 192.679688 134.773438 188.511719 134.773438 183.371094 C 134.773438 178.230469 138.964844 174.066406 144.132812 174.066406 C 144.574219 174.066406 145.003906 174.097656 145.425781 174.15625 C 140.875 174.789062 137.375 178.671875 137.375 183.371094 C 137.375 188.074219 140.875 191.957031 145.425781 192.585938 Z M 144.445312 171.273438 C 137.726562 171.273438 132.277344 176.6875 132.277344 183.371094 C 132.277344 190.054688 137.726562 195.472656 144.445312 195.472656 C 151.164062 195.472656 156.609375 190.054688 156.609375 183.371094 C 156.609375 176.6875 151.164062 171.273438 144.445312 171.273438 " fill-opacity="1" fill-rule="nonzero"/></g><g clip-path="url(#id4)"><path fill="#040606" d="M 133.953125 56.191406 L 138.101562 131.117188 L 129.742188 55.957031 C 128.574219 41.53125 144.445312 38.171875 144.445312 38.171875 C 133.703125 44.019531 133.953125 56.191406 133.953125 56.191406 Z M 144.445312 29.820312 C 129.542969 29.820312 118.210938 43.128906 120.667969 57.75 L 130.210938 114.507812 L 137.339844 156.941406 C 138.683594 164.914062 150.207031 164.914062 151.546875 156.941406 L 158.679688 114.507812 L 168.222656 57.75 C 170.679688 43.128906 159.347656 29.820312 144.445312 29.820312 " fill-opacity="1" fill-rule="nonzero"/></g></svg>