<svg width="34" height="40" viewBox="0 0 34 40" fill="none" xmlns="http://www.w3.org/2000/svg">
<path d="M29.3637 9.54335H4.63726C2.08075 9.54335 0.0010376 7.51553 0.0010376 5.02281V1.50688C0.0010376 0.675008 0.693226 0 1.54638 0H32.4545C33.3076 0 33.9999 0.675008 33.9999 1.50688V5.0229C33.9999 7.51553 31.9202 9.54335 29.3637 9.54335Z" fill="url(#paint0_linear_105_2)"/>
<path d="M29.3637 9.54335H4.63726C2.08075 9.54335 0.0010376 7.51553 0.0010376 5.02281V1.50688C0.0010376 0.675008 0.693226 0 1.54638 0H32.4545C33.3076 0 33.9999 0.675008 33.9999 1.50688V5.0229C33.9999 7.51553 31.9202 9.54335 29.3637 9.54335Z" fill="#EF00F4" fill-opacity="0.2"/>
<path d="M32.4536 40H1.54544C0.692281 40 0 39.325 0 38.4931V34.9771C0 32.4844 2.07971 30.4566 4.63622 30.4566H29.3627C31.9192 30.4566 33.9989 32.4844 33.9989 34.9771V38.4931C33.999 39.325 33.3068 40 32.4536 40Z" fill="url(#paint1_linear_105_2)"/>
<path d="M32.4536 40H1.54544C0.692281 40 0 39.325 0 38.4931V34.9771C0 32.4844 2.07971 30.4566 4.63622 30.4566H29.3627C31.9192 30.4566 33.9989 32.4844 33.9989 34.9771V38.4931C33.999 39.325 33.3068 40 32.4536 40Z" fill="#EF00F4" fill-opacity="0.2"/>
<g filter="url(#filter0_bi_105_2)">
<path d="M25.0974 21.1899C26.4162 22.0939 27.3434 22.8976 27.941 23.641C29.8778 26.0419 30.9082 28.935 30.9082 32.009V35.0226C30.9082 35.8564 30.2179 36.5295 29.3627 36.5295H4.63629C3.78119 36.5295 3.09085 35.8565 3.09085 35.0226V32.009C3.09085 28.935 4.12108 26.0418 6.05806 23.641C6.65565 22.8976 7.58286 22.0939 8.90161 21.1899C9.77735 20.577 9.76707 19.3213 8.90161 18.7186C7.58286 17.8146 6.65565 17.0108 6.05806 16.2675C4.12117 13.8666 3.09085 10.9735 3.09085 7.89945V4.88578C3.09085 4.05202 3.7811 3.37891 4.63629 3.37891H29.3627C30.2178 3.37891 30.9082 4.05193 30.9082 4.88578V7.89945C30.9082 10.9734 29.8779 13.8666 27.941 16.2675C27.3434 17.011 26.4162 17.8146 25.0974 18.7186C24.2217 19.3315 24.232 20.5872 25.0974 21.1899Z" fill="#FFB8EB" fill-opacity="0.46"/>
</g>
<path d="M22.3569 8.67258H11.6422C10.4574 8.67258 9.71555 9.92828 10.3028 10.9328C11.1888 12.4296 12.2087 13.1027 13.033 13.6351C14.0839 14.3282 14.836 14.8305 15.5057 17.3822C15.7014 18.1356 16.3505 18.5073 16.9995 18.5073C17.6589 18.5073 18.308 18.1356 18.5037 17.3721C19.163 14.8206 19.9255 14.3283 20.9763 13.6352C21.7903 13.1028 22.8102 12.4297 23.6962 10.9329C24.2835 9.92828 23.5417 8.67258 22.3569 8.67258Z" fill="white"/>
<path d="M11.6421 31.3233L22.3569 31.3233C23.5417 31.3233 24.2835 30.0676 23.6962 29.0631C22.8102 27.5663 21.7903 26.8932 20.966 26.3608C19.9151 25.6676 19.1631 25.1654 18.4934 22.6137C18.2976 21.8603 17.6485 21.4886 16.9995 21.4886C16.3401 21.4886 15.691 21.8603 15.4953 22.6237C14.836 25.1753 14.0735 25.6675 13.0227 26.3607C12.2088 26.8931 11.1888 27.5662 10.3028 29.063C9.71549 30.0676 10.4573 31.3233 11.6421 31.3233Z" fill="white"/>
<defs>
<filter id="filter0_bi_105_2" x="-0.909149" y="-0.621094" width="35.8173" height="41.1506" filterUnits="userSpaceOnUse" color-interpolation-filters="sRGB">
<feFlood flood-opacity="0" result="BackgroundImageFix"/>
<feGaussianBlur in="BackgroundImage" stdDeviation="2"/>
<feComposite in2="SourceAlpha" operator="in" result="effect1_backgroundBlur_105_2"/>
<feBlend mode="normal" in="SourceGraphic" in2="effect1_backgroundBlur_105_2" result="shape"/>
<feColorMatrix in="SourceAlpha" type="matrix" values="0 0 0 0 0 0 0 0 0 0 0 0 0 0 0 0 0 0 127 0" result="hardAlpha"/>
<feOffset dx="0.2" dy="0.1"/>
<feGaussianBlur stdDeviation="0.5"/>
<feComposite in2="hardAlpha" operator="arithmetic" k2="-1" k3="1"/>
<feColorMatrix type="matrix" values="0 0 0 0 1 0 0 0 0 1 0 0 0 0 1 0 0 0 0.6 0"/>
<feBlend mode="normal" in2="shape" result="effect2_innerShadow_105_2"/>
</filter>
<linearGradient id="paint0_linear_105_2" x1="2.30605" y1="2.91153" x2="29.6822" y2="-6.37699" gradientUnits="userSpaceOnUse">
<stop stop-color="#E900B5" stop-opacity="0.93"/>
<stop offset="0.354167" stop-color="#F55672" stop-opacity="0.78"/>
<stop offset="0.755208" stop-color="#F5EC07"/>
</linearGradient>
<linearGradient id="paint1_linear_105_2" x1="2.30501" y1="33.3681" x2="29.6812" y2="24.0797" gradientUnits="userSpaceOnUse">
<stop stop-color="#E900B5" stop-opacity="0.93"/>
<stop offset="0.354167" stop-color="#F55672" stop-opacity="0.78"/>
<stop offset="0.755208" stop-color="#F5EC07"/>
</linearGradient>
</defs>
</svg>
