<svg xmlns="http://www.w3.org/2000/svg" xmlns:xlink="http://www.w3.org/1999/xlink" width="300" zoomAndPan="magnify" viewBox="0 0 224.87999 225" height="300" preserveAspectRatio="xMidYMid meet" version="1.0"><defs><clipPath id="id1"><path d="M 0 0.0585938 L 224.761719 0.0585938 L 224.761719 224.9375 L 0 224.9375 Z M 0 0.0585938 " clip-rule="nonzero"/></clipPath><clipPath id="id2"><path d="M 2.75 2.8125 L 222.382812 2.8125 L 222.382812 222.445312 L 2.75 222.445312 Z M 2.75 2.8125 " clip-rule="nonzero"/></clipPath></defs><g clip-path="url(#id1)"><path fill="#ffffff" d="M 0 0.0585938 L 224.878906 0.0585938 L 224.878906 232.4375 L 0 232.4375 Z M 0 0.0585938 " fill-opacity="1" fill-rule="nonzero"/><path fill="#ffffff" d="M 0 0.0585938 L 224.878906 0.0585938 L 224.878906 224.941406 L 0 224.941406 Z M 0 0.0585938 " fill-opacity="1" fill-rule="nonzero"/><path fill="#ffffff" d="M 0 0.0585938 L 224.878906 0.0585938 L 224.878906 224.941406 L 0 224.941406 Z M 0 0.0585938 " fill-opacity="1" fill-rule="nonzero"/><path fill="#ffffff" d="M 0 0.0585938 L 224.878906 0.0585938 L 224.878906 224.941406 L 0 224.941406 Z M 0 0.0585938 " fill-opacity="1" fill-rule="nonzero"/></g><g clip-path="url(#id2)"><path fill="#000000" d="M 112.492188 2.8125 C 112.550781 2.8125 112.605469 2.8125 112.664062 2.816406 C 118.121094 2.839844 123.078125 5.078125 126.671875 8.675781 C 130.285156 12.285156 132.519531 17.277344 132.523438 22.78125 L 132.535156 22.78125 L 132.535156 92.660156 L 202.417969 92.660156 C 207.910156 92.660156 212.902344 94.90625 216.523438 98.523438 C 220.121094 102.125 222.363281 107.085938 222.382812 112.554688 C 222.382812 112.609375 222.382812 112.667969 222.382812 112.722656 C 222.359375 118.179688 220.117188 123.136719 216.523438 126.734375 C 212.910156 130.34375 207.917969 132.582031 202.417969 132.582031 L 202.417969 132.597656 L 132.535156 132.597656 L 132.535156 202.476562 C 132.535156 207.96875 130.289062 212.964844 126.671875 216.582031 C 123.070312 220.179688 118.109375 222.421875 112.644531 222.441406 C 112.585938 222.445312 112.53125 222.445312 112.472656 222.441406 C 107.015625 222.417969 102.058594 220.175781 98.460938 216.582031 C 94.855469 212.972656 92.613281 207.980469 92.613281 202.476562 L 92.601562 202.476562 L 92.601562 132.597656 L 22.71875 132.597656 C 17.226562 132.597656 12.234375 130.351562 8.613281 126.734375 C 5.015625 123.132812 2.773438 118.167969 2.753906 112.703125 C 2.75 112.644531 2.75 112.589844 2.753906 112.53125 C 2.777344 107.074219 5.019531 102.117188 8.613281 98.523438 C 12.226562 94.914062 17.21875 92.675781 22.71875 92.675781 L 22.71875 92.660156 L 92.601562 92.660156 L 92.601562 22.78125 C 92.601562 17.285156 94.847656 12.289062 98.460938 8.675781 C 102.0625 5.074219 107.027344 2.832031 112.492188 2.8125 " fill-opacity="1" fill-rule="nonzero"/></g></svg>