<svg xmlns="http://www.w3.org/2000/svg" xmlns:xlink="http://www.w3.org/1999/xlink" width="500" zoomAndPan="magnify" viewBox="0 0 375 37.5" height="50" preserveAspectRatio="xMidYMid meet" version="1.0"><defs><clipPath id="id1"><path d="M 2.46875 0 L 372.53125 0 L 372.53125 37.007812 L 2.46875 37.007812 Z M 2.46875 0 " clip-rule="nonzero"/></clipPath><clipPath id="id2"><path d="M 2.46875 5.476562 L 372.53125 5.476562 L 372.53125 28.417969 L 2.46875 28.417969 Z M 2.46875 5.476562 " clip-rule="nonzero"/></clipPath></defs><g clip-path="url(#id1)"><path fill="rgb(100%, 100%, 100%)" d="M 2.46875 0 L 372.53125 0 L 372.53125 44.40625 L 2.46875 44.40625 Z M 2.46875 0 " fill-opacity="1" fill-rule="nonzero"/><path fill="rgb(100%, 100%, 100%)" d="M 2.46875 0 L 372.53125 0 L 372.53125 37.007812 L 2.46875 37.007812 Z M 2.46875 0 " fill-opacity="1" fill-rule="nonzero"/><path fill="rgb(100%, 100%, 100%)" d="M 2.46875 0 L 372.53125 0 L 372.53125 37.007812 L 2.46875 37.007812 Z M 2.46875 0 " fill-opacity="1" fill-rule="nonzero"/><path fill="rgb(100%, 100%, 100%)" d="M 2.46875 0 L 372.53125 0 L 372.53125 37.007812 L 2.46875 37.007812 Z M 2.46875 0 " fill-opacity="1" fill-rule="nonzero"/></g><g clip-path="url(#id2)"><path fill="rgb(0%, 0%, 0%)" d="M 175.792969 5.65625 C 164.941406 5.78125 155.773438 6.015625 148.886719 6.355469 C 146.9375 6.445312 143.523438 6.609375 141.273438 6.714844 C 135.453125 6.984375 113.964844 8.382812 105.519531 9.046875 C 104.261719 9.136719 100.757812 9.386719 97.730469 9.585938 C 94.722656 9.78125 91.890625 9.980469 91.449219 10.035156 C 91.003906 10.085938 86.03125 10.480469 80.386719 10.929688 C 74.738281 11.359375 67.054688 11.96875 63.304688 12.277344 C 59.550781 12.5625 52.59375 13.101562 47.816406 13.441406 C 32.753906 14.535156 26.203125 15.144531 20.644531 15.96875 C 18.714844 16.257812 17.441406 16.527344 17.246094 16.707031 C 17.070312 16.867188 16.167969 17.0625 14.945312 17.226562 C 10.007812 17.835938 7.9375 18.265625 5.351562 19.234375 C 3.6875 19.863281 3.566406 19.953125 3.15625 20.6875 C 2.820312 21.316406 2.769531 21.546875 2.910156 21.800781 C 3.050781 22.03125 3.050781 22.15625 2.855469 22.320312 C 2.519531 22.605469 2.519531 23.46875 2.855469 23.753906 C 3.085938 23.953125 3.085938 24.003906 2.855469 24.183594 C 2.46875 24.488281 2.625 24.882812 3.351562 25.546875 C 3.722656 25.871094 3.988281 26.246094 3.9375 26.371094 C 3.792969 26.765625 4.007812 27.164062 4.519531 27.414062 C 5.847656 28.113281 13.140625 28.398438 18.785156 27.988281 C 20.929688 27.824219 24.753906 27.59375 27.285156 27.429688 C 29.816406 27.289062 32.328125 27.125 32.859375 27.089844 C 33.390625 27.035156 34.824219 26.945312 36.046875 26.894531 C 37.265625 26.839844 38.769531 26.75 39.40625 26.714844 C 40.59375 26.640625 43.25 26.515625 46.929688 26.355469 C 48.097656 26.320312 50.171875 26.230469 51.53125 26.15625 C 53.957031 26.050781 54.753906 26.175781 52.84375 26.371094 C 49.109375 26.730469 49.304688 26.785156 54.277344 26.695312 C 65.585938 26.515625 86.492188 25.441406 99.324219 24.382812 C 102.246094 24.148438 106.316406 23.824219 108.351562 23.664062 C 110.40625 23.519531 114.386719 23.179688 117.203125 22.949219 C 120.035156 22.695312 124.601562 22.335938 127.378906 22.140625 C 130.160156 21.941406 135.378906 21.53125 138.972656 21.242188 C 145.3125 20.742188 152.410156 20.238281 160.992188 19.71875 C 163.257812 19.59375 165.171875 19.433594 165.222656 19.378906 C 165.3125 19.269531 160.425781 19.179688 159.292969 19.253906 C 158.976562 19.289062 158.710938 19.214844 158.710938 19.128906 C 158.710938 19.039062 158.851562 18.984375 159.027344 18.984375 C 159.3125 19 162.726562 18.820312 165.4375 18.644531 C 166.074219 18.605469 167.949219 18.515625 169.597656 18.464844 C 171.257812 18.410156 173.402344 18.335938 174.375 18.285156 C 175.347656 18.25 178.019531 18.160156 180.304688 18.105469 C 182.589844 18.050781 184.941406 17.960938 185.527344 17.925781 C 186.109375 17.890625 189.101562 17.800781 192.164062 17.746094 C 195.226562 17.691406 198.730469 17.621094 199.953125 17.566406 C 201.171875 17.511719 205.917969 17.441406 210.484375 17.386719 C 215.070312 17.332031 219.792969 17.242188 221.015625 17.207031 C 232.132812 16.832031 311.128906 16.722656 322.261719 17.0625 C 326.210938 17.191406 331.910156 17.371094 334.917969 17.476562 C 341.558594 17.675781 349.71875 17.816406 349.34375 17.710938 C 349.1875 17.675781 347.789062 17.53125 346.246094 17.40625 L 343.414062 17.171875 L 346.070312 17.136719 C 347.539062 17.101562 348.886719 17.011719 349.078125 16.921875 C 349.363281 16.796875 349.328125 16.757812 348.867188 16.8125 C 348.546875 16.847656 348.28125 16.8125 348.28125 16.722656 C 348.28125 16.652344 348.777344 16.582031 349.398438 16.582031 C 350.089844 16.582031 350.40625 16.652344 350.246094 16.742188 C 350.105469 16.847656 350.300781 16.867188 350.777344 16.8125 C 351.984375 16.667969 364.796875 17.835938 369.71875 18.535156 C 370.425781 18.625 370.816406 18.605469 371.027344 18.445312 C 371.207031 18.320312 371.578125 18.265625 371.929688 18.320312 C 372.320312 18.390625 372.53125 18.355469 372.53125 18.210938 C 372.53125 18.105469 372.355469 18.015625 372.125 18.015625 C 371.894531 18.015625 371.558594 17.890625 371.363281 17.746094 C 371.027344 17.496094 371.027344 17.476562 371.433594 17.371094 C 371.964844 17.207031 371.929688 16.992188 371.347656 16.867188 C 365.1875 15.539062 339.292969 13.136719 310.492188 11.199219 C 307.484375 11.003906 303.058594 10.679688 300.667969 10.480469 C 298.277344 10.285156 294.613281 9.996094 292.527344 9.855469 C 290.4375 9.691406 287.324219 9.460938 285.625 9.316406 C 283.925781 9.171875 280.542969 8.921875 278.101562 8.777344 C 275.675781 8.632812 271.25 8.347656 268.277344 8.148438 C 254.46875 7.234375 248.859375 7.003906 232.167969 6.609375 C 229.300781 6.535156 226.734375 6.464844 226.46875 6.445312 C 226.183594 6.429688 224.449219 6.410156 222.589844 6.394531 C 220.554688 6.375 219.265625 6.285156 219.335938 6.195312 C 219.386719 6.085938 219.28125 6.015625 219.121094 6.035156 C 217.722656 6.050781 215.582031 5.945312 214.554688 5.800781 C 213.015625 5.566406 190.75 5.496094 175.792969 5.65625 Z M 155.207031 13.011719 C 155.132812 13.082031 153.929688 13.191406 152.515625 13.242188 C 151.097656 13.316406 149.628906 13.40625 149.238281 13.441406 C 148.851562 13.476562 147.417969 13.566406 146.054688 13.621094 C 144.691406 13.675781 143.1875 13.765625 142.691406 13.800781 C 142.214844 13.855469 141.007812 13.925781 140.035156 13.980469 C 139.0625 14.035156 137.984375 14.105469 137.644531 14.160156 C 137.308594 14.195312 136.160156 14.285156 135.078125 14.339844 C 134.019531 14.410156 132.902344 14.480469 132.601562 14.515625 C 132.320312 14.554688 131.308594 14.625 130.390625 14.695312 C 128.761719 14.804688 127.824219 14.875 125.433594 15.054688 C 124.796875 15.089844 123.574219 15.179688 122.6875 15.234375 C 120.460938 15.378906 118.582031 15.503906 117.644531 15.59375 C 116.722656 15.683594 113.09375 15.96875 110.917969 16.132812 C 110.085938 16.183594 109.058594 16.273438 108.617188 16.3125 C 108.175781 16.347656 107.148438 16.4375 106.316406 16.492188 C 105.484375 16.542969 104.371094 16.617188 103.839844 16.667969 C 103.308594 16.707031 102.226562 16.796875 101.449219 16.847656 C 99.484375 16.992188 98.246094 17.082031 94.367188 17.386719 C 89.980469 17.726562 83.90625 18.140625 81.445312 18.285156 C 80.386719 18.335938 78.863281 18.425781 78.082031 18.464844 C 77.304688 18.515625 76.121094 18.589844 75.429688 18.644531 C 72.136719 18.839844 69.25 18.949219 69.320312 18.859375 C 69.429688 18.75 70.757812 18.605469 73.039062 18.464844 C 73.871094 18.410156 74.828125 18.335938 75.164062 18.285156 C 75.5 18.25 76.457031 18.160156 77.289062 18.105469 C 80.121094 17.90625 81.09375 17.835938 82.066406 17.746094 C 82.597656 17.691406 86.472656 17.421875 90.652344 17.117188 C 94.847656 16.832031 99.820312 16.453125 101.714844 16.3125 C 111.484375 15.558594 123.964844 14.660156 134.195312 13.980469 C 134.886719 13.945312 136.265625 13.855469 137.292969 13.800781 C 138.320312 13.746094 140.515625 13.640625 142.160156 13.53125 C 146 13.316406 148.070312 13.207031 151.277344 13.066406 C 152.691406 13.011719 153.859375 12.9375 153.878906 12.921875 C 153.984375 12.832031 155.3125 12.921875 155.207031 13.011719 Z M 244.378906 13.53125 C 255.195312 13.726562 258.753906 13.800781 271.726562 14.160156 C 286.84375 14.589844 292.382812 14.804688 294.5625 15.089844 C 295.304688 15.179688 295.375 15.21875 295.003906 15.34375 C 294.757812 15.414062 294.667969 15.46875 294.792969 15.484375 C 294.898438 15.503906 295.003906 15.59375 295.003906 15.683594 C 295.003906 15.898438 295.359375 15.898438 235.53125 15.953125 C 210.945312 15.96875 189.492188 16.042969 187.828125 16.113281 C 185.386719 16.203125 170.886719 16.292969 169.613281 16.238281 C 168.957031 16.203125 169.507812 15.96875 170.355469 15.933594 C 173.542969 15.773438 175.703125 15.683594 178.710938 15.574219 C 180.605469 15.523438 182.410156 15.449219 182.695312 15.414062 C 182.996094 15.378906 183.878906 15.34375 184.675781 15.34375 C 185.898438 15.324219 186.109375 15.289062 186.039062 15.054688 C 185.96875 14.875 186.039062 14.785156 186.234375 14.785156 C 186.429688 14.785156 186.5 14.875 186.429688 15.054688 C 186.359375 15.269531 186.519531 15.324219 187.277344 15.324219 C 188.109375 15.324219 188.253906 15.269531 188.359375 14.914062 L 188.480469 14.515625 L 188.730469 15.414062 L 188.835938 15 C 188.925781 14.660156 189.046875 14.589844 189.632812 14.625 C 190.359375 14.644531 196.269531 14.480469 199.066406 14.339844 C 199.988281 14.300781 203.457031 14.210938 206.765625 14.140625 C 210.078125 14.070312 213.105469 13.996094 213.492188 13.980469 C 213.882812 13.960938 216.058594 13.925781 218.324219 13.90625 C 220.699219 13.90625 222.433594 13.816406 222.433594 13.726562 C 222.433594 13.621094 218.714844 13.550781 213.191406 13.53125 C 208.113281 13.53125 203.917969 13.476562 203.863281 13.441406 C 203.722656 13.28125 234.894531 13.351562 244.378906 13.53125 Z M 187.5625 14.859375 C 187.5625 14.914062 187.492188 15 187.386719 15.054688 C 187.296875 15.109375 187.207031 15.074219 187.207031 14.984375 C 187.207031 14.875 187.296875 14.785156 187.386719 14.785156 C 187.492188 14.785156 187.5625 14.824219 187.5625 14.859375 Z M 144.25 15.449219 C 144.125 15.484375 143.875 15.484375 143.71875 15.449219 C 143.539062 15.394531 143.648438 15.359375 143.929688 15.359375 C 144.230469 15.359375 144.355469 15.394531 144.25 15.449219 Z M 140.78125 15.613281 C 140.726562 15.664062 140.566406 15.683594 140.441406 15.628906 C 140.300781 15.574219 140.355469 15.523438 140.550781 15.523438 C 140.742188 15.503906 140.851562 15.558594 140.78125 15.613281 Z M 295.710938 15.683594 C 295.710938 15.773438 295.640625 15.863281 295.554688 15.863281 C 295.445312 15.863281 295.324219 15.773438 295.269531 15.683594 C 295.21875 15.574219 295.289062 15.503906 295.429688 15.503906 C 295.589844 15.503906 295.710938 15.574219 295.710938 15.683594 Z M 138.851562 15.808594 C 138.671875 15.84375 138.390625 15.84375 138.230469 15.808594 C 138.054688 15.753906 138.195312 15.71875 138.53125 15.71875 C 138.867188 15.71875 139.007812 15.753906 138.851562 15.808594 Z M 136.285156 15.988281 C 136.054688 16.023438 135.664062 16.023438 135.398438 15.988281 C 135.113281 15.953125 135.308594 15.917969 135.789062 15.917969 C 136.285156 15.917969 136.496094 15.953125 136.285156 15.988281 Z M 168.992188 16.273438 C 168.765625 16.507812 168.535156 16.328125 168.710938 16.058594 C 168.765625 15.953125 168.90625 15.917969 169.011719 15.96875 C 169.117188 16.042969 169.117188 16.148438 168.992188 16.273438 Z M 133.628906 16.167969 C 133.398438 16.203125 133.007812 16.203125 132.742188 16.167969 C 132.460938 16.132812 132.65625 16.097656 133.132812 16.097656 C 133.628906 16.097656 133.839844 16.132812 133.628906 16.167969 Z M 324.972656 16.167969 C 324.847656 16.203125 324.636719 16.203125 324.527344 16.167969 C 324.40625 16.113281 324.492188 16.078125 324.742188 16.078125 C 324.988281 16.078125 325.078125 16.113281 324.972656 16.167969 Z M 341.785156 16.167969 C 341.664062 16.203125 341.449219 16.203125 341.34375 16.167969 C 341.21875 16.113281 341.308594 16.078125 341.558594 16.078125 C 341.804688 16.078125 341.894531 16.113281 341.785156 16.167969 Z M 130.882812 16.347656 C 130.601562 16.382812 130.175781 16.382812 129.910156 16.347656 C 129.628906 16.3125 129.859375 16.273438 130.390625 16.273438 C 130.921875 16.273438 131.148438 16.3125 130.882812 16.347656 Z M 329.21875 16.347656 C 328.902344 16.382812 328.371094 16.382812 328.070312 16.347656 C 327.75 16.3125 328 16.273438 328.636719 16.273438 C 329.273438 16.273438 329.519531 16.3125 329.21875 16.347656 Z M 344.796875 16.347656 C 344.566406 16.382812 344.175781 16.382812 343.910156 16.347656 C 343.628906 16.3125 343.824219 16.273438 344.300781 16.273438 C 344.796875 16.273438 345.007812 16.3125 344.796875 16.347656 Z M 127.789062 16.527344 C 127.664062 16.5625 127.449219 16.5625 127.34375 16.527344 C 127.222656 16.472656 127.308594 16.4375 127.558594 16.4375 C 127.804688 16.4375 127.894531 16.472656 127.789062 16.527344 Z M 128.566406 16.507812 C 128.511719 16.5625 128.355469 16.582031 128.230469 16.527344 C 128.089844 16.472656 128.140625 16.417969 128.335938 16.417969 C 128.53125 16.402344 128.636719 16.453125 128.566406 16.507812 Z M 332.496094 16.527344 C 332.230469 16.5625 331.75 16.5625 331.433594 16.527344 C 331.113281 16.492188 331.324219 16.453125 331.910156 16.453125 C 332.496094 16.453125 332.757812 16.492188 332.496094 16.527344 Z M 347.273438 16.527344 C 347.042969 16.5625 346.65625 16.5625 346.390625 16.527344 C 346.105469 16.492188 346.300781 16.453125 346.777344 16.453125 C 347.273438 16.453125 347.488281 16.492188 347.273438 16.527344 Z M 335.769531 16.707031 C 335.539062 16.742188 335.148438 16.742188 334.882812 16.707031 C 334.601562 16.667969 334.796875 16.632812 335.273438 16.632812 C 335.769531 16.632812 335.980469 16.667969 335.769531 16.707031 Z M 338.601562 16.886719 C 338.371094 16.921875 338.015625 16.921875 337.804688 16.886719 C 337.574219 16.847656 337.75 16.8125 338.195312 16.8125 C 338.636719 16.8125 338.8125 16.847656 338.601562 16.886719 Z M 341.785156 17.0625 C 341.558594 17.101562 341.167969 17.101562 340.902344 17.0625 C 340.617188 17.027344 340.8125 16.992188 341.292969 16.992188 C 341.785156 16.992188 342 17.027344 341.785156 17.0625 Z M 68.613281 18.910156 C 68.613281 19.019531 68.207031 19.074219 67.695312 19.054688 L 66.753906 19.039062 L 67.550781 18.910156 C 67.996094 18.839844 68.402344 18.769531 68.488281 18.769531 C 68.5625 18.75 68.613281 18.804688 68.613281 18.910156 Z M 69.144531 18.804688 C 69.144531 18.859375 69.074219 18.949219 68.96875 19 C 68.878906 19.054688 68.792969 19.019531 68.792969 18.929688 C 68.792969 18.820312 68.878906 18.730469 68.96875 18.730469 C 69.074219 18.730469 69.144531 18.769531 69.144531 18.804688 Z M 66.667969 18.984375 C 66.667969 19.039062 66.597656 19.128906 66.488281 19.179688 C 66.402344 19.234375 66.3125 19.199219 66.3125 19.109375 C 66.3125 19 66.402344 18.910156 66.488281 18.910156 C 66.597656 18.910156 66.667969 18.949219 66.667969 18.984375 Z M 158.320312 19.214844 C 158.144531 19.253906 157.859375 19.253906 157.699219 19.214844 C 157.523438 19.164062 157.664062 19.128906 158.003906 19.128906 C 158.339844 19.128906 158.480469 19.164062 158.320312 19.214844 Z M 45.019531 22.246094 C 44.964844 22.300781 44.808594 22.320312 44.683594 22.265625 C 44.542969 22.210938 44.59375 22.15625 44.789062 22.15625 C 44.984375 22.140625 45.089844 22.195312 45.019531 22.246094 Z M 45.726562 22.246094 C 45.675781 22.300781 45.515625 22.320312 45.390625 22.265625 C 45.25 22.210938 45.300781 22.15625 45.496094 22.15625 C 45.691406 22.140625 45.796875 22.195312 45.726562 22.246094 Z M 43.070312 22.445312 C 42.71875 22.480469 42.152344 22.480469 41.832031 22.445312 C 41.53125 22.410156 41.832031 22.375 42.503906 22.375 C 43.195312 22.375 43.445312 22.410156 43.070312 22.445312 Z M 37.992188 22.785156 C 30.488281 23.378906 22.148438 24.308594 21.902344 24.578125 C 21.847656 24.652344 22.753906 24.652344 23.921875 24.578125 C 25.089844 24.527344 26.804688 24.417969 27.726562 24.382812 C 28.644531 24.328125 29.867188 24.238281 30.433594 24.183594 C 31.25 24.113281 31.441406 24.148438 31.441406 24.363281 C 31.441406 24.507812 31.335938 24.667969 31.230469 24.722656 C 31 24.8125 32.699219 24.742188 35.425781 24.542969 C 36.203125 24.472656 36.804688 24.472656 36.753906 24.527344 C 36.648438 24.632812 28.523438 25.332031 26.753906 25.386719 C 26.273438 25.40625 25.546875 25.476562 25.160156 25.566406 C 24.769531 25.636719 23.691406 25.761719 22.769531 25.816406 C 20.804688 25.960938 20.664062 25.976562 18.699219 26.230469 C 17.867188 26.335938 16.238281 26.480469 15.070312 26.535156 C 13.902344 26.589844 11.636719 26.714844 10.023438 26.820312 C 7.421875 27.019531 6.964844 27 5.722656 26.714844 C 4.679688 26.480469 4.273438 26.300781 4.078125 25.976562 C 3.527344 25.136719 4.078125 24.992188 8.167969 24.921875 C 9.832031 24.882812 12.894531 24.6875 14.980469 24.488281 C 18.203125 24.183594 29.335938 23.269531 36.574219 22.714844 C 37.691406 22.625 39.125 22.550781 39.761719 22.550781 C 40.398438 22.550781 39.601562 22.660156 37.992188 22.785156 Z M 6.132812 23.59375 C 6.132812 23.71875 5.050781 23.933594 4.449219 23.933594 C 4.113281 23.914062 4.113281 23.914062 4.433594 23.664062 C 4.75 23.414062 6.132812 23.359375 6.132812 23.59375 Z M 32.503906 24.328125 C 32.503906 24.417969 32.382812 24.472656 32.238281 24.472656 C 32.097656 24.472656 31.921875 24.472656 31.851562 24.488281 C 31.777344 24.488281 31.691406 24.417969 31.65625 24.328125 C 31.621094 24.21875 31.796875 24.167969 32.0625 24.183594 C 32.308594 24.183594 32.503906 24.257812 32.503906 24.328125 Z M 37.40625 24.578125 C 37.355469 24.632812 37.195312 24.652344 37.070312 24.597656 C 36.929688 24.542969 36.984375 24.488281 37.179688 24.488281 C 37.371094 24.472656 37.480469 24.527344 37.40625 24.578125 Z M 37.40625 24.578125 " fill-opacity="1" fill-rule="nonzero"/></g><path fill="rgb(0%, 0%, 0%)" d="M 222.609375 13.746094 C 222.609375 13.816406 222.714844 13.890625 222.855469 13.890625 C 223 13.890625 223.15625 13.816406 223.210938 13.746094 C 223.246094 13.675781 223.140625 13.601562 222.945312 13.601562 C 222.769531 13.601562 222.609375 13.675781 222.609375 13.746094 Z M 222.609375 13.746094 " fill-opacity="1" fill-rule="nonzero"/><path fill="rgb(0%, 0%, 0%)" d="M 30.117188 24.832031 C 29.972656 25.0625 30.203125 25.0625 30.558594 24.832031 C 30.789062 24.6875 30.789062 24.652344 30.523438 24.652344 C 30.363281 24.652344 30.167969 24.722656 30.117188 24.832031 Z M 30.117188 24.832031 " fill-opacity="1" fill-rule="nonzero"/><path fill="rgb(0%, 0%, 0%)" d="M 349.523438 16.957031 C 349.523438 17.046875 349.609375 17.082031 349.699219 17.027344 C 349.804688 16.976562 349.875 16.886719 349.875 16.832031 C 349.875 16.796875 349.804688 16.757812 349.699219 16.757812 C 349.609375 16.757812 349.523438 16.847656 349.523438 16.957031 Z M 349.523438 16.957031 " fill-opacity="1" fill-rule="nonzero"/></svg>