<svg xmlns="http://www.w3.org/2000/svg" xmlns:xlink="http://www.w3.org/1999/xlink" width="300" zoomAndPan="magnify" viewBox="0 0 224.87999 225" height="300" preserveAspectRatio="xMidYMid meet" version="1.0"><defs><clipPath id="id1"><path d="M 61 15 L 217 15 L 217 166 L 61 166 Z M 61 15 " clip-rule="nonzero"/></clipPath><clipPath id="id2"><path d="M 275.957031 81.289062 L 77.523438 269.65625 L -43.238281 142.441406 L 155.195312 -45.925781 Z M 275.957031 81.289062 " clip-rule="nonzero"/></clipPath><clipPath id="id3"><path d="M 275.957031 81.289062 L 51.96875 293.914062 L -68.792969 166.695312 L 155.195312 -45.925781 Z M 275.957031 81.289062 " clip-rule="nonzero"/></clipPath><clipPath id="id4"><path d="M 275.957031 81.289062 L 51.96875 293.914062 L -68.792969 166.695312 L 155.195312 -45.925781 Z M 275.957031 81.289062 " clip-rule="nonzero"/></clipPath><clipPath id="id5"><path d="M 36 136 L 89 136 L 89 190 L 36 190 Z M 36 136 " clip-rule="nonzero"/></clipPath><clipPath id="id6"><path d="M 275.957031 81.289062 L 77.523438 269.65625 L -43.238281 142.441406 L 155.195312 -45.925781 Z M 275.957031 81.289062 " clip-rule="nonzero"/></clipPath><clipPath id="id7"><path d="M 275.957031 81.289062 L 51.96875 293.914062 L -68.792969 166.695312 L 155.195312 -45.925781 Z M 275.957031 81.289062 " clip-rule="nonzero"/></clipPath><clipPath id="id8"><path d="M 275.957031 81.289062 L 51.96875 293.914062 L -68.792969 166.695312 L 155.195312 -45.925781 Z M 275.957031 81.289062 " clip-rule="nonzero"/></clipPath><clipPath id="id9"><path d="M 6 164 L 59 164 L 59 218 L 6 218 Z M 6 164 " clip-rule="nonzero"/></clipPath><clipPath id="id10"><path d="M 275.957031 81.289062 L 77.523438 269.65625 L -43.238281 142.441406 L 155.195312 -45.925781 Z M 275.957031 81.289062 " clip-rule="nonzero"/></clipPath><clipPath id="id11"><path d="M 275.957031 81.289062 L 51.96875 293.914062 L -68.792969 166.695312 L 155.195312 -45.925781 Z M 275.957031 81.289062 " clip-rule="nonzero"/></clipPath><clipPath id="id12"><path d="M 275.957031 81.289062 L 51.96875 293.914062 L -68.792969 166.695312 L 155.195312 -45.925781 Z M 275.957031 81.289062 " clip-rule="nonzero"/></clipPath><clipPath id="id13"><path d="M 0 192 L 29 192 L 29 224.9375 L 0 224.9375 Z M 0 192 " clip-rule="nonzero"/></clipPath><clipPath id="id14"><path d="M 275.957031 81.289062 L 77.523438 269.65625 L -43.238281 142.441406 L 155.195312 -45.925781 Z M 275.957031 81.289062 " clip-rule="nonzero"/></clipPath><clipPath id="id15"><path d="M 275.957031 81.289062 L 51.96875 293.914062 L -68.792969 166.695312 L 155.195312 -45.925781 Z M 275.957031 81.289062 " clip-rule="nonzero"/></clipPath><clipPath id="id16"><path d="M 275.957031 81.289062 L 51.96875 293.914062 L -68.792969 166.695312 L 155.195312 -45.925781 Z M 275.957031 81.289062 " clip-rule="nonzero"/></clipPath><clipPath id="id17"><path d="M 59 17 L 216 17 L 216 169 L 59 169 Z M 59 17 " clip-rule="nonzero"/></clipPath><clipPath id="id18"><path d="M 275.953125 83.679688 L 75.339844 274.109375 L -46.96875 145.261719 L 153.644531 -45.167969 Z M 275.953125 83.679688 " clip-rule="nonzero"/></clipPath><clipPath id="id19"><path d="M 275.953125 83.679688 L 49.246094 298.882812 L -73.0625 170.035156 L 153.644531 -45.167969 Z M 275.953125 83.679688 " clip-rule="nonzero"/></clipPath><clipPath id="id20"><path d="M 275.953125 83.679688 L 49.246094 298.882812 L -73.0625 170.035156 L 153.644531 -45.167969 Z M 275.953125 83.679688 " clip-rule="nonzero"/></clipPath><clipPath id="id21"><path d="M 33 139 L 87 139 L 87 194 L 33 194 Z M 33 139 " clip-rule="nonzero"/></clipPath><clipPath id="id22"><path d="M 275.953125 83.679688 L 75.339844 274.109375 L -46.96875 145.261719 L 153.644531 -45.167969 Z M 275.953125 83.679688 " clip-rule="nonzero"/></clipPath><clipPath id="id23"><path d="M 275.953125 83.679688 L 49.246094 298.882812 L -73.0625 170.035156 L 153.644531 -45.167969 Z M 275.953125 83.679688 " clip-rule="nonzero"/></clipPath><clipPath id="id24"><path d="M 275.953125 83.679688 L 49.246094 298.882812 L -73.0625 170.035156 L 153.644531 -45.167969 Z M 275.953125 83.679688 " clip-rule="nonzero"/></clipPath><clipPath id="id25"><path d="M 2 167 L 56 167 L 56 222 L 2 222 Z M 2 167 " clip-rule="nonzero"/></clipPath><clipPath id="id26"><path d="M 275.953125 83.679688 L 75.339844 274.109375 L -46.96875 145.261719 L 153.644531 -45.167969 Z M 275.953125 83.679688 " clip-rule="nonzero"/></clipPath><clipPath id="id27"><path d="M 275.953125 83.679688 L 49.246094 298.882812 L -73.0625 170.035156 L 153.644531 -45.167969 Z M 275.953125 83.679688 " clip-rule="nonzero"/></clipPath><clipPath id="id28"><path d="M 275.953125 83.679688 L 49.246094 298.882812 L -73.0625 170.035156 L 153.644531 -45.167969 Z M 275.953125 83.679688 " clip-rule="nonzero"/></clipPath><clipPath id="id29"><path d="M 0 196 L 26 196 L 26 224.9375 L 0 224.9375 Z M 0 196 " clip-rule="nonzero"/></clipPath><clipPath id="id30"><path d="M 275.953125 83.679688 L 75.339844 274.109375 L -46.96875 145.261719 L 153.644531 -45.167969 Z M 275.953125 83.679688 " clip-rule="nonzero"/></clipPath><clipPath id="id31"><path d="M 275.953125 83.679688 L 49.246094 298.882812 L -73.0625 170.035156 L 153.644531 -45.167969 Z M 275.953125 83.679688 " clip-rule="nonzero"/></clipPath><clipPath id="id32"><path d="M 275.953125 83.679688 L 49.246094 298.882812 L -73.0625 170.035156 L 153.644531 -45.167969 Z M 275.953125 83.679688 " clip-rule="nonzero"/></clipPath><clipPath id="id33"><path d="M 57 16 L 213 16 L 213 167 L 57 167 Z M 57 16 " clip-rule="nonzero"/></clipPath><clipPath id="id34"><path d="M 272.042969 82.035156 L 73.609375 270.402344 L -47.152344 143.1875 L 151.28125 -45.179688 Z M 272.042969 82.035156 " clip-rule="nonzero"/></clipPath><clipPath id="id35"><path d="M 272.042969 82.035156 L 48.054688 294.660156 L -72.707031 167.441406 L 151.28125 -45.179688 Z M 272.042969 82.035156 " clip-rule="nonzero"/></clipPath><clipPath id="id36"><path d="M 272.042969 82.035156 L 48.054688 294.660156 L -72.707031 167.441406 L 151.28125 -45.179688 Z M 272.042969 82.035156 " clip-rule="nonzero"/></clipPath><clipPath id="id37"><path d="M 32 136 L 85 136 L 85 191 L 32 191 Z M 32 136 " clip-rule="nonzero"/></clipPath><clipPath id="id38"><path d="M 272.042969 82.035156 L 73.609375 270.402344 L -47.152344 143.1875 L 151.28125 -45.179688 Z M 272.042969 82.035156 " clip-rule="nonzero"/></clipPath><clipPath id="id39"><path d="M 272.042969 82.035156 L 48.054688 294.660156 L -72.707031 167.441406 L 151.28125 -45.179688 Z M 272.042969 82.035156 " clip-rule="nonzero"/></clipPath><clipPath id="id40"><path d="M 272.042969 82.035156 L 48.054688 294.660156 L -72.707031 167.441406 L 151.28125 -45.179688 Z M 272.042969 82.035156 " clip-rule="nonzero"/></clipPath><clipPath id="id41"><path d="M 2 165 L 55 165 L 55 219 L 2 219 Z M 2 165 " clip-rule="nonzero"/></clipPath><clipPath id="id42"><path d="M 272.042969 82.035156 L 73.609375 270.402344 L -47.152344 143.1875 L 151.28125 -45.179688 Z M 272.042969 82.035156 " clip-rule="nonzero"/></clipPath><clipPath id="id43"><path d="M 272.042969 82.035156 L 48.054688 294.660156 L -72.707031 167.441406 L 151.28125 -45.179688 Z M 272.042969 82.035156 " clip-rule="nonzero"/></clipPath><clipPath id="id44"><path d="M 272.042969 82.035156 L 48.054688 294.660156 L -72.707031 167.441406 L 151.28125 -45.179688 Z M 272.042969 82.035156 " clip-rule="nonzero"/></clipPath><clipPath id="id45"><path d="M 0 193 L 25 193 L 25 224.9375 L 0 224.9375 Z M 0 193 " clip-rule="nonzero"/></clipPath><clipPath id="id46"><path d="M 272.042969 82.035156 L 73.609375 270.402344 L -47.152344 143.1875 L 151.28125 -45.179688 Z M 272.042969 82.035156 " clip-rule="nonzero"/></clipPath><clipPath id="id47"><path d="M 272.042969 82.035156 L 48.054688 294.660156 L -72.707031 167.441406 L 151.28125 -45.179688 Z M 272.042969 82.035156 " clip-rule="nonzero"/></clipPath><clipPath id="id48"><path d="M 272.042969 82.035156 L 48.054688 294.660156 L -72.707031 167.441406 L 151.28125 -45.179688 Z M 272.042969 82.035156 " clip-rule="nonzero"/></clipPath></defs><g clip-path="url(#id1)"><g clip-path="url(#id2)"><g clip-path="url(#id3)"><g clip-path="url(#id4)"><path fill="#000000" d="M 105.96875 163.886719 L 147.03125 124.90625 L 182.417969 162.183594 C 183.835938 163.675781 185.644531 164.085938 187.84375 163.414062 C 189.671875 163.097656 190.808594 161.304688 191.222656 159.496094 L 216.734375 21.890625 C 216.769531 20.433594 216.457031 18.609375 215.394531 17.488281 C 214.332031 16.371094 212.523438 15.960938 211.070312 15.925781 L 72.324219 34.242188 C 71.222656 34.578125 70.121094 34.914062 69.375 35.621094 C 68.628906 36.332031 68.253906 36.683594 67.863281 37.765625 C 67.449219 39.574219 67.765625 41.402344 69.179688 42.894531 L 104.566406 80.171875 L 63.503906 119.152344 C 61.261719 121.277344 61.183594 124.1875 63.308594 126.425781 L 98.695312 163.703125 C 100.820312 165.941406 103.726562 166.011719 105.96875 163.886719 Z M 74.3125 123.066406 L 115.378906 84.082031 C 117.617188 81.957031 117.695312 79.050781 115.574219 76.8125 L 83.726562 43.261719 L 205.316406 27.058594 L 182.808594 147.640625 L 150.960938 114.089844 C 148.835938 111.855469 145.929688 111.78125 143.6875 113.90625 L 102.625 152.886719 Z M 74.3125 123.066406 " fill-opacity="1" fill-rule="nonzero"/></g></g></g></g><g clip-path="url(#id5)"><g clip-path="url(#id6)"><g clip-path="url(#id7)"><g clip-path="url(#id8)"><path fill="#000000" d="M 83.570312 185.148438 C 89.914062 179.125 90.167969 169.671875 84.152344 163.335938 L 62.917969 140.96875 C 56.902344 134.628906 47.449219 134.390625 41.105469 140.414062 C 34.757812 146.441406 34.503906 155.894531 40.519531 162.230469 L 61.753906 184.597656 C 67.769531 190.933594 77.222656 191.171875 83.570312 185.148438 Z M 47.988281 155.140625 C 45.863281 152.90625 45.941406 149.996094 48.183594 147.871094 C 50.421875 145.746094 53.332031 145.820312 55.453125 148.054688 L 76.6875 170.421875 C 78.808594 172.660156 78.730469 175.566406 76.492188 177.695312 C 74.25 179.820312 71.34375 179.746094 69.21875 177.507812 Z M 47.988281 155.140625 " fill-opacity="1" fill-rule="nonzero"/></g></g></g></g><g clip-path="url(#id9)"><g clip-path="url(#id10)"><g clip-path="url(#id11)"><g clip-path="url(#id12)"><path fill="#000000" d="M 53.703125 213.5 C 60.050781 207.472656 60.304688 198.023438 54.289062 191.683594 L 33.054688 169.316406 C 27.039062 162.980469 17.585938 162.742188 11.238281 168.765625 C 4.894531 174.789062 4.640625 184.242188 10.65625 190.578125 L 31.886719 212.945312 C 37.902344 219.285156 47.355469 219.523438 53.703125 213.5 Z M 18.121094 183.492188 C 16 181.253906 16.078125 178.347656 18.316406 176.222656 C 20.554688 174.09375 23.464844 174.167969 25.589844 176.40625 L 46.820312 198.773438 C 48.945312 201.007812 48.867188 203.917969 46.625 206.042969 C 44.386719 208.167969 41.476562 208.097656 39.355469 205.859375 Z M 18.121094 183.492188 " fill-opacity="1" fill-rule="nonzero"/></g></g></g></g><g clip-path="url(#id13)"><g clip-path="url(#id14)"><g clip-path="url(#id15)"><g clip-path="url(#id16)"><path fill="#000000" d="M 23.839844 241.847656 C 30.183594 235.824219 30.4375 226.371094 24.421875 220.035156 L 3.191406 197.667969 C -2.824219 191.328125 -12.277344 191.089844 -18.625 197.113281 C -24.972656 203.140625 -25.226562 212.59375 -19.207031 218.929688 L 2.023438 241.296875 C 8.039062 247.632812 17.492188 247.875 23.839844 241.847656 Z M -11.742188 211.839844 C -13.867188 209.605469 -13.789062 206.695312 -11.546875 204.570312 C -9.308594 202.445312 -6.398438 202.519531 -4.277344 204.753906 L 16.957031 227.121094 C 19.078125 229.359375 19 232.265625 16.761719 234.394531 C 14.519531 236.519531 11.613281 236.445312 9.488281 234.207031 Z M -11.742188 211.839844 " fill-opacity="1" fill-rule="nonzero"/></g></g></g></g><g clip-path="url(#id17)"><g clip-path="url(#id18)"><g clip-path="url(#id19)"><g clip-path="url(#id20)"><path fill="#000000" d="M 103.875 167.25 L 145.4375 127.796875 L 181.277344 165.554688 C 182.710938 167.066406 184.542969 167.480469 186.769531 166.800781 C 188.621094 166.480469 189.773438 164.667969 190.191406 162.839844 L 215.96875 23.515625 C 216.007812 22.042969 215.6875 20.195312 214.613281 19.0625 C 213.539062 17.929688 211.707031 17.511719 210.234375 17.476562 L 69.761719 35.96875 C 68.648438 36.308594 67.535156 36.648438 66.777344 37.367188 C 66.023438 38.085938 65.644531 38.441406 65.246094 39.539062 C 64.828125 41.367188 65.148438 43.21875 66.582031 44.730469 L 102.425781 82.488281 L 60.863281 121.941406 C 58.59375 124.09375 58.515625 127.039062 60.667969 129.304688 L 96.511719 167.0625 C 98.660156 169.328125 101.605469 169.402344 103.875 167.25 Z M 71.808594 125.90625 L 113.371094 86.453125 C 115.640625 84.300781 115.71875 81.355469 113.566406 79.089844 L 81.308594 45.109375 L 204.410156 28.746094 L 181.667969 150.832031 L 149.410156 116.847656 C 147.257812 114.582031 144.3125 114.507812 142.046875 116.660156 L 100.484375 156.113281 Z M 71.808594 125.90625 " fill-opacity="1" fill-rule="nonzero"/></g></g></g></g><g clip-path="url(#id21)"><g clip-path="url(#id22)"><g clip-path="url(#id23)"><g clip-path="url(#id24)"><path fill="#000000" d="M 81.203125 188.773438 C 87.625 182.675781 87.878906 173.101562 81.785156 166.683594 L 60.28125 144.03125 C 54.1875 137.609375 44.617188 137.363281 38.191406 143.460938 C 31.769531 149.558594 31.515625 159.128906 37.609375 165.550781 L 59.113281 188.203125 C 65.207031 194.625 74.78125 194.871094 81.203125 188.773438 Z M 45.167969 158.375 C 43.015625 156.109375 43.09375 153.167969 45.359375 151.015625 C 47.628906 148.863281 50.574219 148.9375 52.722656 151.203125 L 74.226562 173.859375 C 76.378906 176.125 76.300781 179.066406 74.035156 181.21875 C 71.765625 183.371094 68.820312 183.296875 66.671875 181.03125 Z M 45.167969 158.375 " fill-opacity="1" fill-rule="nonzero"/></g></g></g></g><g clip-path="url(#id25)"><g clip-path="url(#id26)"><g clip-path="url(#id27)"><g clip-path="url(#id28)"><path fill="#000000" d="M 50.976562 217.464844 C 57.398438 211.367188 57.652344 201.796875 51.558594 195.378906 L 30.050781 172.722656 C 23.960938 166.304688 14.386719 166.058594 7.964844 172.15625 C 1.542969 178.253906 1.289062 187.824219 7.382812 194.242188 L 28.886719 216.898438 C 34.980469 223.316406 44.550781 223.5625 50.976562 217.464844 Z M 14.9375 187.070312 C 12.789062 184.804688 12.867188 181.859375 15.132812 179.707031 C 17.398438 177.554688 20.34375 177.632812 22.496094 179.898438 L 44 202.550781 C 46.152344 204.816406 46.074219 207.761719 43.804688 209.914062 C 41.539062 212.066406 38.59375 211.992188 36.445312 209.726562 Z M 14.9375 187.070312 " fill-opacity="1" fill-rule="nonzero"/></g></g></g></g><g clip-path="url(#id29)"><g clip-path="url(#id30)"><g clip-path="url(#id31)"><g clip-path="url(#id32)"><path fill="#000000" d="M 20.746094 246.160156 C 27.171875 240.0625 27.421875 230.492188 21.332031 224.070312 L -0.175781 201.417969 C -6.269531 194.996094 -15.839844 194.753906 -22.261719 200.847656 C -28.6875 206.945312 -28.9375 216.519531 -22.847656 222.9375 L -1.339844 245.59375 C 4.753906 252.011719 14.324219 252.257812 20.746094 246.160156 Z M -15.289062 215.761719 C -17.4375 213.5 -17.363281 210.554688 -15.09375 208.402344 C -12.828125 206.25 -9.882812 206.324219 -7.730469 208.589844 L 13.773438 231.246094 C 15.921875 233.511719 15.847656 236.457031 13.578125 238.609375 C 11.3125 240.757812 8.367188 240.683594 6.214844 238.417969 Z M -15.289062 215.761719 " fill-opacity="1" fill-rule="nonzero"/></g></g></g></g><g clip-path="url(#id33)"><g clip-path="url(#id34)"><g clip-path="url(#id35)"><g clip-path="url(#id36)"><path fill="#000000" d="M 102.054688 164.632812 L 143.117188 125.652344 L 178.503906 162.929688 C 179.921875 164.421875 181.730469 164.832031 183.929688 164.160156 C 185.757812 163.84375 186.898438 162.050781 187.308594 160.246094 L 212.820312 22.636719 C 212.859375 21.183594 212.542969 19.355469 211.480469 18.238281 C 210.421875 17.117188 208.613281 16.710938 207.15625 16.671875 L 68.410156 34.988281 C 67.308594 35.324219 66.210938 35.660156 65.460938 36.367188 C 64.714844 37.078125 64.34375 37.433594 63.949219 38.511719 C 63.539062 40.320312 63.851562 42.148438 65.265625 43.640625 L 100.652344 80.917969 L 59.589844 119.898438 C 57.351562 122.027344 57.273438 124.933594 59.394531 127.171875 L 94.78125 164.449219 C 96.90625 166.6875 99.8125 166.761719 102.054688 164.632812 Z M 70.402344 123.8125 L 111.464844 84.832031 C 113.707031 82.703125 113.78125 79.796875 111.660156 77.558594 L 79.8125 44.007812 L 201.402344 27.804688 L 178.894531 148.390625 L 147.046875 114.839844 C 144.921875 112.601562 142.015625 112.527344 139.773438 114.652344 L 98.710938 153.636719 Z M 70.402344 123.8125 " fill-opacity="1" fill-rule="nonzero"/></g></g></g></g><g clip-path="url(#id37)"><g clip-path="url(#id38)"><g clip-path="url(#id39)"><g clip-path="url(#id40)"><path fill="#000000" d="M 79.65625 185.898438 C 86 179.871094 86.253906 170.417969 80.238281 164.082031 L 59.007812 141.714844 C 52.992188 135.378906 43.539062 135.136719 37.191406 141.164062 C 30.84375 147.1875 30.59375 156.640625 36.609375 162.976562 L 57.839844 185.34375 C 63.855469 191.679688 73.308594 191.921875 79.65625 185.898438 Z M 44.074219 155.890625 C 41.949219 153.652344 42.027344 150.746094 44.269531 148.617188 C 46.507812 146.492188 49.417969 146.566406 51.539062 148.800781 L 72.773438 171.167969 C 74.894531 173.40625 74.816406 176.316406 72.578125 178.441406 C 70.339844 180.566406 67.429688 180.492188 65.304688 178.257812 Z M 44.074219 155.890625 " fill-opacity="1" fill-rule="nonzero"/></g></g></g></g><g clip-path="url(#id41)"><g clip-path="url(#id42)"><g clip-path="url(#id43)"><g clip-path="url(#id44)"><path fill="#000000" d="M 49.789062 214.246094 C 56.136719 208.222656 56.390625 198.769531 50.375 192.429688 L 29.140625 170.0625 C 23.125 163.726562 13.671875 163.488281 7.328125 169.511719 C 0.980469 175.535156 0.726562 184.988281 6.742188 191.328125 L 27.976562 213.695312 C 33.992188 220.03125 43.445312 220.269531 49.789062 214.246094 Z M 14.210938 184.238281 C 12.085938 182.003906 12.164062 179.09375 14.402344 176.96875 C 16.644531 174.84375 19.550781 174.914062 21.675781 177.152344 L 42.90625 199.519531 C 45.03125 201.757812 44.953125 204.664062 42.710938 206.789062 C 40.472656 208.917969 37.5625 208.84375 35.441406 206.605469 Z M 14.210938 184.238281 " fill-opacity="1" fill-rule="nonzero"/></g></g></g></g><g clip-path="url(#id45)"><g clip-path="url(#id46)"><g clip-path="url(#id47)"><g clip-path="url(#id48)"><path fill="#000000" d="M 19.925781 242.597656 C 26.273438 236.570312 26.523438 227.117188 20.507812 220.78125 L -0.722656 198.414062 C -6.738281 192.078125 -16.191406 191.835938 -22.539062 197.863281 C -28.886719 203.886719 -29.136719 213.339844 -23.121094 219.675781 L -1.890625 242.042969 C 4.125 248.378906 13.578125 248.621094 19.925781 242.597656 Z M -15.65625 212.589844 C -17.777344 210.351562 -17.703125 207.445312 -15.460938 205.316406 C -13.222656 203.191406 -10.3125 203.265625 -8.191406 205.5 L 13.042969 227.867188 C 15.164062 230.105469 15.085938 233.015625 12.847656 235.140625 C 10.609375 237.265625 7.699219 237.191406 5.578125 234.957031 Z M -15.65625 212.589844 " fill-opacity="1" fill-rule="nonzero"/></g></g></g></g></svg>