<svg width="40" height="41" viewBox="0 0 40 41" fill="none" xmlns="http://www.w3.org/2000/svg">
<rect width="40" height="39.1111" rx="19.5556" fill="url(#paint0_linear_8_38)"/>
<rect width="40" height="39.1111" rx="19.5556" fill="#EF00F4" fill-opacity="0.2"/>
<g filter="url(#filter0_bi_8_38)">
<path d="M34 34.3867V37.3417C34 39.2538 32.6 40.6444 31.0444 40.6444H8.95556C7.24444 40.6444 6 39.08 6 37.3417V34.3867C6 29.1719 9.73333 25 14.4 25H15.4889C16.8889 25.6953 18.4444 26.043 20 26.043C21.5556 26.043 23.1111 25.6953 24.5111 25H25.6C30.2667 25 34 29.1719 34 34.3867Z" fill="white" fill-opacity="0.46"/>
</g>
<path d="M20 22.4222C23.866 22.4222 27 19.3579 27 15.5778C27 11.7977 23.866 8.73334 20 8.73334C16.134 8.73334 13 11.7977 13 15.5778C13 19.3579 16.134 22.4222 20 22.4222Z" fill="white"/>
<defs>
<filter id="filter0_bi_8_38" x="2" y="21" width="36" height="23.6445" filterUnits="userSpaceOnUse" color-interpolation-filters="sRGB">
<feFlood flood-opacity="0" result="BackgroundImageFix"/>
<feGaussianBlur in="BackgroundImage" stdDeviation="2"/>
<feComposite in2="SourceAlpha" operator="in" result="effect1_backgroundBlur_8_38"/>
<feBlend mode="normal" in="SourceGraphic" in2="effect1_backgroundBlur_8_38" result="shape"/>
<feColorMatrix in="SourceAlpha" type="matrix" values="0 0 0 0 0 0 0 0 0 0 0 0 0 0 0 0 0 0 127 0" result="hardAlpha"/>
<feOffset dx="0.2" dy="0.1"/>
<feGaussianBlur stdDeviation="0.5"/>
<feComposite in2="hardAlpha" operator="arithmetic" k2="-1" k3="1"/>
<feColorMatrix type="matrix" values="0 0 0 0 1 0 0 0 0 1 0 0 0 0 1 0 0 0 0.6 0"/>
<feBlend mode="normal" in2="shape" result="effect2_innerShadow_8_38"/>
</filter>
<linearGradient id="paint0_linear_8_38" x1="2.71186" y1="11.9322" x2="38.2904" y2="8.46676" gradientUnits="userSpaceOnUse">
<stop stop-color="#E900B5" stop-opacity="0.93"/>
<stop offset="0.354167" stop-color="#F55672" stop-opacity="0.78"/>
<stop offset="0.755208" stop-color="#F5EC07"/>
</linearGradient>
</defs>
</svg>
