<?xml version="1.0" standalone="no"?>
<svg xmlns:xlink="http://www.w3.org/1999/xlink" id="wave" style="transform:rotate(0deg); transition: 0.3s" viewBox="0 0 1440 320" version="1.1" xmlns="http://www.w3.org/2000/svg"><defs><linearGradient id="sw-gradient-0" x1="0" x2="0" y1="1" y2="0"><stop stop-color="rgba(62, 184.748, 243, 0.47)" offset="0%"/><stop stop-color="rgba(255, 11, 251.168, 0.63)" offset="100%"/></linearGradient></defs><path style="transform:translate(0, 0px); opacity:1" fill="url(#sw-gradient-0)" d="M0,0L60,37.3C120,75,240,149,360,186.7C480,224,600,224,720,229.3C840,235,960,245,1080,208C1200,171,1320,85,1440,80C1560,75,1680,149,1800,192C1920,235,2040,245,2160,218.7C2280,192,2400,128,2520,128C2640,128,2760,192,2880,181.3C3000,171,3120,85,3240,80C3360,75,3480,149,3600,192C3720,235,3840,245,3960,240C4080,235,4200,213,4320,202.7C4440,192,4560,192,4680,160C4800,128,4920,64,5040,32C5160,0,5280,0,5400,5.3C5520,11,5640,21,5760,58.7C5880,96,6000,160,6120,181.3C6240,203,6360,181,6480,176C6600,171,6720,181,6840,160C6960,139,7080,85,7200,90.7C7320,96,7440,160,7560,197.3C7680,235,7800,245,7920,250.7C8040,256,8160,256,8280,213.3C8400,171,8520,85,8580,42.7L8640,0L8640,320L8580,320C8520,320,8400,320,8280,320C8160,320,8040,320,7920,320C7800,320,7680,320,7560,320C7440,320,7320,320,7200,320C7080,320,6960,320,6840,320C6720,320,6600,320,6480,320C6360,320,6240,320,6120,320C6000,320,5880,320,5760,320C5640,320,5520,320,5400,320C5280,320,5160,320,5040,320C4920,320,4800,320,4680,320C4560,320,4440,320,4320,320C4200,320,4080,320,3960,320C3840,320,3720,320,3600,320C3480,320,3360,320,3240,320C3120,320,3000,320,2880,320C2760,320,2640,320,2520,320C2400,320,2280,320,2160,320C2040,320,1920,320,1800,320C1680,320,1560,320,1440,320C1320,320,1200,320,1080,320C960,320,840,320,720,320C600,320,480,320,360,320C240,320,120,320,60,320L0,320Z"/><defs><linearGradient id="sw-gradient-1" x1="0" x2="0" y1="1" y2="0"><stop stop-color="rgba(227.447, 62, 243, 1)" offset="0%"/><stop stop-color="rgba(255, 251.168, 11, 1)" offset="100%"/></linearGradient></defs><path style="transform:translate(0, 50px); opacity:0.9" fill="url(#sw-gradient-1)" d="M0,0L60,37.3C120,75,240,149,360,176C480,203,600,181,720,160C840,139,960,117,1080,96C1200,75,1320,53,1440,58.7C1560,64,1680,96,1800,106.7C1920,117,2040,107,2160,117.3C2280,128,2400,160,2520,165.3C2640,171,2760,149,2880,122.7C3000,96,3120,64,3240,48C3360,32,3480,32,3600,74.7C3720,117,3840,203,3960,224C4080,245,4200,203,4320,181.3C4440,160,4560,160,4680,144C4800,128,4920,96,5040,85.3C5160,75,5280,85,5400,117.3C5520,149,5640,203,5760,224C5880,245,6000,235,6120,202.7C6240,171,6360,117,6480,101.3C6600,85,6720,107,6840,106.7C6960,107,7080,85,7200,80C7320,75,7440,85,7560,101.3C7680,117,7800,139,7920,138.7C8040,139,8160,117,8280,133.3C8400,149,8520,203,8580,229.3L8640,256L8640,320L8580,320C8520,320,8400,320,8280,320C8160,320,8040,320,7920,320C7800,320,7680,320,7560,320C7440,320,7320,320,7200,320C7080,320,6960,320,6840,320C6720,320,6600,320,6480,320C6360,320,6240,320,6120,320C6000,320,5880,320,5760,320C5640,320,5520,320,5400,320C5280,320,5160,320,5040,320C4920,320,4800,320,4680,320C4560,320,4440,320,4320,320C4200,320,4080,320,3960,320C3840,320,3720,320,3600,320C3480,320,3360,320,3240,320C3120,320,3000,320,2880,320C2760,320,2640,320,2520,320C2400,320,2280,320,2160,320C2040,320,1920,320,1800,320C1680,320,1560,320,1440,320C1320,320,1200,320,1080,320C960,320,840,320,720,320C600,320,480,320,360,320C240,320,120,320,60,320L0,320Z"/></svg>