<svg xmlns="http://www.w3.org/2000/svg" xmlns:xlink="http://www.w3.org/1999/xlink" viewBox="0 0 842.49 287.33"><defs><style>.cls-1{isolation:isolate;}.cls-2{opacity:0.86;}.cls-3{fill:url(#linear-gradient);}.cls-4{fill:url(#linear-gradient-2);}.cls-5{fill:url(#linear-gradient-3);}.cls-6{fill:url(#linear-gradient-4);}.cls-7{fill:url(#linear-gradient-5);}.cls-8{fill:url(#linear-gradient-6);}.cls-9{fill:url(#linear-gradient-7);}.cls-10{fill:url(#linear-gradient-8);}.cls-11{fill:url(#linear-gradient-9);}.cls-12{fill:url(#linear-gradient-10);}.cls-13{fill:url(#linear-gradient-11);}.cls-14{fill:url(#linear-gradient-12);}.cls-15{fill:url(#linear-gradient-13);}.cls-16{fill:url(#linear-gradient-14);}.cls-17{fill:url(#linear-gradient-15);}.cls-18{fill:url(#linear-gradient-16);}.cls-19{fill:url(#linear-gradient-17);}.cls-20{fill:url(#linear-gradient-18);}.cls-21{fill:url(#linear-gradient-19);}.cls-22{fill:url(#linear-gradient-20);}.cls-23{fill:url(#linear-gradient-21);}.cls-24{fill:url(#linear-gradient-22);}.cls-25{fill:url(#linear-gradient-23);}.cls-26{fill:url(#linear-gradient-24);}.cls-27{fill:url(#linear-gradient-25);}.cls-28{fill:url(#linear-gradient-26);}.cls-29{fill:url(#linear-gradient-27);}.cls-30{fill:url(#linear-gradient-28);}.cls-31{fill:url(#linear-gradient-29);}.cls-32{fill:url(#linear-gradient-30);}.cls-33{fill:url(#linear-gradient-31);}.cls-34{fill:url(#linear-gradient-32);}.cls-35{opacity:0.63;fill:url(#linear-gradient-33);}.cls-36{opacity:0.55;fill:url(#linear-gradient-34);}.cls-37{opacity:0.34;}.cls-38,.cls-43{fill:none;stroke:#fff;}.cls-39{opacity:0.37;fill:url(#linear-gradient-35);}.cls-40{mix-blend-mode:soft-light;opacity:0.28;}.cls-41{fill:#fff;}.cls-42{opacity:0.96;}.cls-43{opacity:0.2;}</style><linearGradient id="linear-gradient" x1="-53.53" y1="316.64" x2="1045.47" y2="196.64" gradientUnits="userSpaceOnUse"><stop offset="0" stop-color="#ffe600"/><stop offset="0.28" stop-color="#ff9503"/><stop offset="0.65" stop-color="#c20092"/><stop offset="1" stop-color="#2c63ff"/></linearGradient><linearGradient id="linear-gradient-2" x1="-52.22" y1="314.44" x2="1039.16" y2="199.15" gradientUnits="userSpaceOnUse"><stop offset="0" stop-color="#ffe605"/><stop offset="0.28" stop-color="#ff9703"/><stop offset="0.65" stop-color="#c10094"/><stop offset="1" stop-color="#2c66ff"/></linearGradient><linearGradient id="linear-gradient-3" x1="-50.89" y1="312.27" x2="1032.84" y2="201.62" gradientUnits="userSpaceOnUse"><stop offset="0" stop-color="#ffe709"/><stop offset="0.28" stop-color="#ff9903"/><stop offset="0.65" stop-color="#c00095"/><stop offset="1" stop-color="#2c6aff"/></linearGradient><linearGradient id="linear-gradient-4" x1="-49.53" y1="310.11" x2="1026.49" y2="204.07" gradientUnits="userSpaceOnUse"><stop offset="0" stop-color="#ffe70e"/><stop offset="0.28" stop-color="#ff9b03"/><stop offset="0.65" stop-color="#bf0097"/><stop offset="1" stop-color="#2c6dff"/></linearGradient><linearGradient id="linear-gradient-5" x1="-48.13" y1="307.99" x2="1020.12" y2="206.5" gradientUnits="userSpaceOnUse"><stop offset="0" stop-color="#ffe713"/><stop offset="0.28" stop-color="#fe9c03"/><stop offset="0.65" stop-color="#bf0198"/><stop offset="1" stop-color="#2c71ff"/></linearGradient><linearGradient id="linear-gradient-6" x1="-46.7" y1="305.9" x2="1013.72" y2="208.91" gradientUnits="userSpaceOnUse"><stop offset="0" stop-color="#ffe818"/><stop offset="0.28" stop-color="#fe9e03"/><stop offset="0.65" stop-color="#be019a"/><stop offset="1" stop-color="#2c74ff"/></linearGradient><linearGradient id="linear-gradient-7" x1="-45.24" y1="303.85" x2="1007.31" y2="211.3" gradientUnits="userSpaceOnUse"><stop offset="0" stop-color="#ffe81c"/><stop offset="0.28" stop-color="#fea003"/><stop offset="0.65" stop-color="#bd019b"/><stop offset="1" stop-color="#2c78ff"/></linearGradient><linearGradient id="linear-gradient-8" x1="-43.75" y1="301.85" x2="1000.89" y2="213.68" gradientUnits="userSpaceOnUse"><stop offset="0" stop-color="#ffe821"/><stop offset="0.28" stop-color="#fea203"/><stop offset="0.65" stop-color="#bc019d"/><stop offset="1" stop-color="#2c7bff"/></linearGradient><linearGradient id="linear-gradient-9" x1="-42.23" y1="299.89" x2="994.43" y2="216.05" gradientUnits="userSpaceOnUse"><stop offset="0" stop-color="#ffe926"/><stop offset="0.28" stop-color="#fea403"/><stop offset="0.65" stop-color="#bb019e"/><stop offset="1" stop-color="#2c7fff"/></linearGradient><linearGradient id="linear-gradient-10" x1="-40.67" y1="297.97" x2="987.97" y2="218.42" gradientUnits="userSpaceOnUse"><stop offset="0" stop-color="#ffe92a"/><stop offset="0.28" stop-color="#fea603"/><stop offset="0.65" stop-color="#ba01a0"/><stop offset="1" stop-color="#2c82ff"/></linearGradient><linearGradient id="linear-gradient-11" x1="-39.09" y1="296.11" x2="981.48" y2="220.78" gradientUnits="userSpaceOnUse"><stop offset="0" stop-color="#ffe92f"/><stop offset="0.28" stop-color="#fda803"/><stop offset="0.65" stop-color="#b902a1"/><stop offset="1" stop-color="#2c86ff"/></linearGradient><linearGradient id="linear-gradient-12" x1="-37.48" y1="294.3" x2="974.99" y2="223.14" gradientUnits="userSpaceOnUse"><stop offset="0" stop-color="#ffea34"/><stop offset="0.28" stop-color="#fdaa03"/><stop offset="0.65" stop-color="#b802a3"/><stop offset="1" stop-color="#2c89ff"/></linearGradient><linearGradient id="linear-gradient-13" x1="-35.84" y1="292.55" x2="968.47" y2="225.5" gradientUnits="userSpaceOnUse"><stop offset="0" stop-color="#ffea39"/><stop offset="0.28" stop-color="#fdab03"/><stop offset="0.65" stop-color="#b802a5"/><stop offset="1" stop-color="#2c8dff"/></linearGradient><linearGradient id="linear-gradient-14" x1="-34.17" y1="290.85" x2="961.93" y2="227.86" gradientUnits="userSpaceOnUse"><stop offset="0" stop-color="#ffea3d"/><stop offset="0.28" stop-color="#fdad03"/><stop offset="0.65" stop-color="#b702a6"/><stop offset="1" stop-color="#2c90ff"/></linearGradient><linearGradient id="linear-gradient-15" x1="-32.47" y1="289.2" x2="955.38" y2="230.21" gradientUnits="userSpaceOnUse"><stop offset="0" stop-color="#ffeb42"/><stop offset="0.28" stop-color="#fdaf03"/><stop offset="0.65" stop-color="#b602a8"/><stop offset="1" stop-color="#2c94ff"/></linearGradient><linearGradient id="linear-gradient-16" x1="-30.74" y1="287.6" x2="948.81" y2="232.56" gradientUnits="userSpaceOnUse"><stop offset="0" stop-color="#ffeb47"/><stop offset="0.28" stop-color="#fdb103"/><stop offset="0.65" stop-color="#b502a9"/><stop offset="1" stop-color="#2c97ff"/></linearGradient><linearGradient id="linear-gradient-17" x1="-28.99" y1="286.06" x2="942.24" y2="234.9" gradientUnits="userSpaceOnUse"><stop offset="0" stop-color="#ffeb4b"/><stop offset="0.28" stop-color="#fcb303"/><stop offset="0.65" stop-color="#b403ab"/><stop offset="1" stop-color="#2c9bff"/></linearGradient><linearGradient id="linear-gradient-18" x1="-27.22" y1="284.57" x2="935.64" y2="237.24" gradientUnits="userSpaceOnUse"><stop offset="0" stop-color="#ffeb50"/><stop offset="0.28" stop-color="#fcb503"/><stop offset="0.65" stop-color="#b303ac"/><stop offset="1" stop-color="#2c9eff"/></linearGradient><linearGradient id="linear-gradient-19" x1="-25.41" y1="283.13" x2="929.03" y2="239.57" gradientUnits="userSpaceOnUse"><stop offset="0" stop-color="#ffec55"/><stop offset="0.28" stop-color="#fcb703"/><stop offset="0.65" stop-color="#b203ae"/><stop offset="1" stop-color="#2ca2ff"/></linearGradient><linearGradient id="linear-gradient-20" x1="-23.59" y1="281.74" x2="922.4" y2="241.88" gradientUnits="userSpaceOnUse"><stop offset="0" stop-color="#ffec59"/><stop offset="0.28" stop-color="#fcb903"/><stop offset="0.65" stop-color="#b103af"/><stop offset="1" stop-color="#2ca5ff"/></linearGradient><linearGradient id="linear-gradient-21" x1="-21.74" y1="280.39" x2="915.77" y2="244.19" gradientUnits="userSpaceOnUse"><stop offset="0" stop-color="#ffec5e"/><stop offset="0.28" stop-color="#fcba03"/><stop offset="0.65" stop-color="#b103b1"/><stop offset="1" stop-color="#2ca9ff"/></linearGradient><linearGradient id="linear-gradient-22" x1="-19.87" y1="279.08" x2="909.12" y2="246.47" gradientUnits="userSpaceOnUse"><stop offset="0" stop-color="#ffed63"/><stop offset="0.28" stop-color="#fcbc03"/><stop offset="0.65" stop-color="#b003b3"/><stop offset="1" stop-color="#2cacff"/></linearGradient><linearGradient id="linear-gradient-23" x1="-17.97" y1="277.81" x2="902.45" y2="248.74" gradientUnits="userSpaceOnUse"><stop offset="0" stop-color="#ffed68"/><stop offset="0.28" stop-color="#fbbe03"/><stop offset="0.65" stop-color="#af04b4"/><stop offset="1" stop-color="#2cb0ff"/></linearGradient><linearGradient id="linear-gradient-24" x1="-16.06" y1="276.58" x2="895.76" y2="250.99" gradientUnits="userSpaceOnUse"><stop offset="0" stop-color="#ffed6c"/><stop offset="0.28" stop-color="#fbc003"/><stop offset="0.65" stop-color="#ae04b6"/><stop offset="1" stop-color="#2cb3ff"/></linearGradient><linearGradient id="linear-gradient-25" x1="-14.12" y1="275.39" x2="889.07" y2="253.21" gradientUnits="userSpaceOnUse"><stop offset="0" stop-color="#ffee71"/><stop offset="0.28" stop-color="#fbc203"/><stop offset="0.65" stop-color="#ad04b7"/><stop offset="1" stop-color="#2cb7ff"/></linearGradient><linearGradient id="linear-gradient-26" x1="-12.16" y1="274.24" x2="882.37" y2="255.41" gradientUnits="userSpaceOnUse"><stop offset="0" stop-color="#ffee76"/><stop offset="0.28" stop-color="#fbc403"/><stop offset="0.65" stop-color="#ac04b9"/><stop offset="1" stop-color="#2cbaff"/></linearGradient><linearGradient id="linear-gradient-27" x1="-10.18" y1="273.12" x2="875.65" y2="257.58" gradientUnits="userSpaceOnUse"><stop offset="0" stop-color="#ffee7a"/><stop offset="0.28" stop-color="#fbc603"/><stop offset="0.65" stop-color="#ab04ba"/><stop offset="1" stop-color="#2cbeff"/></linearGradient><linearGradient id="linear-gradient-28" x1="-8.18" y1="272.03" x2="868.91" y2="259.72" gradientUnits="userSpaceOnUse"><stop offset="0" stop-color="#ffef7f"/><stop offset="0.28" stop-color="#fbc803"/><stop offset="0.65" stop-color="#aa04bc"/><stop offset="1" stop-color="#2cc1ff"/></linearGradient><linearGradient id="linear-gradient-29" x1="-6.17" y1="270.98" x2="862.17" y2="261.84" gradientUnits="userSpaceOnUse"><stop offset="0" stop-color="#ffef84"/><stop offset="0.28" stop-color="#fac903"/><stop offset="0.65" stop-color="#aa05bd"/><stop offset="1" stop-color="#2cc5ff"/></linearGradient><linearGradient id="linear-gradient-30" x1="-4.13" y1="269.96" x2="855.43" y2="263.93" gradientUnits="userSpaceOnUse"><stop offset="0" stop-color="#ffef89"/><stop offset="0.28" stop-color="#facb03"/><stop offset="0.65" stop-color="#a905bf"/><stop offset="1" stop-color="#2cc8ff"/></linearGradient><linearGradient id="linear-gradient-31" x1="-2.07" y1="268.9" x2="848.66" y2="265.91" gradientUnits="userSpaceOnUse"><stop offset="0" stop-color="#fff08d"/><stop offset="0.28" stop-color="#facd03"/><stop offset="0.65" stop-color="#a805c0"/><stop offset="1" stop-color="#2cccff"/></linearGradient><linearGradient id="linear-gradient-32" y1="268.3" x2="841.89" y2="268.3" gradientUnits="userSpaceOnUse"><stop offset="0" stop-color="#fff092"/><stop offset="0.28" stop-color="#facf03"/><stop offset="0.65" stop-color="#a705c2"/><stop offset="1" stop-color="#2ccfff"/></linearGradient><linearGradient id="linear-gradient-33" y1="216.39" x2="841.89" y2="216.39" xlink:href="#linear-gradient-32"/><linearGradient id="linear-gradient-34" x1="766.05" y1="301.35" x2="88.05" y2="295.35" xlink:href="#linear-gradient-32"/><linearGradient id="linear-gradient-35" x1="334.14" y1="337.96" x2="782.14" y2="363.96" xlink:href="#linear-gradient-32"/></defs><g class="cls-1"><g id="Livello_1" data-name="Livello 1"><g class="cls-2"><path class="cls-3" d="M0,238s128-33.65,260-33c203,1,436.78,102,581.89,31v22S736,346,546,318,270,193,0,257Z" transform="translate(0.27 -129.67)"/><path class="cls-4" d="M841.89,236.23v21.58c-6,3.19-113.53,86.87-303,58.13S261.29,196.81,0,258.74V238.19S128.85,204.3,264.68,207C469.18,211.07,701.46,304.94,841.89,236.23Z" transform="translate(0.27 -129.67)"/><path class="cls-5" d="M841.89,236.45v21.16c-12,6.39-121.18,85.74-310.21,56.26S252.58,200.61,0,260.48V238.39S129.7,204.21,269.35,209C475.35,216.06,706.14,302.87,841.89,236.45Z" transform="translate(0.27 -129.67)"/><path class="cls-6" d="M841.89,236.68v20.74c-18,9.58-128.83,84.61-317.37,54.39S243.87,204.42,0,262.23V238.58S130.54,204.09,274,211C481.51,221,710.82,300.81,841.89,236.68Z" transform="translate(0.27 -129.67)"/><path class="cls-7" d="M841.89,236.9v20.33c-24,12.77-136.47,83.48-324.54,52.51S235.16,208.23,0,264v-25.2S131.38,203.94,278.71,213C487.66,225.85,715.5,298.74,841.89,236.9Z" transform="translate(0.27 -129.67)"/><path class="cls-8" d="M841.89,237.13V257c-30,16-144.12,82.36-331.7,50.65S226.45,212,0,265.71V239s132.21-35.22,283.39-24C493.8,230.65,720.18,296.68,841.89,237.13Z" transform="translate(0.27 -129.67)"/><path class="cls-9" d="M841.89,237.35v19.49C805.87,276,690.13,338.06,503,305.61S217.74,215.84,0,267.45V239.16S133,203.54,288.06,217C500,235.4,724.87,294.61,841.89,237.35Z" transform="translate(0.27 -129.67)"/><path class="cls-10" d="M841.89,237.58v19.06c-42,22.36-159.41,80.1-346,46.91S209,219.65,0,269.19V239.36S133.85,203.29,292.74,219C506.08,240.09,729.55,292.55,841.89,237.58Z" transform="translate(0.27 -129.67)"/><path class="cls-11" d="M841.89,237.81v18.64c-48,25.55-167,79-353.18,45S200.32,223.45,0,270.94V239.55S134.68,203,297.42,221C512.23,244.74,734.23,290.48,841.89,237.81Z" transform="translate(0.27 -129.67)"/><path class="cls-12" d="M841.89,238v18.23c-54,28.74-174.7,77.84-360.34,43.16S191.61,227.26,0,272.68V239.74s135.5-37,302.1-16.74C518.37,249.35,738.91,288.42,841.89,238Z" transform="translate(0.27 -129.67)"/><path class="cls-13" d="M841.89,238.26v17.8c-60,31.94-182.34,76.71-367.5,41.3S182.9,231.06,0,274.42V239.94S136.33,202.37,306.77,225C524.51,253.91,743.59,286.36,841.89,238.26Z" transform="translate(0.27 -129.67)"/><path class="cls-14" d="M841.89,238.48v17.39c-66,35.13-190,75.58-374.66,39.42S174.19,234.87,0,276.16v-36S137.15,202,311.45,227C530.66,258.43,748.27,284.29,841.89,238.48Z" transform="translate(0.27 -129.67)"/><path class="cls-15" d="M841.89,238.71v17c-72,38.32-197.63,74.45-381.83,37.55S165.48,238.68,0,277.9V240.32S138,201.62,316.13,229C536.81,262.92,753,282.23,841.89,238.71Z" transform="translate(0.27 -129.67)"/><path class="cls-16" d="M841.89,238.94v16.54c-78,41.52-205.28,73.33-389,35.68S156.77,242.48,0,279.65V240.52S138.82,201.2,320.81,231C543,267.38,757.63,280.16,841.89,238.94Z" transform="translate(0.27 -129.67)"/><path class="cls-17" d="M841.89,239.16v16.13C757.84,300,629,327.48,445.74,289.1S148.06,246.29,0,281.39V240.71s139.66-40,325.48-7.71C549.13,271.81,762.31,278.1,841.89,239.16Z" transform="translate(0.27 -129.67)"/><path class="cls-18" d="M841.89,239.39V255.1c-90,47.9-220.57,71.06-403.31,31.93S139.35,250.1,0,283.13V240.9s140.51-40.61,330.16-5.9C555.3,276.21,767,276,841.89,239.39Z" transform="translate(0.27 -129.67)"/><path class="cls-19" d="M841.89,239.61V254.9C745.83,306,613.68,324.84,431.42,285S130.65,253.9,0,284.87V241.1s141.36-41.3,334.84-4.1C561.48,280.58,771.68,274,841.89,239.61Z" transform="translate(0.27 -129.67)"/><path class="cls-20" d="M841.89,239.84v14.87C739.83,309,606,323.52,424.26,282.9S121.94,257.71,0,286.61V241.29s142.21-42,339.52-2.29C567.66,284.93,776.36,271.9,841.89,239.84Z" transform="translate(0.27 -129.67)"/><path class="cls-21" d="M841.89,240.06v14.46C733.83,312,598.39,322.19,417.1,280.84S113.23,261.52,0,288.35V241.48s143.08-42.74,344.19-.48C573.85,289.25,781,269.84,841.89,240.06Z" transform="translate(0.27 -129.67)"/><path class="cls-22" d="M841.89,240.29v14C727.82,315,590.74,320.87,409.94,278.77S104.52,265.32,0,290.1V241.68S144,198.19,348.87,243C580.05,293.56,785.72,267.77,841.89,240.29Z" transform="translate(0.27 -129.67)"/><path class="cls-23" d="M841.89,240.52v13.61C721.82,318,583.1,319.55,402.77,276.71S95.81,269.13,0,291.84v-50S144.83,197.6,353.55,245C586.25,297.84,790.4,265.71,841.89,240.52Z" transform="translate(0.27 -129.67)"/><path class="cls-24" d="M841.89,240.74v13.2C715.82,321,575.45,318.23,395.61,274.65S87.1,272.94,0,293.58V242.06S145.71,197,358.23,247C592.46,302.11,795.08,263.65,841.89,240.74Z" transform="translate(0.27 -129.67)"/><path class="cls-25" d="M841.89,241v12.77C709.81,324,567.81,316.9,388.45,272.58S78.39,276.74,0,295.32V242.26S146.61,196.38,362.9,249C598.68,306.36,799.76,261.58,841.89,241Z" transform="translate(0.27 -129.67)"/><path class="cls-26" d="M841.89,241.19v12.36c-138.08,73.45-281.73,62-460.6,17S69.68,280.55,0,297.06V242.45S147.51,195.74,367.58,251C604.91,310.59,804.44,259.52,841.89,241.19Z" transform="translate(0.27 -129.67)"/><path class="cls-27" d="M841.89,241.42v11.93C697.8,330,552.52,314.26,374.13,268.45S61,284.36,0,298.81V242.65S148.42,195.08,372.26,253C611.14,314.81,809.12,257.45,841.89,241.42Z" transform="translate(0.27 -129.67)"/><path class="cls-28" d="M841.89,241.65v11.51C691.8,333,544.87,312.94,367,266.39S52.26,288.16,0,300.55V242.84S149.33,194.41,376.94,255C617.39,319,813.8,255.39,841.89,241.65Z" transform="translate(0.27 -129.67)"/><path class="cls-29" d="M841.89,241.87V253c-156.09,83-304.66,58.64-482.08,11.35S43.55,292,0,302.29V243s150.26-49.32,381.61,14C623.64,323.21,818.48,253.32,841.89,241.87Z" transform="translate(0.27 -129.67)"/><path class="cls-30" d="M841.89,242.1v10.67c-162.1,86.23-312.31,57.52-489.24,9.49S34.84,295.77,0,304v-60.8S151.19,193,386.29,259C629.89,327.39,823.17,251.26,841.89,242.1Z" transform="translate(0.27 -129.67)"/><path class="cls-31" d="M841.89,242.32v10.26C673.79,342,521.94,309,345.48,260.19S26.13,299.58,0,305.77V243.42S152.13,192.27,391,261C636.16,331.55,827.85,249.19,841.89,242.32Z" transform="translate(0.27 -129.67)"/><path class="cls-32" d="M841.89,242.55v9.84c-174.1,92.61-327.6,55.26-503.57,5.74S17.42,303.39,0,307.52V243.61S153.08,191.53,395.65,263C642.43,335.71,832.53,247.13,841.89,242.55Z" transform="translate(0.27 -129.67)"/><path class="cls-33" d="M841.89,242.77v9.42C661.78,348,506.65,306.32,331.16,256.06S8.71,307.19,0,309.26V243.81S154.13,190.46,400.32,265C648.81,339.55,837.21,245.06,841.89,242.77Z" transform="translate(0.27 -129.67)"/><path class="cls-34" d="M841.89,243S655,344,405,267,0,244,0,244v67s149-108,324-57,331.78,97,517.89-2Z" transform="translate(0.27 -129.67)"/></g><path class="cls-35" d="M0,180s159-77,312-27,228.53,117,420,94c100-12,109.89-29,109.89-29v50s-115,82.76-381.89-33C181,114,0,203,0,203Z" transform="translate(0.27 -129.67)"/><path class="cls-36" d="M0,271s103.82-59.8,244-39c155,23,346.78,163,597.89,88v19S731,413,498,330c-223.74-79.7-338-56-498,1Z" transform="translate(0.27 -129.67)"/><g class="cls-37"><path class="cls-38" d="M0,344s169-106,405-77,318.78,21,436.89-87" transform="translate(0.27 -129.67)"/><path class="cls-38" d="M0,346s172.08-105.85,406.46-73.46,320.63,21.15,435.43-81.31" transform="translate(0.27 -129.67)"/><path class="cls-38" d="M0,348s175.15-105.69,407.92-69.92,322.47,21.3,434-75.62" transform="translate(0.27 -129.67)"/><path class="cls-38" d="M0,350s178.23-105.54,409.38-66.38,324.32,21.46,432.51-69.93" transform="translate(0.27 -129.67)"/><path class="cls-38" d="M0,352s181.31-105.38,410.85-62.85,326.16,21.62,431-64.23" transform="translate(0.27 -129.67)"/><path class="cls-38" d="M0,354s184.38-105.23,412.31-59.31,328,21.77,429.58-58.54" transform="translate(0.27 -129.67)"/><path class="cls-38" d="M0,356s187.46-105.08,413.77-55.77,329.85,21.92,428.12-52.85" transform="translate(0.27 -129.67)"/><path class="cls-38" d="M0,358s190.54-104.92,415.23-52.23,331.7,22.08,426.66-47.15" transform="translate(0.27 -129.67)"/><path class="cls-38" d="M0,360s193.62-104.77,416.69-48.69,333.55,22.23,425.2-41.46" transform="translate(0.27 -129.67)"/><path class="cls-38" d="M0,362s196.69-104.62,418.15-45.15,335.4,22.38,423.74-35.77" transform="translate(0.27 -129.67)"/><path class="cls-38" d="M0,364s199.77-104.46,419.62-41.62,337.24,22.54,422.27-30.07" transform="translate(0.27 -129.67)"/><path class="cls-38" d="M0,366s202.85-104.31,421.08-38.08,339.08,22.7,420.81-24.38" transform="translate(0.27 -129.67)"/><path class="cls-38" d="M0,368s205.92-104.15,422.54-34.54,340.93,22.85,419.35-18.69" transform="translate(0.27 -129.67)"/><path class="cls-38" d="M0,370s209-104,424-31,342.78,23,417.89-13" transform="translate(0.27 -129.67)"/></g><path class="cls-39" d="M0,357s55-29.45,194-57c222-44,378,148,647.89-31v30S709,392,530,354C297.67,304.68,268,252,0,417Z" transform="translate(0.27 -129.67)"/><g class="cls-40"><circle class="cls-41" cx="148.27" cy="42.33" r="42.33"/></g><g class="cls-42"><path class="cls-43" d="M0,202.67s140-83,371-6,274.78,96,470.89,76" transform="translate(0.27 -129.67)"/><path class="cls-43" d="M0,205.36s92-53.61,249.39-34.77a627.15,627.15,0,0,1,121.84,27.07C467.31,229,530.74,251.57,590.12,266c81.39,19.79,147.6,20.17,251.77,9.54" transform="translate(0.27 -129.67)"/><path class="cls-43" d="M0,208.05s92.24-52.42,249.44-35.29a622.88,622.88,0,0,1,122,25.89c94.08,30,156.6,52.9,218.81,68.46,86.1,21.64,156.12,21,251.61,11.25" transform="translate(0.27 -129.67)"/><path class="cls-43" d="M0,210.74s92.47-51.49,249.49-35.81a616.18,616.18,0,0,1,122.22,24.72c92.08,28.64,153.7,51.87,218.72,68.6,90.82,23.5,164.65,21.81,251.46,13" transform="translate(0.27 -129.67)"/><path class="cls-43" d="M0,213.44s92.72-50.6,249.54-36.33a611,611,0,0,1,122.4,23.53C462,227.94,522.75,251.5,590.59,269.4c95.54,25.34,173.17,22.62,251.3,14.65" transform="translate(0.27 -129.67)"/><path class="cls-43" d="M0,216.13s93-49.75,249.6-36.85a609.36,609.36,0,0,1,122.58,22.35c88.08,26,147.9,49.85,218.57,68.91C691,297.73,772.44,294,841.89,286.9" transform="translate(0.27 -129.67)"/><path class="cls-43" d="M0,218.82s93.22-48.93,249.65-37.37c43.13,3.19,83.11,9.93,122.76,21.18,86.09,24.6,145,48.83,218.49,69.05,105,29,190.22,24.26,251,18.06" transform="translate(0.27 -129.67)"/><path class="cls-43" d="M0,221.51s93.47-48.14,249.7-37.88c44.16,2.9,84,9.31,123,20,84.09,23.26,142.11,47.81,218.41,69.2,109.69,30.89,198.74,25.08,250.83,19.77" transform="translate(0.27 -129.67)"/><path class="cls-43" d="M0,224.21s93.73-47.39,249.75-38.41c45.18,2.6,84.91,8.7,123.13,18.81C455,226.52,512.09,251.41,591.22,274c114.41,32.75,207.27,25.9,250.67,21.48" transform="translate(0.27 -129.67)"/><path class="cls-43" d="M0,226.9S94,180.24,249.8,188c46.2,2.3,85.81,8.09,123.32,17.64,80.09,20.56,136.31,45.78,218.25,69.49,119.13,34.6,215.8,26.72,250.52,23.18" transform="translate(0.27 -129.67)"/><path class="cls-43" d="M0,229.59s94.24-46,249.85-39.44c47.22,2,86.72,7.47,123.5,16.45,78.1,19.21,133.42,44.76,218.18,69.64,123.85,36.45,224.32,27.54,250.36,24.89" transform="translate(0.27 -129.67)"/><path class="cls-43" d="M0,232.28s94.49-45.28,249.9-40c48.25,1.65,87.62,6.86,123.69,15.28,76.1,17.86,130.51,43.74,218.1,69.78,128.56,38.3,232.84,28.36,250.2,26.59" transform="translate(0.27 -129.67)"/><path class="cls-43" d="M0,235s94.75-44.8,250-40.48c49.27,1.27,88.52,6.25,123.87,14.1,74.11,16.51,127.62,42.73,218,69.94,133.28,40.14,241.37,29.18,250,28.29" transform="translate(0.27 -129.67)"/><path class="cls-43" d="M0,237.67s95-44,250-41,204,41,342,83,249.89,30,249.89,30" transform="translate(0.27 -129.67)"/></g><g class="cls-42"><path class="cls-43" d="M0,172.67s140-83,371-6,274.78,96,470.89,76" transform="translate(0.27 -129.67)"/><path class="cls-43" d="M0,175.36s92-53.61,249.39-34.77a627.15,627.15,0,0,1,121.84,27.07C467.31,199,530.74,221.57,590.12,236c81.39,19.79,147.6,20.17,251.77,9.54" transform="translate(0.27 -129.67)"/><path class="cls-43" d="M0,178.05s92.24-52.42,249.44-35.29a622.88,622.88,0,0,1,122,25.89c94.08,30,156.6,52.9,218.81,68.46,86.1,21.64,156.12,21,251.61,11.25" transform="translate(0.27 -129.67)"/><path class="cls-43" d="M0,180.74s92.47-51.49,249.49-35.8a615.43,615.43,0,0,1,122.22,24.71c92.08,28.64,153.7,51.88,218.72,68.6,90.82,23.5,164.65,21.81,251.46,13" transform="translate(0.27 -129.67)"/><path class="cls-43" d="M0,183.44s92.72-50.6,249.54-36.33a611,611,0,0,1,122.4,23.53C462,197.94,522.75,221.5,590.59,239.4c95.54,25.34,173.17,22.62,251.3,14.65" transform="translate(0.27 -129.67)"/><path class="cls-43" d="M0,186.13s93-49.75,249.6-36.85a609.36,609.36,0,0,1,122.58,22.35c88.08,26,147.9,49.85,218.57,68.91C691,267.73,772.44,264,841.89,256.9" transform="translate(0.27 -129.67)"/><path class="cls-43" d="M0,188.82s93.22-48.93,249.65-37.36c43.13,3.18,83.11,9.92,122.76,21.17,86.09,24.6,145,48.83,218.49,69.05,105,29,190.22,24.26,251,18.06" transform="translate(0.27 -129.67)"/><path class="cls-43" d="M0,191.51s93.47-48.14,249.7-37.88c44.16,2.9,84,9.31,123,20,84.09,23.26,142.11,47.81,218.41,69.2,109.69,30.89,198.74,25.08,250.83,19.77" transform="translate(0.27 -129.67)"/><path class="cls-43" d="M0,194.21s93.73-47.39,249.75-38.41c45.18,2.6,84.91,8.7,123.13,18.82C455,196.52,512.09,221.41,591.22,244c114.41,32.75,207.27,25.9,250.67,21.48" transform="translate(0.27 -129.67)"/><path class="cls-43" d="M0,196.9S94,150.24,249.8,158c46.2,2.3,85.81,8.09,123.32,17.64,80.09,20.56,136.31,45.78,218.25,69.49,119.13,34.6,215.8,26.72,250.52,23.18" transform="translate(0.27 -129.67)"/><path class="cls-43" d="M0,199.59s94.24-46,249.85-39.44c47.22,2,86.72,7.47,123.5,16.45,78.1,19.21,133.42,44.76,218.18,69.64,123.85,36.45,224.32,27.54,250.36,24.89" transform="translate(0.27 -129.67)"/><path class="cls-43" d="M0,202.28s94.49-45.28,249.9-40c48.25,1.65,87.62,6.86,123.69,15.28,76.1,17.86,130.51,43.74,218.1,69.78,128.56,38.3,232.84,28.36,250.2,26.59" transform="translate(0.27 -129.67)"/><path class="cls-43" d="M0,205s94.75-44.8,250-40.48c49.27,1.27,88.52,6.25,123.87,14.1,74.11,16.51,127.62,42.73,218,69.94,133.28,40.14,241.37,29.18,250,28.29" transform="translate(0.27 -129.67)"/><path class="cls-43" d="M0,207.67s95-44,250-41,204,41,342,83,249.89,30,249.89,30" transform="translate(0.27 -129.67)"/></g></g></g></svg>