<svg id="Livello_1" data-name="Livello 1" xmlns="http://www.w3.org/2000/svg" viewBox="0 0 847.83 105.8"><defs><style>.cls-1{opacity:0.96;}.cls-2{fill:none;stroke:#db0ab9;isolation:isolate;opacity:0.2;}</style></defs><g class="cls-1"><path class="cls-2" d="M6876.58-7075.13s133.58-93,369.58-33,281,75.72,475.17,41.49" transform="translate(-6876.29 7128.8)"/><path class="cls-2" d="M6876.78-7072.47s87.88-60.18,246.19-52.85a627.38,627.38,0,0,1,123.5,18.12c98.1,24.26,163,42.15,223.28,52.18,82.61,13.81,148.67,9.36,251.79-8.82" transform="translate(-6876.29 7128.8)"/><path class="cls-2" d="M6877-7069.78s88.18-59,246.21-53.37a620.9,620.9,0,0,1,123.6,16.93c96,23.06,160,41.34,223.2,52.33,87.46,15.31,157.24,9.56,251.77-7.11" transform="translate(-6876.29 7128.8)"/><path class="cls-2" d="M6877.17-7067.13s88.48-58.09,246.22-53.89a615.84,615.84,0,0,1,123.7,15.74c93.92,21.86,157.07,40.54,223.13,52.49,92.3,16.81,165.8,9.75,251.74-5.41" transform="translate(-6876.29 7128.8)"/><path class="cls-2" d="M6877.37-7064.41s88.78-57.22,246.23-54.42a611,611,0,0,1,123.8,14.56c91.83,20.66,154.1,39.73,223.06,52.64,97.14,18.31,174.36,9.94,251.7-3.7" transform="translate(-6876.29 7128.8)"/><path class="cls-2" d="M6877.56-7061.73s89.1-56.4,246.25-54.93a607.78,607.78,0,0,1,123.9,13.36c89.73,19.46,151.13,38.94,223,52.79,102,19.82,182.93,10.14,251.67-2" transform="translate(-6876.29 7128.8)"/><path class="cls-2" d="M6877.76-7059s89.41-54.23,246.26-55.46a582.28,582.28,0,0,1,124,12.17c87.64,18.27,148.17,38.14,222.92,52.95,106.82,21.32,191.49,10.34,251.64-.27" transform="translate(-6876.29 7128.8)"/><path class="cls-2" d="M6878-7056.36s89.71-54.82,246.27-56c44.26-.32,84.48,3.17,124.1,11,85.55,17.06,145.2,37.33,222.85,53.1,111.65,22.82,200,10.53,251.61,1.44" transform="translate(-6876.29 7128.8)"/><path class="cls-2" d="M6878.15-7053.67s90-54.09,246.29-56.5c45.26-.7,85.33,2.48,124.2,9.79,83.46,15.87,142.26,36.53,222.78,53.25C7587.91-7022.8,7680-7036.4,7723-7044" transform="translate(-6876.29 7128.8)"/><path class="cls-2" d="M6878.35-7051s90.33-53.38,246.29-57c46.27-1.08,86.2,1.81,124.31,8.61,81.37,14.67,139.27,35.72,222.71,53.4,121.33,25.85,217.17,10.91,251.54,4.85" transform="translate(-6876.29 7128.8)"/><path class="cls-2" d="M6878.54-7048.3s90.64-52.7,246.36-57.54c47.26-1.47,87.06,1.13,124.41,7.41,79.28,13.47,136.3,34.92,222.64,53.56,126.17,27.32,225.73,11.12,251.51,6.57" transform="translate(-6876.29 7128.8)"/><path class="cls-2" d="M6878.74-7045.62s90.94-52,246.32-58.06c48.26-1.87,87.91.45,124.51,6.22,77.18,12.33,133.33,34.12,222.57,53.71,131,28.83,234.29,11.32,251.48,8.29" transform="translate(-6876.29 7128.8)"/><path class="cls-2" d="M6878.9-7042.93s91.23-51.59,246.33-58.59c49.25-2.33,88.77-.22,124.61,5,75.09,11.07,130.37,33.31,222.5,53.86,135.85,30.33,242.85,11.52,251.44,10" transform="translate(-6876.29 7128.8)"/><path class="cls-2" d="M6879.13-7040.25s91.54-50.8,246.35-59.1,206.45,26,347.14,57.86S7724-7029.78,7724-7029.78" transform="translate(-6876.29 7128.8)"/></g></svg>